<svg xmlns="http://www.w3.org/2000/svg" width="34.792" height="34.792" viewBox="0 0 34.792 34.792">
  <g id="Icon" opacity="0.28">
    <path id="Path_301124" data-name="Path 301124" d="M20.025,11.25A4.855,4.855,0,1,0,24.879,16.1,4.856,4.856,0,0,0,20.025,11.25Zm0,2.427A2.427,2.427,0,1,1,17.6,16.1,2.428,2.428,0,0,1,20.025,13.677Z" transform="translate(7.356 4.932)" fill="#0091ff" fill-rule="evenodd"/>
    <path id="Path_301125" data-name="Path 301125" d="M16.41,26.15c2.46,0,6.753,0,9.213-.021a2.812,2.812,0,0,0,2.626-3.783,7.705,7.705,0,0,0-14.5-.006A2.833,2.833,0,0,0,16.41,26.15Zm0-2.427h0a.406.406,0,0,1-.38-.545,0,0,0,0,0,0,0,5.279,5.279,0,0,1,9.938,0s0,.01,0,.013a.384.384,0,0,1-.359.516H25.6c-2.455.021-6.738.021-9.192.021Z" transform="translate(6.37 8.642)" fill="#0091ff" fill-rule="evenodd"/>
    <path id="Path_301126" data-name="Path 301126" d="M32.806,12.864V8.818A6.069,6.069,0,0,0,26.737,2.75H7.318A6.069,6.069,0,0,0,1.25,8.818V28.237a6.069,6.069,0,0,0,6.068,6.068h9.709a1.214,1.214,0,1,0,0-2.427H7.318a3.64,3.64,0,0,1-3.641-3.641V8.818A3.64,3.64,0,0,1,7.318,5.177H26.737a3.64,3.64,0,0,1,3.641,3.641v4.046a1.214,1.214,0,0,0,2.427,0Z" transform="translate(-1.25 -0.323)" fill="#0091ff" fill-rule="evenodd"/>
    <path id="Path_301127" data-name="Path 301127" d="M6,2.464V7.318a1.214,1.214,0,0,0,2.427,0V2.464A1.214,1.214,0,0,0,6,2.464Z" transform="translate(1.687 -1.25)" fill="#0091ff" fill-rule="evenodd"/>
    <path id="Path_301128" data-name="Path 301128" d="M14.5,2.464V7.318a1.214,1.214,0,0,0,2.427,0V2.464a1.214,1.214,0,0,0-2.427,0Z" transform="translate(6.942 -1.25)" fill="#0091ff" fill-rule="evenodd"/>
    <path id="Path_301129" data-name="Path 301129" d="M6.464,11.677H11.48a1.214,1.214,0,1,0,0-2.427H6.464a1.214,1.214,0,1,0,0,2.427Z" transform="translate(1.223 3.696)" fill="#0091ff" fill-rule="evenodd"/>
    <path id="Path_301130" data-name="Path 301130" d="M6.464,15.677h8.091a1.214,1.214,0,1,0,0-2.427H6.464a1.214,1.214,0,1,0,0,2.427Z" transform="translate(1.223 6.169)" fill="#0091ff" fill-rule="evenodd"/>
  </g>
</svg>
