<svg xmlns="http://www.w3.org/2000/svg" width="68.506" height="74.701" viewBox="0 0 68.506 74.701">
  <g id="Group_76523" data-name="Group 76523" transform="translate(-792 -3203.708)">
    <g id="customer-service-agent" transform="translate(792 3203.708)">
      <g id="Group_76235" data-name="Group 76235">
        <g id="Group_76234" data-name="Group 76234">
          <g id="Group_76233" data-name="Group 76233">
            <g id="Group_76232" data-name="Group 76232">
              <g id="Group_76231" data-name="Group 76231">
                <path id="Path_300946" data-name="Path 300946" d="M143.425,34.653l-.05-.108a19.531,19.531,0,0,1-1.775-8.218l0-5.947A19.07,19.07,0,0,0,128.427,2.246a18.578,18.578,0,0,0-15.089,18.246l0,5.794a19.029,19.029,0,0,1-1.73,8.007l-.048.105a9.273,9.273,0,0,0,7.1,13.038,13.34,13.34,0,0,0,1.816.124h17.59a9.544,9.544,0,0,0,5.36-12.907Z" transform="translate(-94.56 -1.918)" fill="#e7a561"/>
                <g id="Group_76221" data-name="Group 76221" transform="translate(18.774 18.966)">
                  <path id="Path_300947" data-name="Path 300947" d="M132.935,129.993h3.62v8.517h-3.62a4.258,4.258,0,1,1,0-8.517Z" transform="translate(-128.677 -129.993)" fill="#ffcbbe"/>
                </g>
                <path id="Path_300948" data-name="Path 300948" d="M247.207,32.48l-.048-.105a19.027,19.027,0,0,1-1.73-8.007l0-5.794A18.586,18.586,0,0,0,221.874.676a18.581,18.581,0,0,1,13.594,17.9l0,5.794a19.029,19.029,0,0,0,1.73,8.007l.048.105a9.273,9.273,0,0,1-7.1,13.038,13.34,13.34,0,0,1-1.816.124h9.958a13.34,13.34,0,0,0,1.816-.124A9.273,9.273,0,0,0,247.207,32.48Z" transform="translate(-189.502)" fill="#e49542"/>
                <g id="Group_76230" data-name="Group 76230">
                  <g id="Group_76229" data-name="Group 76229">
                    <g id="Group_76228" data-name="Group 76228">
                      <g id="Group_76227" data-name="Group 76227">
                        <g id="Group_76226" data-name="Group 76226">
                          <g id="Group_76225" data-name="Group 76225">
                            <path id="Path_300949" data-name="Path 300949" d="M189.407,239.818a14.262,14.262,0,0,0,10.953-5.112,1.819,1.819,0,0,0-1.058-2.949,3.635,3.635,0,0,1-2.948-3.569v-9.982H182.46v9.982a3.634,3.634,0,0,1-2.947,3.569,1.819,1.819,0,0,0-1.058,2.949A14.262,14.262,0,0,0,189.407,239.818Z" transform="translate(-152.056 -186.369)" fill="#ffcbbe"/>
                            <path id="Path_300950" data-name="Path 300950" d="M163.424,321.109v18.138l1.231,1.313h24.552l1.231-1.313V321.109a23.118,23.118,0,0,0-.311-3.763,22.221,22.221,0,0,0-5.491-2.972,11.264,11.264,0,0,1-17.745-3.1l-1.393.268A23.122,23.122,0,0,0,163.424,321.109Z" transform="translate(-139.58 -265.858)" fill="#f9f6f9"/>
                            <path id="Path_300951" data-name="Path 300951" d="M306.753,311.432l-.075-.158a11.325,11.325,0,0,1-3.1,3.756,21.377,21.377,0,0,1,5.072,2.592A22.314,22.314,0,0,0,306.753,311.432Z" transform="translate(-259.288 -265.859)" fill="#dddaec"/>
                            <g id="Group_76223" data-name="Group 76223">
                              <g id="Group_76222" data-name="Group 76222">
                                <path id="Path_300952" data-name="Path 300952" d="M42.461,332.9v3.935a3.561,3.561,0,0,0,3.561,3.561h5.54v-.562h2.255v.562h7.524V321.114a22.317,22.317,0,0,1,2.381-10.03l-3.853.741A21.463,21.463,0,0,0,42.461,332.9Z" transform="translate(-36.266 -265.696)" fill="#9bc4f9"/>
                                <path id="Path_300953" data-name="Path 300953" fill="#9bc4f9"/>
                              </g>
                              <path id="Path_300954" data-name="Path 300954" d="M336.8,346.316a22.324,22.324,0,0,1,.487,4.629V370.49h7.524v-.562h2.255v.562h.192v-5.272A22.308,22.308,0,0,0,336.8,346.316Z" transform="translate(-287.66 -295.788)" fill="#9bc4f9"/>
                              <path id="Path_300955" data-name="Path 300955" d="M328.517,311.988l-.08-.015-3.628-.7.075.158a22.324,22.324,0,0,1,1.9,6.191,21.461,21.461,0,0,1,9.246,17.648V340h.794v.562h5.54A3.561,3.561,0,0,0,345.925,337v-3.935A21.464,21.464,0,0,0,328.517,311.988Z" transform="translate(-277.419 -265.859)" fill="#7fb2f9"/>
                            </g>
                            <g id="Group_76224" data-name="Group 76224" transform="translate(15.297 66.808)">
                              <path id="Path_300956" data-name="Path 300956" d="M107.1,465.756v-6.728a1.127,1.127,0,0,0-2.254,0v6.728c0,.013,0,.025,0,.038h2.251C107.095,465.781,107.1,465.769,107.1,465.756Z" transform="translate(-104.842 -457.901)" fill="#61a2f9"/>
                              <path id="Path_300957" data-name="Path 300957" d="M392.834,457.9a1.127,1.127,0,0,0-1.127,1.127v6.766h2.255v-6.766A1.127,1.127,0,0,0,392.834,457.9Z" transform="translate(-349.853 -457.901)" fill="#61a2f9"/>
                            </g>
                          </g>
                        </g>
                      </g>
                    </g>
                  </g>
                  <path id="Path_300958" data-name="Path 300958" d="M331.058,131.564h4.557a3.5,3.5,0,0,0,3.5-3.5v-4.377a3.5,3.5,0,0,0-3.5-3.5h-4.557Z" transform="translate(-282.756 -102.65)" fill="#365e7d"/>
                  <path id="Path_300959" data-name="Path 300959" d="M193.129,99.772a19.618,19.618,0,0,1-1.54-7.687l0-5.947a19.021,19.021,0,0,0-1.157-6.552,6.173,6.173,0,0,0-6.442,1.493,7.107,7.107,0,0,1-5.064,2.12h-5.56a4.123,4.123,0,0,0-4.123,4.123v6.8a12.658,12.658,0,0,0,23.887,5.652Z" transform="translate(-144.549 -67.676)" fill="#ffddce"/>
                  <path id="Path_300960" data-name="Path 300960" d="M311.177,85.705a6.172,6.172,0,0,0-5.4-6.122,18.514,18.514,0,0,1,1.352,6.962l0,5.794a19.029,19.029,0,0,0,1.73,8.007l.048.105c.093.2.177.408.254.613a12.6,12.6,0,0,0,2.009-6.65Z" transform="translate(-261.168 -67.972)" fill="#ffcbbe"/>
                </g>
              </g>
            </g>
          </g>
        </g>
      </g>
      <path id="Path_300961" data-name="Path 300961" d="M313.805,197.37h-1.218v3.36a1.611,1.611,0,0,1-1.609,1.609h-4.361a1.094,1.094,0,0,0,0,2.189h4.361a3.8,3.8,0,0,0,3.8-3.8v-3.5A3.5,3.5,0,0,1,313.805,197.37Z" transform="translate(-260.947 -168.456)" fill="#f9f6f9"/>
      <g id="Group_76236" data-name="Group 76236" transform="translate(38.875 32.615)">
        <path id="Path_300962" data-name="Path 300962" d="M272.23,228.264h-3.419a2.363,2.363,0,1,1,0-4.725h3.419a2.363,2.363,0,1,1,0,4.725Z" transform="translate(-266.448 -223.539)" fill="#475959"/>
      </g>
    </g>
  </g>
</svg>
