<svg xmlns="http://www.w3.org/2000/svg" width="128.586" height="95.812" viewBox="0 0 128.586 95.812">
  <g id="Group_76520" data-name="Group 76520" transform="translate(-762 -1853.639)">
    <g id="Documents-rafiki_1_" data-name="Documents-rafiki (1)" transform="translate(762 1798.639)">
      <g id="freepik--background-complete--inject-2" transform="translate(0 55)">
        <rect id="Rectangle_23216" data-name="Rectangle 23216" width="128.586" height="0.064" transform="translate(0 84.198)" fill="#e6e6e6"/>
        <rect id="Rectangle_23217" data-name="Rectangle 23217" width="4.827" height="0.064" transform="translate(115.632 86.467)" fill="#e6e6e6"/>
        <rect id="Rectangle_23218" data-name="Rectangle 23218" width="2.235" height="0.064" transform="translate(95.943 88.231)" fill="#e6e6e6"/>
        <rect id="Rectangle_23219" data-name="Rectangle 23219" width="4.979" height="0.064" transform="translate(71.998 87.343)" fill="#e6e6e6"/>
        <rect id="Rectangle_23220" data-name="Rectangle 23220" width="11.107" height="0.064" transform="translate(20.813 87.31)" fill="#e6e6e6"/>
        <rect id="Rectangle_23221" data-name="Rectangle 23221" width="1.628" height="0.064" transform="translate(16.896 87.31)" fill="#e6e6e6"/>
        <rect id="Rectangle_23222" data-name="Rectangle 23222" width="24.092" height="0.064" transform="translate(48.683 85.788)" fill="#e6e6e6"/>
        <path id="Path_300695" data-name="Path 300695" d="M89.333,127.728H39.676a1.468,1.468,0,0,1-1.466-1.468v-69.8A1.468,1.468,0,0,1,39.676,55H89.333A1.468,1.468,0,0,1,90.8,56.468V126.26A1.468,1.468,0,0,1,89.333,127.728ZM39.676,55.051a1.4,1.4,0,0,0-1.4,1.4v69.8a1.4,1.4,0,0,0,1.4,1.4H89.333a1.407,1.407,0,0,0,1.4-1.4v-69.8a1.407,1.407,0,0,0-1.4-1.4Z" transform="translate(-28.383 -55)" fill="#e6e6e6"/>
        <path id="Path_300696" data-name="Path 300696" d="M305.628,127.728h-49.66a1.471,1.471,0,0,1-1.468-1.468v-69.8A1.471,1.471,0,0,1,255.968,55h49.66a1.468,1.468,0,0,1,1.463,1.456v69.8A1.468,1.468,0,0,1,305.628,127.728Zm-49.66-72.677a1.407,1.407,0,0,0-1.4,1.4v69.8a1.407,1.407,0,0,0,1.4,1.4h49.66a1.407,1.407,0,0,0,1.4-1.4v-69.8a1.407,1.407,0,0,0-1.4-1.4Z" transform="translate(-189.05 -55)" fill="#e6e6e6"/>
        <rect id="Rectangle_23223" data-name="Rectangle 23223" width="52.013" height="37.066" transform="translate(15.099 4.804)" fill="#fafafa"/>
        <rect id="Rectangle_23224" data-name="Rectangle 23224" width="52.525" height="37.066" transform="translate(15.549 4.804)" fill="#f5f5f5"/>
        <rect id="Rectangle_23225" data-name="Rectangle 23225" width="34.039" height="49.83" transform="translate(66.726 6.316) rotate(90)" fill="#fafafa"/>
        <path id="Path_300697" data-name="Path 300697" d="M100.98,113.6l7.905-34.039H119.25L111.344,113.6Z" transform="translate(-75.011 -73.244)" fill="#fff"/>
        <path id="Path_300698" data-name="Path 300698" d="M147.8,113.6l7.908-34.039h4.681L152.481,113.6Z" transform="translate(-109.79 -73.244)" fill="#fff"/>
        <rect id="Rectangle_23226" data-name="Rectangle 23226" width="34.039" height="0.172" transform="translate(66.726 6.316) rotate(90)" fill="#fafafa"/>
        <path id="Path_300699" data-name="Path 300699" d="M54.78,70.387v14.69h3.886a21.907,21.907,0,0,0,8.569-13.923,1.558,1.558,0,0,0-1.543-1.823H55.837A1.057,1.057,0,0,0,54.78,70.387Z" transform="translate(-40.692 -65.645)" fill="#e0e0e0"/>
        <path id="Path_300700" data-name="Path 300700" d="M54.78,160.957V135.17h3.886s7.887,15.186,8.8,25.787Z" transform="translate(-40.692 -114.552)" fill="#e0e0e0"/>
        <rect id="Rectangle_23227" data-name="Rectangle 23227" width="4.408" height="1.186" rx="0.593" transform="translate(13.841 19.432)" fill="#f5f5f5"/>
        <path id="Path_300701" data-name="Path 300701" d="M232.938,70.387v14.69h-3.894a21.862,21.862,0,0,1-8.569-13.923,1.561,1.561,0,0,1,1.543-1.823h9.865A1.06,1.06,0,0,1,232.938,70.387Z" transform="translate(-163.759 -65.645)" fill="#e0e0e0"/>
        <path id="Path_300702" data-name="Path 300702" d="M232.334,160.957V135.17H228.44s-7.885,15.186-8.8,25.787Z" transform="translate(-163.155 -114.552)" fill="#e0e0e0"/>
        <rect id="Rectangle_23228" data-name="Rectangle 23228" width="4.408" height="1.186" rx="0.593" transform="translate(69.419 20.615) rotate(180)" fill="#f5f5f5"/>
        <rect id="Rectangle_23229" data-name="Rectangle 23229" width="8.546" height="33.108" transform="translate(59.458 51.09)" fill="#fafafa"/>
        <path id="Path_300703" data-name="Path 300703" d="M248.652,371.354h2.281V367.53H246.26Z" transform="translate(-182.929 -287.156)" fill="#f4f8ff"/>
        <rect id="Rectangle_23230" data-name="Rectangle 23230" width="8.546" height="33.108" transform="translate(18.573 51.09)" fill="#e0e0e0"/>
        <rect id="Rectangle_23231" data-name="Rectangle 23231" width="42.876" height="31.792" transform="translate(25.128 51.09)" fill="#fafafa"/>
        <path id="Path_300704" data-name="Path 300704" d="M147.8,231.8c0,3.086,2.973,5.622,6.609,5.622h3.282c3.634,0,6.607-2.531,6.607-5.622Z" transform="translate(-109.79 -186.332)" fill="#ebebeb"/>
        <path id="Path_300705" data-name="Path 300705" d="M138.883,204.33h6.172a17.22,17.22,0,0,0-1.072,4.5c0,1.666,4.7,8.191-2.014,8.191s-2.014-6.527-2.014-8.191A17.25,17.25,0,0,0,138.883,204.33Z" transform="translate(-102.776 -165.926)" fill="#e0e0e0"/>
        <rect id="Rectangle_23232" data-name="Rectangle 23232" width="39.337" height="8.016" transform="translate(26.898 53.026)" fill="#ebebeb"/>
        <path id="Path_300706" data-name="Path 300706" d="M99.991,371.354H97.71V367.53h4.675Z" transform="translate(-72.582 -287.156)" fill="#fafafa"/>
        <path id="Path_300707" data-name="Path 300707" d="M176.37,273.279a1.209,1.209,0,1,0,1.209-1.209A1.209,1.209,0,0,0,176.37,273.279Z" transform="translate(-131.012 -216.246)" fill="#fafafa"/>
        <rect id="Rectangle_23233" data-name="Rectangle 23233" width="39.337" height="8.016" transform="translate(26.898 62.979)" fill="#ebebeb"/>
        <path id="Path_300708" data-name="Path 300708" d="M176.37,311.979a1.209,1.209,0,1,0,1.209-1.209A1.209,1.209,0,0,0,176.37,311.979Z" transform="translate(-131.012 -244.993)" fill="#fafafa"/>
        <rect id="Rectangle_23234" data-name="Rectangle 23234" width="39.337" height="8.016" transform="translate(26.898 72.929)" fill="#ebebeb"/>
        <circle id="Ellipse_9531" data-name="Ellipse 9531" cx="1.209" cy="1.209" r="1.209" transform="translate(45.358 75.73)" fill="#fafafa"/>
        <rect id="Rectangle_23235" data-name="Rectangle 23235" width="19.09" height="13.589" transform="translate(76.033 4.357)" fill="#e0e0e0"/>
        <rect id="Rectangle_23236" data-name="Rectangle 23236" width="19.563" height="13.589" transform="translate(77.118 4.357)" fill="#f5f5f5"/>
        <rect id="Rectangle_23237" data-name="Rectangle 23237" width="11.094" height="17.069" transform="translate(95.434 5.604) rotate(90)" fill="#fff"/>
        <rect id="Rectangle_23238" data-name="Rectangle 23238" width="4.632" height="11.061" transform="translate(92.43 8.834) rotate(90)" fill="#f5f5f5"/>
        <rect id="Rectangle_23239" data-name="Rectangle 23239" width="11.619" height="12.185" transform="translate(98.991 11.151)" fill="#e0e0e0"/>
        <rect id="Rectangle_23240" data-name="Rectangle 23240" width="12.095" height="12.185" transform="translate(100.079 11.151)" fill="#f5f5f5"/>
        <rect id="Rectangle_23241" data-name="Rectangle 23241" width="9.69" height="9.6" transform="translate(110.926 12.398) rotate(90)" fill="#fff"/>
        <path id="Path_300709" data-name="Path 300709" d="M405.68,117.385h0a1.615,1.615,0,0,1,1.612-1.615h.365a1.615,1.615,0,0,1,1.612,1.615h0A1.612,1.612,0,0,1,407.658,119h-.352a1.613,1.613,0,0,1-1.625-1.612Z" transform="translate(-301.35 -100.142)" fill="#f5f5f5"/>
        <path id="Path_300710" data-name="Path 300710" d="M282.485,161.85H246.227v7.09h-5.578v7.09H235.07v7.09h-5.578v7.09h-5.578V197.3h-5.578v7.09h-5.578v7.09H207.18v7.09h75.305Z" transform="translate(-153.899 -134.371)" fill="#fafafa"/>
        <rect id="Rectangle_23242" data-name="Rectangle 23242" width="31.794" height="2.127" transform="translate(52.707 77.108)" fill="#ebebeb"/>
        <rect id="Rectangle_23243" data-name="Rectangle 23243" width="31.794" height="2.127" transform="translate(58.286 70.018)" fill="#ebebeb"/>
        <rect id="Rectangle_23244" data-name="Rectangle 23244" width="31.794" height="2.127" transform="translate(63.864 62.928)" fill="#ebebeb"/>
        <rect id="Rectangle_23245" data-name="Rectangle 23245" width="31.794" height="2.127" transform="translate(69.442 55.837)" fill="#ebebeb"/>
        <rect id="Rectangle_23246" data-name="Rectangle 23246" width="31.794" height="2.127" transform="translate(75.02 48.75)" fill="#ebebeb"/>
        <rect id="Rectangle_23247" data-name="Rectangle 23247" width="31.794" height="2.127" transform="translate(80.598 41.659)" fill="#ebebeb"/>
        <rect id="Rectangle_23248" data-name="Rectangle 23248" width="31.794" height="2.127" transform="translate(86.176 34.569)" fill="#ebebeb"/>
        <rect id="Rectangle_23249" data-name="Rectangle 23249" width="31.794" height="2.127" transform="translate(91.754 27.479)" fill="#ebebeb"/>
        <path id="Path_300711" data-name="Path 300711" d="M365.526,161.85v7.09h-5.578v7.09H354.37v7.09h-5.578v7.09h-5.578V197.3h-5.578v7.09h-5.578v7.09H326.48v7.09H371.1V161.85Z" transform="translate(-242.518 -134.371)" fill="#fff"/>
      </g>
      <g id="freepik--Shadow--inject-2" transform="translate(14.43 144.99)">
        <ellipse id="Ellipse_9532" data-name="Ellipse 9532" cx="49.863" cy="2.911" rx="49.863" ry="2.911" fill="#f5f5f5"/>
      </g>
      <g id="freepik--Character--inject-2" transform="translate(68.922 75.893)">
        <path id="Path_300712" data-name="Path 300712" d="M359.292,161.779c.36,1.206,2.217,3.464,2.363,5.107s-3.019,4.272-3.019,4.272-2.366-7.911-.885-8.834S359.292,161.779,359.292,161.779Z" transform="translate(-334.308 -155.154)" fill="#263238"/>
        <path id="Path_300713" data-name="Path 300713" d="M295.263,190.684c-.561.468-1.111.862-1.684,1.265s-1.165.771-1.767,1.116a20.008,20.008,0,0,1-1.865.975c-.324.147-.645.291-.98.417-.165.067-.332.131-.5.188l-.514.18a3.405,3.405,0,0,1-1.353.1,7.734,7.734,0,0,1-1.121-.216,14.818,14.818,0,0,1-2.008-.715,26.763,26.763,0,0,1-3.649-1.942l.481-.895c.607.257,1.229.514,1.846.738s1.24.46,1.862.653a15.624,15.624,0,0,0,1.852.483,6.049,6.049,0,0,0,.872.105,1.818,1.818,0,0,0,.648-.067,16.615,16.615,0,0,0,1.718-.772c.285-.149.568-.3.846-.465s.561-.324.836-.494c.553-.342,1.093-.7,1.628-1.078s1.067-.772,1.543-1.15Z" transform="translate(-276.78 -175.513)" fill="#e58a7b"/>
        <path id="Path_300714" data-name="Path 300714" d="M333.376,184.311c-.638-.5-3.276,1.134-4.076,1.816l.584,3.531s3.793-1.589,4.02-2.675A3.006,3.006,0,0,0,333.376,184.311Z" transform="translate(-313.535 -171.879)" fill="#0c8bfd"/>
        <path id="Path_300715" data-name="Path 300715" d="M333.376,184.311c-.638-.5-3.276,1.134-4.076,1.816l.584,3.531s3.793-1.589,4.02-2.675A3.006,3.006,0,0,0,333.376,184.311Z" transform="translate(-313.535 -171.879)" opacity="0.2"/>
        <path id="Path_300716" data-name="Path 300716" d="M346.937,190.774l-8.008,1.561c-4.138-11.205-3.238-11.573-3.238-11.573a16.081,16.081,0,0,1,1.8-.849l.108-.041c.514-.188.617-.216,1.3-.417,1.178-.28,2.276-.514,3.636-.707l.257-.036c.257-.031.491-.057.728-.08.159-.018.319-.028.471-.039l.514-.028c.88-.044,1.51-.031,1.51-.031C345.772,185.533,346.168,187.541,346.937,190.774Z" transform="translate(-318.221 -167.656)" fill="#0c8bfd"/>
        <path id="Path_300717" data-name="Path 300717" d="M346.937,190.774l-8.008,1.561c-4.138-11.205-3.238-11.573-3.238-11.573a16.081,16.081,0,0,1,1.8-.849l.108-.041c.514-.188.617-.216,1.3-.417,1.178-.28,2.276-.514,3.636-.707l.257-.036c.257-.031.491-.057.728-.08.159-.018.319-.028.471-.039l.514-.028c.88-.044,1.51-.031,1.51-.031C345.772,185.533,346.168,187.541,346.937,190.774Z" transform="translate(-318.221 -167.656)" opacity="0.2"/>
        <path id="Path_300718" data-name="Path 300718" d="M355.016,158.333c-.514.851,1.35,1.245,2.453.373a1.769,1.769,0,0,0-.082-2.69C356.631,155.641,355.016,158.333,355.016,158.333Z" transform="translate(-332.573 -150.904)" fill="#0c8bfd"/>
        <path id="Path_300719" data-name="Path 300719" d="M355.016,158.333c-.514.851,1.35,1.245,2.453.373a1.769,1.769,0,0,0-.082-2.69C356.631,155.641,355.016,158.333,355.016,158.333Z" transform="translate(-332.573 -150.904)" opacity="0.4"/>
        <path id="Path_300720" data-name="Path 300720" d="M377.676,393.151l-2,.149-.733-4.611,2-.149Z" transform="translate(-347.438 -323.655)" fill="#e58a7b"/>
        <path id="Path_300721" data-name="Path 300721" d="M427.027,371.033l-1.7,1.07-3.027-3.59,1.7-1.072Z" transform="translate(-382.618 -307.982)" fill="#e58a7b"/>
        <path id="Path_300722" data-name="Path 300722" d="M374.94,388.7l.406,2.561,1.975-.332-.375-2.376Z" transform="translate(-347.438 -323.663)" fill="#cf6f64"/>
        <path id="Path_300723" data-name="Path 300723" d="M424,367.45l-1.7,1.07,1.255,1.486,1.738-1.026Z" transform="translate(-382.618 -307.989)" fill="#cf6f64"/>
        <path id="Path_300724" data-name="Path 300724" d="M349,228.9s-.028,15.9,1.27,21.885c1.353,6.229,5.331,20.4,5.331,20.4l2.885-.373s-2.255-14.314-3.217-20.5c-1.047-6.746-.4-22.549-.4-22.549Z" transform="translate(-328.169 -204.223)" fill="#0c8bfd"/>
        <path id="Path_300725" data-name="Path 300725" d="M349,228.9s-.028,15.9,1.27,21.885c1.353,6.229,5.331,20.4,5.331,20.4l2.885-.373s-2.255-14.314-3.217-20.5c-1.047-6.746-.4-22.549-.4-22.549Z" transform="translate(-328.169 -204.223)" opacity="0.7"/>
        <path id="Path_300726" data-name="Path 300726" d="M367.024,251.089l-1.414-1.409c.054,6.108.4,9.124,1.571,12.411C367,258.617,366.981,254.507,367.024,251.089Z" transform="translate(-340.507 -220.506)" opacity="0.5"/>
        <path id="Path_300727" data-name="Path 300727" d="M356.74,227.28s4.313,13.139,6.452,20.708c2.258,7.985,10.914,16.816,10.914,16.816l2.484-1.435s-5.915-8.384-8.091-15.834c-4.423-15.124-2.605-18.329-5.869-21.4Z" transform="translate(-333.918 -203.013)" fill="#0c8bfd"/>
        <path id="Path_300728" data-name="Path 300728" d="M356.74,227.28s4.313,13.139,6.452,20.708c2.258,7.985,10.914,16.816,10.914,16.816l2.484-1.435s-5.915-8.384-8.091-15.834c-4.423-15.124-2.605-18.329-5.869-21.4Z" transform="translate(-333.918 -203.013)" opacity="0.7"/>
        <path id="Path_300729" data-name="Path 300729" d="M337.11,147.09c1.147.383,2.189,3.23,2.232,4.351s-3.323,2.667-3.323,2.667-1.484-3.6-1.07-5.915C335.129,147.188,337.11,147.09,337.11,147.09Z" transform="translate(-317.678 -144.3)" fill="#263238"/>
        <path id="Path_300730" data-name="Path 300730" d="M277.135,193.151l-1.36-1.481-.445,1.857s.967.854,1.749.561Z" transform="translate(-273.445 -177.415)" fill="#e58a7b"/>
        <path id="Path_300731" data-name="Path 300731" d="M268.952,190.02l-.952.756,1.885,1.525.445-1.857Z" transform="translate(-268 -176.189)" fill="#e58a7b"/>
        <path id="Path_300732" data-name="Path 300732" d="M429.233,379.316l1.589-1.6a.162.162,0,0,1,.211-.015l1.448,1.075a.321.321,0,0,1,.028.481c-.566.548-.864.784-1.564,1.489-.429.435-1.013,1.111-1.607,1.71s-1.219.041-1.029-.257a3.959,3.959,0,0,0,.772-2.551A.514.514,0,0,1,429.233,379.316Z" transform="translate(-387.056 -315.578)" fill="#263238"/>
        <path id="Path_300733" data-name="Path 300733" d="M368.1,405.93h2.258a.17.17,0,0,1,.167.139l.355,1.785a.3.3,0,0,1-.3.357c-.79-.013-1.17-.059-2.163-.059-.609,0-1.87.062-2.713.062s-.934-.833-.586-.908a5.153,5.153,0,0,0,2.654-1.252A.514.514,0,0,1,368.1,405.93Z" transform="translate(-340.002 -336.573)" fill="#263238"/>
        <path id="Path_300734" data-name="Path 300734" d="M373.524,194.31l-1.234.736,1.425,5.357A37.381,37.381,0,0,1,373.524,194.31Z" transform="translate(-345.469 -179.376)" fill="#0c8bfd" opacity="0.27"/>
        <path id="Path_300735" data-name="Path 300735" d="M349.81,151.834c.877.733,2.15,1.8,3.649.553,1.286-1.075,2.186-3.9-.121-4C352.132,148.334,349.81,151.834,349.81,151.834Z" transform="translate(-328.771 -145.263)" fill="#263238"/>
        <path id="Path_300736" data-name="Path 300736" d="M350.269,163.74c0,1.214.188,3.4,1.157,4.025,0,0-.087,1.25-2.263,1.672-2.389.465-1.373-.964-1.373-.964,1.245-.566,1.029-1.528.617-2.392Z" transform="translate(-327.111 -156.668)" fill="#e58a7b"/>
        <path id="Path_300737" data-name="Path 300737" d="M351.921,167.45l-1.1,1.386a3.908,3.908,0,0,1,.237.622,1.64,1.64,0,0,0,1.013-1.381A1.756,1.756,0,0,0,351.921,167.45Z" transform="translate(-329.521 -159.424)" fill="#cf6f64"/>
        <path id="Path_300738" data-name="Path 300738" d="M342.6,145.98c.257,1.978.414,2.808-.378,4a2.546,2.546,0,0,1-4.521-.175c-.772-1.674-1.06-4.629.7-5.774a2.718,2.718,0,0,1,4.2,1.944Z" transform="translate(-319.326 -141.695)" fill="#e58a7b"/>
        <path id="Path_300739" data-name="Path 300739" d="M344.061,137.06c-1.337.949,1.345,1.229,1.348,2.605,0,.568.934,2.371,2.261,2.268l1.286-2.284C350.308,137.464,347.111,134.892,344.061,137.06Z" transform="translate(-324.223 -136.24)" fill="#263238"/>
        <path id="Path_300740" data-name="Path 300740" d="M336.037,139.413a2.85,2.85,0,0,0-3.109,3.431,15.328,15.328,0,0,1,5.025-.4C341.178,142.775,336.037,139.413,336.037,139.413Z" transform="translate(-316.199 -138.593)" fill="#263238"/>
        <path id="Path_300741" data-name="Path 300741" d="M357.146,157.676a1.453,1.453,0,0,1-.337,1.06c-.332.388-.772.159-.926-.3-.131-.417-.116-1.119.332-1.34a.656.656,0,0,1,.931.581Z" transform="translate(-333.228 -151.687)" fill="#e58a7b"/>
        <path id="Path_300742" data-name="Path 300742" d="M346.282,156.513c.031.159-.028.3-.131.324s-.213-.093-.244-.257.028-.306.131-.327S346.251,156.354,346.282,156.513Z" transform="translate(-325.865 -151.105)" fill="#263238"/>
        <path id="Path_300743" data-name="Path 300743" d="M339.292,157.889c.031.159-.028.306-.131.327s-.213-.093-.244-.257.028-.306.131-.324S339.261,157.727,339.292,157.889Z" transform="translate(-320.673 -152.131)" fill="#263238"/>
        <path id="Path_300744" data-name="Path 300744" d="M338.474,157.553l-.4-.033S338.325,157.78,338.474,157.553Z" transform="translate(-320.05 -152.047)" fill="#263238"/>
        <path id="Path_300745" data-name="Path 300745" d="M341.39,159.34a4.4,4.4,0,0,1-.37,1.124.7.7,0,0,0,.589,0Z" transform="translate(-322.241 -153.399)" fill="#df5753"/>
        <path id="Path_300746" data-name="Path 300746" d="M345.784,163.352a.047.047,0,0,1-.008-.093,1.286,1.286,0,0,0,.931-.694.047.047,0,0,1,.087.036,1.355,1.355,0,0,1-1,.751Z" transform="translate(-325.745 -155.773)" fill="#263238"/>
        <path id="Path_300747" data-name="Path 300747" d="M346.551,153.362a.1.1,0,0,1-.064-.023.756.756,0,0,0-.658-.2.1.1,0,1,1-.049-.2.954.954,0,0,1,.836.239.1.1,0,0,1,0,.134A.093.093,0,0,1,346.551,153.362Z" transform="translate(-325.72 -148.638)" fill="#263238"/>
        <path id="Path_300748" data-name="Path 300748" d="M336.255,153.974a.082.082,0,0,1-.036,0,.1.1,0,0,1-.051-.126.944.944,0,0,1,.651-.574.1.1,0,1,1,.036.188.772.772,0,0,0-.514.46A.1.1,0,0,1,336.255,153.974Z" transform="translate(-318.631 -148.892)" fill="#263238"/>
        <path id="Path_300749" data-name="Path 300749" d="M428.931,385.695a.273.273,0,0,1-.221-.123.162.162,0,0,1-.028-.159c.09-.242.8-.4.88-.414a.049.049,0,0,1,.049.021.044.044,0,0,1,0,.051c-.139.229-.411.612-.666.625Zm.538-.579c-.28.072-.651.2-.7.329a.064.064,0,0,0,.015.069.175.175,0,0,0,.154.085C429.078,385.592,429.271,385.414,429.469,385.116Z" transform="translate(-387.352 -321.024)" fill="#0c8bfd"/>
        <path id="Path_300750" data-name="Path 300750" d="M429.292,383.989a.939.939,0,0,1-.674-.2.167.167,0,0,1,.018-.208.257.257,0,0,1,.188-.1h.021c.288,0,.684.388.7.4a.046.046,0,0,1,.013.046.049.049,0,0,1-.033.033A.929.929,0,0,1,429.292,383.989Zm-.447-.414h-.015a.154.154,0,0,0-.118.062c-.036.049-.026.077-.013.1.077.118.471.185.712.157a1.137,1.137,0,0,0-.566-.314Z" transform="translate(-387.291 -319.897)" fill="#0c8bfd"/>
        <path id="Path_300751" data-name="Path 300751" d="M372.7,405.829a.772.772,0,0,1-.491-.123.257.257,0,0,1-.1-.229.149.149,0,0,1,.072-.129c.237-.139,1.065.273,1.157.319a.049.049,0,0,1-.01.09,3.428,3.428,0,0,1-.63.072Zm-.381-.417a.17.17,0,0,0-.087.018.049.049,0,0,0-.026.049.18.18,0,0,0,.064.154,1.3,1.3,0,0,0,.9.057A2.69,2.69,0,0,0,372.314,405.412Z" transform="translate(-345.332 -336.119)" fill="#0c8bfd"/>
        <path id="Path_300752" data-name="Path 300752" d="M374.68,404.393h-.018c-.257-.111-.754-.548-.717-.771,0-.051.046-.118.175-.131h.039c.447,0,.563.818.568.854a.051.051,0,0,1-.018.046.051.051,0,0,1-.028,0Zm-.514-.813h-.028c-.082,0-.087.039-.087.049-.021.136.319.478.576.63-.051-.2-.183-.674-.471-.674Z" transform="translate(-346.697 -334.761)" fill="#0c8bfd"/>
        <path id="Path_300753" data-name="Path 300753" d="M345.464,156.186l-.4-.036S345.315,156.412,345.464,156.186Z" transform="translate(-325.242 -151.03)" fill="#263238"/>
        <path id="Path_300754" data-name="Path 300754" d="M344.515,182.237c-4.3.959-2.973-1.643-2.716-2.217l.108-.041c.514-.188.617-.216,1.3-.417a25.9,25.9,0,0,1,3.636-.707l.257-.036c.257-.033.491-.059.728-.08.159-.018.319-.028.471-.039l.514-.031h0C348.9,179.071,349.115,181.216,344.515,182.237Z" transform="translate(-322.526 -167.758)" fill="#e58a7b"/>
        <path id="Path_300755" data-name="Path 300755" d="M355.581,224.1l.5.648c.039.049-.015.118-.108.136l-8.4,1.636c-.072.015-.139,0-.152-.054l-.213-.7a.132.132,0,0,1,.118-.118l8.111-1.579a.147.147,0,0,1,.141.033Z" transform="translate(-326.839 -201.473)" fill="#26395a"/>
        <path id="Path_300756" data-name="Path 300756" d="M375.122,225.523l.219-.041c.044,0,.072-.036.064-.064l-.283-.91c0-.028-.051-.041-.1-.033l-.216.041c-.044,0-.072.039-.064.064l.283.913C375.037,225.518,375.081,225.533,375.122,225.523Z" transform="translate(-347.293 -201.781)" fill="#0c8bfd"/>
        <path id="Path_300757" data-name="Path 300757" d="M352.244,238.562l-1.674-.622.257,1.592s1.214.437,1.834-.123Z" transform="translate(-329.335 -211.786)" fill="#e58a7b"/>
        <path id="Path_300758" data-name="Path 300758" d="M343.219,238.362l-.4,1.044,2.25.126-.257-1.592Z" transform="translate(-323.578 -211.786)" fill="#e58a7b"/>
        <path id="Path_300759" data-name="Path 300759" d="M349.969,230.423l.219-.041c.041,0,.072-.036.062-.064l-.283-.91c0-.028-.049-.041-.093-.033l-.219.041c-.044,0-.072.039-.062.064l.283.913C349.884,230.418,349.926,230.433,349.969,230.423Z" transform="translate(-328.609 -205.421)" fill="#0c8bfd"/>
        <path id="Path_300760" data-name="Path 300760" d="M362.544,227.963l.216-.041c.044,0,.072-.036.064-.064l-.283-.91c0-.028-.051-.041-.1-.033l-.216.041c-.044,0-.072.039-.064.064l.283.913A.082.082,0,0,0,362.544,227.963Z" transform="translate(-337.948 -203.593)" fill="#0c8bfd"/>
        <path id="Path_300761" data-name="Path 300761" d="M353.474,175.4c.183-.069.411.574.355.656-.131.188-2.533.844-2.641.476a1.6,1.6,0,0,1,.09-.586A8.675,8.675,0,0,0,353.474,175.4Z" transform="translate(-329.793 -165.329)" fill="#0c8bfd"/>
        <path id="Path_300762" data-name="Path 300762" d="M358.438,174.272c.093-.213.357-.555.589-.36s.329.617.177.687S358.278,174.629,358.438,174.272Z" transform="translate(-335.164 -164.18)" fill="#0c8bfd"/>
        <path id="Path_300763" data-name="Path 300763" d="M360.237,175.161c.159-.17.514-.4.676-.141s.1.692-.062.7S359.967,175.442,360.237,175.161Z" transform="translate(-336.471 -164.959)" fill="#0c8bfd"/>
        <path id="Path_300764" data-name="Path 300764" d="M360.741,172.291a.712.712,0,0,1,.357-.687c.293-.19.579-.314.692-.514a1.42,1.42,0,0,1,.028.576c-.059.275-.972.486-.91.725Z" transform="translate(-336.888 -162.127)" fill="#0c8bfd"/>
        <path id="Path_300765" data-name="Path 300765" d="M360.158,171.164a.712.712,0,0,1-.072-.772,2.285,2.285,0,0,0,.3-.8,1.432,1.432,0,0,1,.337.468c.1.257-.553.934-.37,1.1Z" transform="translate(-336.343 -161.013)" fill="#0c8bfd"/>
        <path id="Path_300766" data-name="Path 300766" d="M392.707,266.788a.031.031,0,0,1-.026-.015c-.059-.082-5.938-8.471-8.093-15.842a108.01,108.01,0,0,1-3.235-14.422c-.445-2.747-.715-4.405-1.6-5.766a.032.032,0,0,1,.044-.046c.895,1.373,1.165,3.037,1.61,5.792a108.306,108.306,0,0,0,3.24,14.4c2.153,7.36,8.026,15.739,8.086,15.824a.036.036,0,0,1,0,.044A.033.033,0,0,1,392.707,266.788Z" transform="translate(-351.006 -206.399)" fill="#0c8bfd"/>
        <path id="Path_300767" data-name="Path 300767" d="M392.707,266.788a.031.031,0,0,1-.026-.015c-.059-.082-5.938-8.471-8.093-15.842a108.01,108.01,0,0,1-3.235-14.422c-.445-2.747-.715-4.405-1.6-5.766a.032.032,0,0,1,.044-.046c.895,1.373,1.165,3.037,1.61,5.792a108.306,108.306,0,0,0,3.24,14.4c2.153,7.36,8.026,15.739,8.086,15.824a.036.036,0,0,1,0,.044A.033.033,0,0,1,392.707,266.788Z" transform="translate(-351.006 -206.399)" opacity="0.4"/>
        <path id="Path_300768" data-name="Path 300768" d="M375.807,390.933l-3.93.509-.257-1.1,4.092-.867Z" transform="translate(-344.972 -324.354)" fill="#0c8bfd"/>
        <path id="Path_300769" data-name="Path 300769" d="M423.546,366.816l-2.9,1.674-.977-.836,3.171-2.145Z" transform="translate(-380.665 -306.548)" fill="#0c8bfd"/>
        <path id="Path_300770" data-name="Path 300770" d="M362.18,189.13c.139.715.219,1.389.3,2.086s.105,1.386.126,2.083a20.594,20.594,0,0,1-.046,2.106c-.028.352-.059.7-.108,1.06-.021.175-.044.352-.077.53l-.1.545a3.425,3.425,0,0,1-.568,1.232,7.629,7.629,0,0,1-.73.877,14.574,14.574,0,0,1-1.594,1.414,26.655,26.655,0,0,1-3.462,2.261l-.55-.854c.514-.409,1.029-.831,1.543-1.26s1-.864,1.474-1.317a16.115,16.115,0,0,0,1.314-1.386,6.114,6.114,0,0,0,.514-.715,1.8,1.8,0,0,0,.257-.6,17.026,17.026,0,0,0,.147-1.882q0-.482,0-.964c0-.321-.013-.648-.028-.972-.031-.648-.09-1.286-.159-1.944s-.159-1.309-.257-1.919Z" transform="translate(-332.901 -175.528)" fill="#e58a7b"/>
        <path id="Path_300771" data-name="Path 300771" d="M372.357,179.07c1.1.89.836,3.534.836,3.534l-3.7,1.219s.17-3.047.355-4.143C370.061,178.376,371.275,178.193,372.357,179.07Z" transform="translate(-343.39 -167.654)" fill="#0c8bfd"/>
        <path id="Path_300772" data-name="Path 300772" d="M372.357,179.07c1.1.89.836,3.534.836,3.534l-3.7,1.219s.17-3.047.355-4.143C370.061,178.376,371.275,178.193,372.357,179.07Z" transform="translate(-343.39 -167.654)" opacity="0.2"/>
      </g>
      <g id="freepik--Documents--inject-2" transform="translate(18.384 68.396)">
        <path id="Path_300773" data-name="Path 300773" d="M114.85,217.194h0A2.829,2.829,0,0,0,112.093,215H91.519a2.829,2.829,0,0,0-2.829,2.829v45.73a2.829,2.829,0,0,0,2.829,2.829h65.322a2.829,2.829,0,0,0,2.829-2.829V225.145a2.829,2.829,0,0,0-2.829-2.829H121.287a6.6,6.6,0,0,1-6.437-5.124Z" transform="translate(-84.265 -187.249)" fill="#0c8bfd"/>
        <path id="Path_300774" data-name="Path 300774" d="M114.85,217.194h0A2.829,2.829,0,0,0,112.093,215H91.519a2.829,2.829,0,0,0-2.829,2.829v45.73a2.829,2.829,0,0,0,2.829,2.829h65.322a2.829,2.829,0,0,0,2.829-2.829V225.145a2.829,2.829,0,0,0-2.829-2.829H121.287a6.6,6.6,0,0,1-6.437-5.124Z" transform="translate(-84.265 -187.249)" opacity="0.6"/>
        <path id="Path_300775" data-name="Path 300775" d="M162.17,168.15,164,174.088a2.986,2.986,0,0,0,3.732,1.97l5.936-1.834Z" transform="translate(-138.848 -152.447)" fill="#0c8bfd" opacity="0.22"/>
        <path id="Path_300776" data-name="Path 300776" d="M94.806,168.15l-21.217,6.555a2.981,2.981,0,0,0-1.973,3.729l12.113,39.214a2.983,2.983,0,0,0,3.732,1.97l27.155-8.389a2.981,2.981,0,0,0,1.97-3.729L106.3,174.224Z" transform="translate(-71.484 -152.447)" fill="#0c8bfd"/>
        <path id="Path_300777" data-name="Path 300777" d="M94.806,168.15l-21.217,6.555a2.981,2.981,0,0,0-1.973,3.729l12.113,39.214a2.983,2.983,0,0,0,3.732,1.97l27.155-8.389a2.981,2.981,0,0,0,1.97-3.729L106.3,174.224Z" transform="translate(-71.484 -152.447)" fill="#fff" opacity="0.8"/>
        <g id="Group_76128" data-name="Group 76128" transform="translate(15.398 54.522)" opacity="0.28">
          <path id="Path_300778" data-name="Path 300778" d="M150.7,321.643l-17.652,5.452a1.306,1.306,0,0,1-1.63-.859h0a1.306,1.306,0,0,1,.862-1.628l17.652-5.455a1.306,1.306,0,0,1,1.63.862h0A1.306,1.306,0,0,1,150.7,321.643Z" transform="translate(-131.358 -319.096)" fill="#0c8bfd"/>
        </g>
        <g id="Group_76129" data-name="Group 76129" transform="translate(4.718 22.523)" opacity="0.28">
          <path id="Path_300779" data-name="Path 300779" d="M100.851,197.22,91.516,200.1a1.309,1.309,0,0,1-1.63-.859h0a1.309,1.309,0,0,1,.862-1.63l9.335-2.883a1.3,1.3,0,0,1,1.63.859h0A1.309,1.309,0,0,1,100.851,197.22Z" transform="translate(-89.828 -194.672)" fill="#0c8bfd"/>
        </g>
        <g id="Group_76130" data-name="Group 76130" transform="translate(6.247 25.582)" opacity="0.28">
          <path id="Path_300780" data-name="Path 300780" d="M112.886,209.112l-15.43,4.765a1.306,1.306,0,0,1-1.623-.862h0a1.3,1.3,0,0,1,.859-1.628l15.43-4.765a1.306,1.306,0,0,1,1.63.859h0a1.312,1.312,0,0,1-.867,1.63Z" transform="translate(-95.775 -206.565)" fill="#0c8bfd"/>
        </g>
        <g id="Group_76131" data-name="Group 76131" transform="translate(7.77 28.332)" opacity="0.28">
          <path id="Path_300781" data-name="Path 300781" d="M125.9,219.8l-22.518,6.944a1.3,1.3,0,0,1-1.628-.859h0a1.309,1.309,0,0,1,.859-1.63l22.518-6.944a1.306,1.306,0,0,1,1.628.859h0A1.306,1.306,0,0,1,125.9,219.8Z" transform="translate(-101.697 -217.258)" fill="#0c8bfd"/>
        </g>
        <g id="Group_76132" data-name="Group 76132" transform="translate(18.723 33.27)" opacity="0.28">
          <path id="Path_300782" data-name="Path 300782" d="M159.063,239.006l-13.09,4.045a1.306,1.306,0,0,1-1.628-.862h0a1.306,1.306,0,0,1,.859-1.628l13.09-4.045a1.312,1.312,0,0,1,1.63.862h0A1.306,1.306,0,0,1,159.063,239.006Z" transform="translate(-144.288 -236.461)" fill="#0c8bfd"/>
        </g>
        <g id="Group_76133" data-name="Group 76133" transform="translate(9.295 39.169)" opacity="0.28">
          <path id="Path_300783" data-name="Path 300783" d="M112.737,261.944,109.314,263a1.306,1.306,0,0,1-1.63-.859h0a1.306,1.306,0,0,1,.862-1.63l3.423-1.057a1.309,1.309,0,0,1,1.63.859h0A1.312,1.312,0,0,1,112.737,261.944Z" transform="translate(-107.626 -259.397)" fill="#0c8bfd"/>
        </g>
        <g id="Group_76134" data-name="Group 76134" transform="translate(10.822 38.21)" opacity="0.28">
          <path id="Path_300784" data-name="Path 300784" d="M137.769,258.214l-22.518,6.957a1.306,1.306,0,0,1-1.628-.862h0a1.3,1.3,0,0,1,.859-1.628L137,255.725a1.306,1.306,0,0,1,1.628.859h0A1.306,1.306,0,0,1,137.769,258.214Z" transform="translate(-113.565 -255.668)" fill="#0c8bfd"/>
        </g>
        <g id="Group_76135" data-name="Group 76135" transform="translate(12.348 45.833)" opacity="0.28">
          <path id="Path_300785" data-name="Path 300785" d="M135.011,287.855l-13.828,4.272a1.306,1.306,0,0,1-1.628-.859h0a1.309,1.309,0,0,1,.859-1.63l13.828-4.272a1.309,1.309,0,0,1,1.63.862h0A1.3,1.3,0,0,1,135.011,287.855Z" transform="translate(-119.497 -285.308)" fill="#0c8bfd"/>
        </g>
        <g id="Group_76136" data-name="Group 76136" transform="translate(31.173 43.149)" opacity="0.28">
          <path id="Path_300786" data-name="Path 300786" d="M198.076,277.422l-3.69,1.139a1.309,1.309,0,0,1-1.63-.862h0a1.306,1.306,0,0,1,.862-1.628l3.69-1.139a1.3,1.3,0,0,1,1.628.859h0A1.306,1.306,0,0,1,198.076,277.422Z" transform="translate(-192.698 -274.875)" fill="#0c8bfd"/>
        </g>
        <g id="Group_76137" data-name="Group 76137" transform="translate(13.875 48.081)" opacity="0.28">
          <path id="Path_300787" data-name="Path 300787" d="M149.637,296.609l-22.513,6.944a1.306,1.306,0,0,1-1.63-.862h0a1.3,1.3,0,0,1,.862-1.628l22.515-6.957a1.312,1.312,0,0,1,1.63.862h0a1.306,1.306,0,0,1-.864,1.641Z" transform="translate(-125.436 -294.051)" fill="#0c8bfd"/>
        </g>
        <path id="Path_300788" data-name="Path 300788" d="M129.973,108.048l6.733,15a1.623,1.623,0,0,1-.813,2.14l-28.562,12.82a1.62,1.62,0,0,1-2.14-.813l-6.735-15a1.62,1.62,0,0,1,.813-2.142l28.562-12.82A1.625,1.625,0,0,1,129.973,108.048Z" transform="translate(-91.414 -107.092)" fill="#0c8bfd"/>
        <path id="Path_300789" data-name="Path 300789" d="M129.973,108.048l6.733,15a1.623,1.623,0,0,1-.813,2.14l-28.562,12.82a1.62,1.62,0,0,1-2.14-.813l-6.735-15a1.62,1.62,0,0,1,.813-2.142l28.562-12.82A1.625,1.625,0,0,1,129.973,108.048Z" transform="translate(-91.414 -107.092)" opacity="0.3"/>
        <rect id="Rectangle_23250" data-name="Rectangle 23250" width="1" height="0.257" transform="matrix(0.912, -0.409, 0.409, 0.912, 33.146, 0.624)" fill="#0c8bfd"/>
        <rect id="Rectangle_23251" data-name="Rectangle 23251" width="3.12" height="0.257" transform="matrix(0.912, -0.409, 0.409, 0.912, 29.021, 2.473)" fill="#0c8bfd"/>
        <rect id="Rectangle_23252" data-name="Rectangle 23252" width="0.257" height="1.903" transform="translate(6.783 16.721) rotate(-24.18)" fill="#0c8bfd"/>
        <path id="Path_300790" data-name="Path 300790" d="M129.385,107.178l-7.365,14.427a6.6,6.6,0,0,1-7.535,3.382L98.81,120.9a1.643,1.643,0,0,1,.828-.849l28.562-12.82A1.62,1.62,0,0,1,129.385,107.178Z" transform="translate(-91.782 -107.091)" fill="#0c8bfd" opacity="0.6"/>
        <path id="Path_300791" data-name="Path 300791" d="M184.948,179.23,162.784,180.6a2.983,2.983,0,0,0-2.8,3.161l2.528,40.962a2.983,2.983,0,0,0,3.166,2.8l28.366-1.751a2.978,2.978,0,0,0,2.793-3.161L194.7,187.845Z" transform="translate(-137.22 -160.678)" fill="#0c8bfd"/>
        <path id="Path_300792" data-name="Path 300792" d="M184.948,179.23,162.784,180.6a2.983,2.983,0,0,0-2.8,3.161l2.528,40.962a2.983,2.983,0,0,0,3.166,2.8l28.366-1.751a2.978,2.978,0,0,0,2.793-3.161L194.7,187.845Z" transform="translate(-137.22 -160.678)" fill="#fff" opacity="0.8"/>
        <g id="Group_76138" data-name="Group 76138" transform="translate(29.245 58.838)" opacity="0.22">
          <path id="Path_300793" data-name="Path 300793" d="M205.024,338.483l-18.442,1.139A1.306,1.306,0,0,1,185.2,338.4h0a1.309,1.309,0,0,1,1.219-1.381l18.442-1.137a1.306,1.306,0,0,1,1.381,1.219h0A1.306,1.306,0,0,1,205.024,338.483Z" transform="translate(-185.202 -335.881)" fill="#0c8bfd"/>
        </g>
        <g id="Group_76139" data-name="Group 76139" transform="translate(27.015 23.261)" opacity="0.22">
          <path id="Path_300794" data-name="Path 300794" d="M187.669,200.148l-9.755.6a1.309,1.309,0,0,1-1.381-1.219h0a1.309,1.309,0,0,1,1.222-1.381l9.755-.6a1.3,1.3,0,0,1,1.378,1.219h0A1.306,1.306,0,0,1,187.669,200.148Z" transform="translate(-176.532 -197.541)" fill="#0c8bfd"/>
        </g>
        <g id="Group_76140" data-name="Group 76140" transform="translate(27.334 28.034)" opacity="0.22">
          <path id="Path_300795" data-name="Path 300795" d="M195.271,218.7l-16.117.993a1.3,1.3,0,0,1-1.381-1.219h0a1.306,1.306,0,0,1,1.222-1.381l16.114-.993a1.3,1.3,0,0,1,1.381,1.219h0A1.306,1.306,0,0,1,195.271,218.7Z" transform="translate(-177.771 -216.1)" fill="#0c8bfd"/>
        </g>
        <g id="Group_76141" data-name="Group 76141" transform="translate(27.648 32.736)" opacity="0.22">
          <path id="Path_300796" data-name="Path 300796" d="M203.9,236.986l-23.521,1.45a1.309,1.309,0,0,1-1.386-1.222h0a1.3,1.3,0,0,1,1.219-1.378l23.524-1.453a1.306,1.306,0,0,1,1.378,1.222h0A1.306,1.306,0,0,1,203.9,236.986Z" transform="translate(-178.991 -234.382)" fill="#0c8bfd"/>
        </g>
        <g id="Group_76142" data-name="Group 76142" transform="translate(37.819 37.897)" opacity="0.22">
          <path id="Path_300797" data-name="Path 300797" d="M233.6,257.053l-13.674.844a1.306,1.306,0,0,1-1.381-1.219h0a1.3,1.3,0,0,1,1.219-1.381l13.674-.844a1.3,1.3,0,0,1,1.381,1.219h0A1.306,1.306,0,0,1,233.6,257.053Z" transform="translate(-218.54 -254.45)" fill="#0c8bfd"/>
        </g>
        <g id="Group_76143" data-name="Group 76143" transform="translate(27.972 39.126)" opacity="0.22">
          <path id="Path_300798" data-name="Path 300798" d="M185.209,261.834l-3.577.221a1.3,1.3,0,0,1-1.378-1.219h0a1.306,1.306,0,0,1,1.219-1.381l3.577-.221a1.309,1.309,0,0,1,1.381,1.222h0A1.306,1.306,0,0,1,185.209,261.834Z" transform="translate(-180.251 -259.232)" fill="#0c8bfd"/>
        </g>
        <g id="Group_76144" data-name="Group 76144" transform="translate(28.288 43.056)" opacity="0.22">
          <path id="Path_300799" data-name="Path 300799" d="M206.388,277.113l-23.524,1.45a1.306,1.306,0,0,1-1.381-1.219h0a1.309,1.309,0,0,1,1.222-1.381l23.521-1.45a1.306,1.306,0,0,1,1.381,1.222h0A1.3,1.3,0,0,1,206.388,277.113Z" transform="translate(-181.482 -274.511)" fill="#0c8bfd"/>
        </g>
        <g id="Group_76145" data-name="Group 76145" transform="translate(28.607 48.775)" opacity="0.22">
          <path id="Path_300800" data-name="Path 300800" d="M198.55,299.354l-14.445.892a1.309,1.309,0,0,1-1.381-1.222h0a1.306,1.306,0,0,1,1.222-1.378l14.445-.892a1.306,1.306,0,0,1,1.378,1.222h0A1.3,1.3,0,0,1,198.55,299.354Z" transform="translate(-182.722 -296.752)" fill="#0c8bfd"/>
        </g>
        <g id="Group_76146" data-name="Group 76146" transform="translate(48.273 48.217)" opacity="0.22">
          <path id="Path_300801" data-name="Path 300801" d="M264.429,297.183l-3.858.237a1.3,1.3,0,0,1-1.378-1.219h0a1.3,1.3,0,0,1,1.219-1.381l3.858-.237a1.3,1.3,0,0,1,1.381,1.219h0A1.309,1.309,0,0,1,264.429,297.183Z" transform="translate(-259.19 -294.58)" fill="#0c8bfd"/>
        </g>
        <g id="Group_76147" data-name="Group 76147" transform="translate(28.926 53.376)" opacity="0.22">
          <path id="Path_300802" data-name="Path 300802" d="M208.865,317.243l-23.521,1.45a1.306,1.306,0,0,1-1.381-1.219h0a1.306,1.306,0,0,1,1.219-1.381l23.524-1.45a1.3,1.3,0,0,1,1.378,1.219h0A1.3,1.3,0,0,1,208.865,317.243Z" transform="translate(-183.961 -314.641)" fill="#0c8bfd"/>
        </g>
        <path id="Path_300803" data-name="Path 300803" d="M257.07,179.23l.383,6.2a2.983,2.983,0,0,0,3.161,2.8l6.211-.383Z" transform="translate(-209.342 -160.678)" fill="#0c8bfd" opacity="0.22"/>
        <path id="Path_300804" data-name="Path 300804" d="M129.268,233.058h0a2.225,2.225,0,0,0-2.315-2.194h-20.6a3.6,3.6,0,0,0-3.379,2.829l-8.129,41.649a2.263,2.263,0,0,0,2.276,2.829h65.322a3.605,3.605,0,0,0,3.379-2.829l6.7-34.333a2.262,2.262,0,0,0-2.276-2.829H134.707A5.2,5.2,0,0,1,129.268,233.058Z" transform="translate(-88.798 -199.032)" fill="#0c8bfd" opacity="0.5"/>
      </g>
    </g>
  </g>
</svg>
