<svg xmlns="http://www.w3.org/2000/svg" width="21.35" height="28.467" viewBox="0 0 21.35 28.467">
  <g id="passport" transform="translate(13 2)">
    <g id="Group_76369" data-name="Group 76369" transform="translate(-13 -2)">
      <g id="Group_76368" data-name="Group 76368" transform="translate(0 0)">
        <path id="Path_301024" data-name="Path 301024" d="M148.665,384.567l-11.863,0a.593.593,0,1,0,0,1.186l11.863,0a.593.593,0,1,0,0-1.186Z" transform="translate(-132.194 -363.184)" fill="#0091ff"/>
        <path id="Path_301025" data-name="Path 301025" d="M186.586,427.263h-7.117a.593.593,0,1,0,0,1.186h7.117a.593.593,0,1,0,0-1.186Z" transform="translate(-172.489 -403.508)" fill="#0091ff"/>
        <path id="Path_301026" data-name="Path 301026" d="M145.192,128a6.524,6.524,0,1,0,6.524,6.524A6.531,6.531,0,0,0,145.192,128Zm-5.277,7.117h2.324a11.026,11.026,0,0,0,.978,4.356A5.326,5.326,0,0,1,139.914,135.119Zm2.324-1.186h-2.324a5.326,5.326,0,0,1,3.3-4.356A11.026,11.026,0,0,0,142.238,133.933Zm2.953,5.931c-.679,0-1.635-1.837-1.755-4.744h3.511C146.827,138.026,145.871,139.863,145.192,139.863Zm-1.755-5.931c.12-2.907,1.076-4.744,1.755-4.744s1.635,1.837,1.755,4.744Zm3.73,5.542a11.026,11.026,0,0,0,.978-4.356h2.324A5.326,5.326,0,0,1,147.166,139.474Zm.978-5.542a11.026,11.026,0,0,0-.978-4.356,5.326,5.326,0,0,1,3.3,4.356Z" transform="translate(-134.517 -120.885)" fill="#0091ff"/>
        <path id="Path_301027" data-name="Path 301027" d="M82.979,3.558H81.792V2.333A2.361,2.361,0,0,0,79.42,0a2.156,2.156,0,0,0-.53.075l-12.644,3.5A2.369,2.369,0,0,0,64,5.93V26.094a2.375,2.375,0,0,0,2.372,2.372H82.979a2.375,2.375,0,0,0,2.372-2.372V5.93A2.375,2.375,0,0,0,82.979,3.558ZM79.195,1.221a1.158,1.158,0,0,1,1.411,1.112V3.558H70.743Zm4.97,24.873a1.188,1.188,0,0,1-1.186,1.186H66.373a1.188,1.188,0,0,1-1.186-1.186V5.93a1.188,1.188,0,0,1,1.186-1.186H82.979A1.188,1.188,0,0,1,84.165,5.93Z" transform="translate(-64.001 0)" fill="#0091ff"/>
      </g>
    </g>
  </g>
</svg>
