<svg xmlns="http://www.w3.org/2000/svg" width="134.961" height="100.562" viewBox="0 0 134.961 100.562">
  <g id="Group_76521" data-name="Group 76521" transform="translate(-1046 -1848.889)">
    <g id="Download-rafiki_1_" data-name="Download-rafiki (1)" transform="translate(1046 1793.889)">
      <g id="freepik--background-complete--inject-2" transform="translate(0 55)">
        <rect id="Rectangle_23253" data-name="Rectangle 23253" width="134.961" height="0.067" transform="translate(0 88.373)" fill="#ebebeb"/>
        <rect id="Rectangle_23254" data-name="Rectangle 23254" width="8.94" height="0.067" transform="translate(112.498 92.716)" fill="#ebebeb"/>
        <rect id="Rectangle_23255" data-name="Rectangle 23255" width="2.346" height="0.067" transform="translate(87.058 93.45)" fill="#ebebeb"/>
        <rect id="Rectangle_23256" data-name="Rectangle 23256" width="5.18" height="0.067" transform="translate(107.049 90.211)" fill="#ebebeb"/>
        <rect id="Rectangle_23257" data-name="Rectangle 23257" width="11.658" height="0.067" transform="translate(14.16 90.664)" fill="#ebebeb"/>
        <rect id="Rectangle_23258" data-name="Rectangle 23258" width="1.709" height="0.067" transform="translate(28.223 90.664)" fill="#ebebeb"/>
        <rect id="Rectangle_23259" data-name="Rectangle 23259" width="25.286" height="0.067" transform="translate(35.487 91.803)" fill="#ebebeb"/>
        <path id="Path_300805" data-name="Path 300805" d="M91.868,131.334H39.749a1.541,1.541,0,0,1-1.539-1.541V56.528A1.541,1.541,0,0,1,39.749,55H91.868a1.541,1.541,0,0,1,1.541,1.541v73.252A1.541,1.541,0,0,1,91.868,131.334ZM39.749,55.054a1.474,1.474,0,0,0-1.471,1.474v73.265a1.474,1.474,0,0,0,1.471,1.474H91.868a1.476,1.476,0,0,0,1.474-1.474V56.528a1.476,1.476,0,0,0-1.474-1.474Z" transform="translate(-27.896 -55)" fill="#ebebeb"/>
        <path id="Path_300806" data-name="Path 300806" d="M308.163,131.334H256.041a1.544,1.544,0,0,1-1.541-1.541V56.528A1.544,1.544,0,0,1,256.041,55h52.122a1.541,1.541,0,0,1,1.536,1.528v73.265A1.541,1.541,0,0,1,308.163,131.334Zm-52.122-76.28a1.476,1.476,0,0,0-1.474,1.474v73.265a1.476,1.476,0,0,0,1.474,1.474h52.122a1.476,1.476,0,0,0,1.474-1.474V56.528a1.476,1.476,0,0,0-1.474-1.474Z" transform="translate(-185.805 -55)" fill="#ebebeb"/>
        <rect id="Rectangle_23260" data-name="Rectangle 23260" width="33.325" height="22.279" transform="translate(111.697 12.972) rotate(90)" fill="#e6e6e6"/>
        <rect id="Rectangle_23261" data-name="Rectangle 23261" width="33.325" height="22.279" transform="translate(111.019 12.97) rotate(90)" fill="#f5f5f5"/>
        <rect id="Rectangle_23262" data-name="Rectangle 23262" width="16.552" height="27.6" transform="translate(91.604 15.834)" fill="#fff"/>
        <rect id="Rectangle_23263" data-name="Rectangle 23263" width="27.6" height="0.375" transform="translate(91.981 15.834) rotate(90)" fill="#e6e6e6"/>
        <rect id="Rectangle_23264" data-name="Rectangle 23264" width="9.447" height="30.472" transform="translate(67.435 88.373) rotate(180)" fill="#e6e6e6"/>
        <path id="Path_300807" data-name="Path 300807" d="M216.615,370.7H214.82V366.38H218.5Z" transform="translate(-156.835 -282.332)" fill="#f0f0f0"/>
        <rect id="Rectangle_23265" data-name="Rectangle 23265" width="9.447" height="30.472" transform="translate(117.918 88.367) rotate(180)" fill="#e6e6e6"/>
        <rect id="Rectangle_23266" data-name="Rectangle 23266" width="52.049" height="29.837" transform="translate(110.037 87.738) rotate(180)" fill="#f0f0f0"/>
        <rect id="Rectangle_23267" data-name="Rectangle 23267" width="6.859" height="31.619" transform="translate(59.378 66.579) rotate(-90)" fill="#e6e6e6"/>
        <rect id="Rectangle_23268" data-name="Rectangle 23268" width="6.859" height="16.444" transform="translate(92.203 66.576) rotate(-90)" fill="#e6e6e6"/>
        <path id="Path_300808" data-name="Path 300808" d="M355.9,276.784h3.253a7.312,7.312,0,0,0,3.736-.934H352.17A7.312,7.312,0,0,0,355.9,276.784Z" transform="translate(-257.111 -216.238)" fill="#f0f0f0"/>
        <path id="Path_300809" data-name="Path 300809" d="M233.722,276.784H252.15a7.312,7.312,0,0,0,3.736-.934H230A7.317,7.317,0,0,0,233.722,276.784Z" transform="translate(-167.918 -216.238)" fill="#f0f0f0"/>
        <rect id="Rectangle_23269" data-name="Rectangle 23269" width="6.859" height="31.619" transform="translate(59.38 75.4) rotate(-90)" fill="#e6e6e6"/>
        <rect id="Rectangle_23270" data-name="Rectangle 23270" width="6.859" height="16.444" transform="translate(92.203 75.4) rotate(-90)" fill="#e6e6e6"/>
        <path id="Path_300810" data-name="Path 300810" d="M355.9,309.481h3.253a7.336,7.336,0,0,0,3.736-.931H352.17A7.337,7.337,0,0,0,355.9,309.481Z" transform="translate(-257.111 -240.111)" fill="#f0f0f0"/>
        <path id="Path_300811" data-name="Path 300811" d="M233.722,309.474H252.15a7.312,7.312,0,0,0,3.736-.934H230A7.318,7.318,0,0,0,233.722,309.474Z" transform="translate(-167.918 -240.104)" fill="#f0f0f0"/>
        <rect id="Rectangle_23271" data-name="Rectangle 23271" width="6.859" height="31.619" transform="translate(59.378 84.224) rotate(-90)" fill="#e6e6e6"/>
        <rect id="Rectangle_23272" data-name="Rectangle 23272" width="6.859" height="16.444" transform="translate(92.203 84.224) rotate(-90)" fill="#e6e6e6"/>
        <path id="Path_300812" data-name="Path 300812" d="M355.9,342.154h3.253a7.312,7.312,0,0,0,3.736-.934H352.17A7.318,7.318,0,0,0,355.9,342.154Z" transform="translate(-257.111 -263.963)" fill="#f0f0f0"/>
        <path id="Path_300813" data-name="Path 300813" d="M233.725,342.154H252.15a7.329,7.329,0,0,0,3.738-.934H230A7.312,7.312,0,0,0,233.725,342.154Z" transform="translate(-167.918 -263.963)" fill="#f0f0f0"/>
        <path id="Path_300814" data-name="Path 300814" d="M395.921,370.7h1.792V366.38H394.04Z" transform="translate(-287.68 -282.332)" fill="#f0f0f0"/>
        <path id="Path_300815" data-name="Path 300815" d="M360.868,249.42s-.27,3.1-10.8,3.1-10.781-3.1-10.781-3.1Z" transform="translate(-247.708 -196.942)" fill="#fafafa"/>
        <path id="Path_300816" data-name="Path 300816" d="M360.9,258s-.27,3.1-10.8,3.1S339.34,258,339.34,258Z" transform="translate(-247.745 -203.206)" fill="#ebebeb"/>
        <path id="Path_300817" data-name="Path 300817" d="M146.59,307.253h10.8l-3.2-27.783h-7.6Z" transform="translate(-107.022 -218.881)" fill="#e6e6e6"/>
        <path id="Path_300818" data-name="Path 300818" d="M79.05,294.448h24.023l2.535-32.518H81.585Z" transform="translate(-57.713 -206.075)" fill="#e0e0e0"/>
        <path id="Path_300819" data-name="Path 300819" d="M72.64,294.448h25l2.535-32.518h-25Z" transform="translate(-53.033 -206.075)" fill="#f5f5f5"/>
        <path id="Path_300820" data-name="Path 300820" d="M102.754,298.812l2.135-27.392H85.015L82.88,298.812Z" transform="translate(-60.509 -213.003)" fill="#fff"/>
        <rect id="Rectangle_23273" data-name="Rectangle 23273" width="61.216" height="44.615" transform="translate(16.797 5.585)" fill="#ebebeb"/>
        <rect id="Rectangle_23274" data-name="Rectangle 23274" width="57.027" height="39.895" transform="translate(18.892 7.944)" fill="#fafafa"/>
        <path id="Path_300821" data-name="Path 300821" d="M99.264,124.327H93.28l5.636-39.9H104.9Z" transform="translate(-68.102 -76.486)" fill="#fff"/>
        <path id="Path_300822" data-name="Path 300822" d="M154.047,124.327H148.06l5.636-39.9h5.987Z" transform="translate(-108.095 -76.486)" fill="#fff"/>
        <path id="Path_300823" data-name="Path 300823" d="M232.773,124.327H229.78l5.636-39.9h2.993Z" transform="translate(-167.757 -76.486)" fill="#fff"/>
        <path id="Path_300824" data-name="Path 300824" d="M181.643,124.327H178.65l5.636-39.9h2.993Z" transform="translate(-130.428 -76.486)" fill="#fff"/>
        <rect id="Rectangle_23275" data-name="Rectangle 23275" width="2.821" height="39.895" transform="translate(35.187 7.944)" fill="#ebebeb"/>
        <rect id="Rectangle_23276" data-name="Rectangle 23276" width="0.629" height="39.895" transform="translate(38.637 47.841) rotate(180)" fill="#e0e0e0"/>
        <rect id="Rectangle_23277" data-name="Rectangle 23277" width="0.451" height="44.615" transform="translate(78.464 50.2) rotate(180)" fill="#e0e0e0"/>
      </g>
      <g id="freepik--Shadow--inject-2" transform="translate(15.145 149.451)">
        <ellipse id="freepik--path--inject-2" cx="52.335" cy="3.056" rx="52.335" ry="3.056" fill="#f5f5f5"/>
      </g>
      <g id="freepik--Character--inject-2" transform="translate(39.561 58.358)">
        <path id="Path_300825" data-name="Path 300825" d="M296.58,381.966,300,379.99l2.089,4.181-2.858,1.657Z" transform="translate(-256.087 -295.626)" fill="#ffc3bd"/>
        <path id="Path_300826" data-name="Path 300826" d="M296.59,381.966l3.423-1.976,1.169,2.343-3.107,1.8Z" transform="translate(-256.095 -295.626)" opacity="0.2"/>
        <path id="Path_300827" data-name="Path 300827" d="M279.562,283.573c2.429-5.614,6.416-12.147,4.78-18.16l-10.894-1.722s-2.251,13.458-1.806,18.978c.464,5.739,7.239,15.925,7.239,15.925l3.9-2.289S281.087,287.6,279.562,283.573Z" transform="translate(-237.838 -210.718)" fill="#0c8bfd"/>
        <g id="Group_76148" data-name="Group 76148" transform="translate(33.746 52.972)" opacity="0.4">
          <path id="Path_300828" data-name="Path 300828" d="M279.562,283.573c2.429-5.614,6.416-12.147,4.78-18.16l-10.894-1.722s-2.251,13.458-1.806,18.978c.464,5.739,7.239,15.925,7.239,15.925l3.9-2.289S281.087,287.6,279.562,283.573Z" transform="translate(-271.584 -263.69)"/>
        </g>
        <path id="Path_300829" data-name="Path 300829" d="M298.636,378.955l-4.456,2.632-1.42-1.844,5.253-2.783Z" transform="translate(-253.299 -293.414)" fill="#0c8bfd"/>
        <path id="Path_300830" data-name="Path 300830" d="M303.332,306.687a62.532,62.532,0,0,0,3.679-8.907C304.438,298.212,302.257,300.3,303.332,306.687Z" transform="translate(-260.812 -235.606)" opacity="0.2"/>
        <path id="Path_300831" data-name="Path 300831" d="M303.351,391.631a.162.162,0,0,0-.27.014,7.99,7.99,0,0,1-2.8,2.219.643.643,0,0,0-.305.37,9.623,9.623,0,0,1-1.512,2.343,2.968,2.968,0,0,0,.219.626.459.459,0,0,0,.7.159l4.969-4.049a.383.383,0,0,0,.027-.575A11.125,11.125,0,0,1,303.351,391.631Z" transform="translate(-257.46 -304.077)" fill="#263238"/>
        <path id="Path_300832" data-name="Path 300832" d="M320.39,394.37l3.949.038-.359,4.664-3.3-.027Z" transform="translate(-273.471 -306.124)" fill="#ffc3bd"/>
        <path id="Path_300833" data-name="Path 300833" d="M316.146,408.568a.146.146,0,0,0-.2-.154,7.985,7.985,0,0,1-3.574-.043.661.661,0,0,0-.478.094,9.445,9.445,0,0,1-2.429.864,3.4,3.4,0,0,0-.27.591.456.456,0,0,0,.432.6h6.089a.386.386,0,0,0,.386-.4A10.967,10.967,0,0,1,316.146,408.568Z" transform="translate(-265.283 -316.338)" fill="#263238"/>
        <path id="Path_300834" data-name="Path 300834" d="M320.39,394.38l3.952.035-.2,2.613L320.552,397Z" transform="translate(-273.471 -306.131)" opacity="0.2"/>
        <path id="Path_300835" data-name="Path 300835" d="M314.875,286.135c1.231-5.865,3.447-13.5,1.889-16.519L304,267.64s1.584,12.147,2,17.791c.435,5.876,2.159,18.02,2.159,18.02h4.273S315.418,293.131,314.875,286.135Z" transform="translate(-261.505 -213.601)" fill="#0c8bfd"/>
        <path id="Path_300836" data-name="Path 300836" d="M314.875,286.135c1.231-5.865,3.447-13.5,1.889-16.519L304,267.64s1.584,12.147,2,17.791c.435,5.876,2.159,18.02,2.159,18.02h4.273S315.418,293.131,314.875,286.135Z" transform="translate(-261.505 -213.601)" opacity="0.4"/>
        <path id="Path_300837" data-name="Path 300837" d="M322.873,395.153h-5.142l-.081-2.143,5.666.092Z" transform="translate(-271.47 -305.131)" fill="#0c8bfd"/>
        <path id="Path_300838" data-name="Path 300838" d="M273.9,185.149l-.324.27-.3.238c-.2.154-.4.3-.61.448-.4.294-.823.567-1.242.842a29.124,29.124,0,0,1-2.632,1.5,21.663,21.663,0,0,1-2.888,1.22,14.085,14.085,0,0,1-3.307.734l-.219.022a2.211,2.211,0,0,1-1.563-.448,6.124,6.124,0,0,1-1.8-2.294,7.084,7.084,0,0,1-.432-1.15,9.785,9.785,0,0,1-.27-1.109q-.084-.54-.13-1.08c-.024-.354-.03-.7-.03-1.053s.027-.691.057-1.031l.062-.516.089-.54a1.4,1.4,0,0,1,2.675-.324l.113.27c.04.1.089.254.138.383l.14.4c.092.27.194.54.294.81a13.959,13.959,0,0,0,.645,1.468,5.744,5.744,0,0,0,.726,1.136,1.312,1.312,0,0,0,.6.462l-1.781-.429a11.667,11.667,0,0,0,2.068-.715c.359-.157.721-.337,1.08-.526s.729-.383,1.08-.594c.723-.421,1.452-.869,2.159-1.35.359-.235.713-.48,1.066-.721l.524-.37.483-.343.111-.078a2.812,2.812,0,1,1,3.42,4.465Z" transform="translate(-228.031 -149.638)" fill="#ffc3bd"/>
        <path id="Path_300839" data-name="Path 300839" d="M258.689,173.164l-1.4.91c-1.709.375-1.811-1.906-1.811-1.906l-.491-1.08a.883.883,0,0,1,.381-1.08l.969-.642a.92.92,0,0,1,1.274.159l.578.858a1.844,1.844,0,0,1,.3.834Z" transform="translate(-225.681 -141.718)" fill="#ffc3bd"/>
        <path id="Path_300840" data-name="Path 300840" d="M293.586,177.986c-2.672-.159-8.165,3.288-8.165,3.288-.632,2.014.47,5.83,2.081,6.775a28.674,28.674,0,0,0,6.011-3.466C295.84,182.523,298.992,178.309,293.586,177.986Z" transform="translate(-247.808 -148.143)" fill="#263238"/>
        <path id="Path_300841" data-name="Path 300841" d="M287.118,177.987a50.03,50.03,0,0,1,10.832,1.854c2.038.615,3.307,2.14,2.394,6.367-1.852,8.575-1.7,15.58-3.285,18.522,0,0-18.538,1.144-21.019-3.131.5-10.589,5.577-18.657,7.828-21.993A3.7,3.7,0,0,1,287.118,177.987Z" transform="translate(-241.092 -148.144)" fill="#263238"/>
        <path id="Path_300842" data-name="Path 300842" d="M318.7,171.638c.478-.343.875-.04,1.171-.621a2.138,2.138,0,0,0,0-1.444l5.355-1.9c-.378,1.8-.675,3.239.019,4.076.024,1.39-3.19,2.661-5.906,2.146C316.928,173.427,318,172.132,318.7,171.638Z" transform="translate(-271.615 -140.616)" fill="#ffc3bd"/>
        <path id="Path_300843" data-name="Path 300843" d="M325.45,174.322l4.049-.372c-1.225,1.4-3.134,1.973-4.03,1.449A2.159,2.159,0,0,0,325.45,174.322Z" transform="translate(-277.165 -145.2)" opacity="0.2"/>
        <path id="Path_300844" data-name="Path 300844" d="M323.958,145.766c-.213-2.076,1.808-4.7,3.509-3.8S323.958,145.766,323.958,145.766Z" transform="translate(-276.064 -121.719)" fill="#263238"/>
        <path id="Path_300845" data-name="Path 300845" d="M328.507,147.164c-1.08,2.362-1.852,3.946-3.647,4.432-3.563.969-4.737-.988-4.394-3.633.31-2.378,2.011-5.847,4.745-5.884a3.579,3.579,0,0,1,3.3,5.085Z" transform="translate(-273.485 -121.932)" fill="#ffc3bd"/>
        <path id="Path_300846" data-name="Path 300846" d="M337.385,146.27a2.151,2.151,0,0,1-.839-3.539c1.279-1.155.839-2.262-.089-2.591s-2.616-.092-3-.918,2.186-1.425,3.679-.475,1.417.375,1.417.375a.359.359,0,0,1-.27.588c1.174.78,2.475,2.659,1.263,3.428C341.061,144,338.7,146.04,337.385,146.27Z" transform="translate(-282.98 -119.145)" fill="#263238"/>
        <path id="Path_300847" data-name="Path 300847" d="M354.69,154.9a.939.939,0,0,0,1.161-.351S356.107,155.554,354.69,154.9Z" transform="translate(-298.512 -131.037)" fill="#263238"/>
        <path id="Path_300848" data-name="Path 300848" d="M328.514,164.329a2.1,2.1,0,0,0,.332-.178.062.062,0,0,0,0-.089.076.076,0,0,0-.1-.019,1.889,1.889,0,0,1-1.62.229.062.062,0,1,0-.046.116A1.97,1.97,0,0,0,328.514,164.329Z" transform="translate(-278.328 -137.96)" fill="#263238"/>
        <path id="Path_300849" data-name="Path 300849" d="M337.82,158.163a1.174,1.174,0,0,1,.88.165A2.329,2.329,0,0,1,337.82,158.163Z" transform="translate(-286.196 -133.656)" opacity="0.2"/>
        <path id="Path_300850" data-name="Path 300850" d="M337.73,159a.961.961,0,0,1,.734.343A1.913,1.913,0,0,1,337.73,159Z" transform="translate(-286.13 -134.286)" opacity="0.2"/>
        <path id="Path_300851" data-name="Path 300851" d="M343.32,165.1a2.429,2.429,0,0,1-1.773.618c-.864-.059-.75-.74-.27-1.4.426-.6,1.126-1.458,1.889-1.08A1.117,1.117,0,0,1,343.32,165.1Z" transform="translate(-288.449 -137.312)" fill="#ffc3bd"/>
        <path id="Path_300852" data-name="Path 300852" d="M334.638,156.761c-.076.2-.243.316-.37.27s-.173-.251-.1-.448.24-.316.37-.27S334.7,156.551,334.638,156.761Z" transform="translate(-283.505 -132.317)" fill="#263238"/>
        <path id="Path_300853" data-name="Path 300853" d="M326.155,153.421c-.073.2-.24.316-.367.27s-.173-.251-.1-.448.24-.316.367-.27S326.231,153.224,326.155,153.421Z" transform="translate(-277.314 -129.879)" fill="#263238"/>
        <path id="Path_300854" data-name="Path 300854" d="M325.5,155.85l-.575,1.727a1.12,1.12,0,0,1-1.144-.381A4.136,4.136,0,0,1,325.5,155.85Z" transform="translate(-275.946 -131.986)" fill="#ed847e"/>
        <path id="Path_300855" data-name="Path 300855" d="M337.98,150.808a.1.1,0,0,0,.062,0,.124.124,0,0,0,.1-.146,1.244,1.244,0,0,0-.68-.91.121.121,0,0,0-.162.067.127.127,0,0,0,.068.162h0a.991.991,0,0,1,.54.726A.124.124,0,0,0,337.98,150.808Z" transform="translate(-285.808 -127.527)" fill="#263238"/>
        <path id="Path_300856" data-name="Path 300856" d="M324.125,149.779a.119.119,0,0,0,.113-.027.977.977,0,0,1,.858-.248.121.121,0,0,0,.151-.086.124.124,0,0,0-.086-.154,1.231,1.231,0,0,0-1.08.3.124.124,0,0,0,0,.175A.118.118,0,0,0,324.125,149.779Z" transform="translate(-276.139 -127.16)" fill="#263238"/>
        <path id="Path_300857" data-name="Path 300857" d="M165.965,199.232l-1.171,3.2a1.62,1.62,0,0,1-1.271,1.066l-15.566,2.356a1.777,1.777,0,0,0-1.325,2.3l5.45,22.441a2.194,2.194,0,0,0,2.311,1.752l37.052-5.612a1.779,1.779,0,0,0,1.328-2.3L186.2,197.391a2.194,2.194,0,0,0-2.311-1.752l-16.657,2.513a1.62,1.62,0,0,0-1.271,1.08Z" transform="translate(-146.565 -161.022)" fill="#0c8bfd"/>
        <path id="Path_300858" data-name="Path 300858" d="M165.965,199.232l-1.171,3.2a1.62,1.62,0,0,1-1.271,1.066l-15.566,2.356a1.777,1.777,0,0,0-1.325,2.3l5.45,22.441a2.194,2.194,0,0,0,2.311,1.752l37.052-5.612a1.779,1.779,0,0,0,1.328-2.3L186.2,197.391a2.194,2.194,0,0,0-2.311-1.752l-16.657,2.513a1.62,1.62,0,0,0-1.271,1.08Z" transform="translate(-146.565 -161.022)" opacity="0.3"/>
        <path id="Path_300859" data-name="Path 300859" d="M160.589,72.83a10.433,10.433,0,0,1,1.093.059A13.137,13.137,0,0,1,184.571,75.8a9.029,9.029,0,0,1-1.539,17.928H160.589a10.448,10.448,0,1,1,0-20.9Z" transform="translate(-149.175 -67.44)" fill="#0c8bfd"/>
        <path id="Path_300860" data-name="Path 300860" d="M192.44,151.28v26.048h19.1V156.951l-5.668-5.671Z" transform="translate(-180.057 -128.65)" fill="#0c8bfd"/>
        <path id="Path_300861" data-name="Path 300861" d="M192.44,151.28v26.048h19.1V156.951l-5.668-5.671Z" transform="translate(-180.057 -128.65)" fill="#fff" opacity="0.6"/>
        <path id="Path_300862" data-name="Path 300862" d="M242.2,156.951V151.28l5.668,5.671Z" transform="translate(-216.386 -128.65)" fill="#0c8bfd" opacity="0.4"/>
        <rect id="Rectangle_23278" data-name="Rectangle 23278" width="1.369" height="0.273" transform="translate(11.645 71.434) rotate(-8.59)" fill="#0c8bfd"/>
        <rect id="Rectangle_23279" data-name="Rectangle 23279" width="4.78" height="0.273" transform="translate(14.508 71.006) rotate(-8.59)" fill="#0c8bfd"/>
        <path id="Path_300863" data-name="Path 300863" d="M188.207,208.867l-1.763,2.939a2.078,2.078,0,0,1-1.444.983l-15.564,2.359a2.1,2.1,0,0,0-1.738,2.122l.9,20.471a1.62,1.62,0,0,0,1.889,1.574l37.052-5.614a2.1,2.1,0,0,0,1.738-2.122l-1.08-24.665a1.62,1.62,0,0,0-1.889-1.574l-16.67,2.535A2.068,2.068,0,0,0,188.207,208.867Z" transform="translate(-161.993 -168.1)" fill="#0c8bfd"/>
        <path id="Path_300864" data-name="Path 300864" d="M213.271,103.987a.335.335,0,0,1-.238-.572,6.478,6.478,0,1,0-9.177,0,.335.335,0,0,1,0,.475.34.34,0,0,1-.475,0,7.156,7.156,0,1,1,10.119,0A.335.335,0,0,1,213.271,103.987Z" transform="translate(-186.515 -85.133)" fill="#fff"/>
        <path id="Path_300865" data-name="Path 300865" d="M219.563,121.226v-7.469a1.217,1.217,0,0,0-1.217-1.217h-3.3a1.217,1.217,0,0,0-1.217,1.217v7.469H212.58l4.114,3.544,4.111-3.544Z" transform="translate(-194.761 -100.366)" fill="#fff"/>
        <path id="Path_300866" data-name="Path 300866" d="M310.476,202.842l-.165.37-.154.337c-.105.224-.216.44-.324.659-.219.435-.456.856-.694,1.279a28.729,28.729,0,0,1-1.579,2.464c-.292.4-.588.81-.907,1.19s-.656.772-1.012,1.15a14.984,14.984,0,0,1-2.454,2.127l-.186.127a1.566,1.566,0,0,1-.3.159,9.137,9.137,0,0,1-2.964.556,17.16,17.16,0,0,1-2.551-.1,23.976,23.976,0,0,1-2.4-.4,21.1,21.1,0,0,1-2.332-.656,1.42,1.42,0,0,1,.348-2.753h.057l2.189-.186c.729-.065,1.447-.135,2.143-.229.348-.046.691-.092,1.023-.148s.656-.127.964-.194a5.241,5.241,0,0,0,1.449-.518l-.489.286a12.757,12.757,0,0,0,1.452-1.59c.238-.3.467-.618.691-.945s.451-.661.669-1c.429-.688.856-1.4,1.255-2.124.205-.362.4-.732.594-1.1l.54-1.058.065-.127a2.813,2.813,0,0,1,5.069,2.429Z" transform="translate(-252.379 -163.425)" fill="#ffc3bd"/>
        <path id="Path_300867" data-name="Path 300867" d="M339.783,190.175c1.3,4.664-2,9.3-2,9.3-1.746.5-6.349-1.293-7.326-3.01a29.074,29.074,0,0,1,3.509-6.748C335.734,187.533,339.019,187.441,339.783,190.175Z" transform="translate(-280.823 -155.531)" fill="#263238"/>
        <path id="Path_300868" data-name="Path 300868" d="M286.318,236.06l.27,1.647c-.362,1.711-2.483.869-2.483.869h-1.182a.883.883,0,0,1-.826-.788l-.189-1.15a.92.92,0,0,1,.669-1.1l1.018-.173a1.822,1.822,0,0,1,.885.067Z" transform="translate(-245.359 -190.022)" fill="#ffc3bd"/>
      </g>
    </g>
  </g>
</svg>
