<svg xmlns="http://www.w3.org/2000/svg" width="77.123" height="74.701" viewBox="0 0 77.123 74.701">
  <g id="Group_76524" data-name="Group 76524" transform="translate(-1075 -3203.709)">
    <g id="Icon" transform="translate(1075 3195.634)">
      <g id="_147" transform="translate(0 8.075)">
        <g id="Group_76239" data-name="Group 76239">
          <path id="Path_300983" data-name="Path 300983" d="M71.986,40.781V75.064a7.708,7.708,0,0,1-7.712,7.712H7.712A7.73,7.73,0,0,1,0,75.049V40.781L30.548,10.323a7.719,7.719,0,0,1,10.891,0Z" transform="translate(0 -8.075)" fill="#ff9d00"/>
          <path id="Path_300984" data-name="Path 300984" d="M47.712,65.1H92.269a7.708,7.708,0,0,1,7.712,7.712v44.556a7.708,7.708,0,0,1-7.712,7.712H47.712A7.708,7.708,0,0,1,40,117.369V72.812A7.708,7.708,0,0,1,47.712,65.1Z" transform="translate(-33.975 -56.51)" fill="#f4eee6"/>
          <path id="Path_300985" data-name="Path 300985" d="M71.986,225.2v34.283a7.708,7.708,0,0,1-7.712,7.712H7.712A7.73,7.73,0,0,1,0,259.468V225.29l35.94,35.94Z" transform="translate(0 -192.494)" fill="#ffbe1d"/>
          <path id="Path_300986" data-name="Path 300986" d="M82.313,316.463a7.777,7.777,0,0,1-4.654,2.244L20,318.737a7.7,7.7,0,0,1-5.2-2.275l28.3-28.3a7.709,7.709,0,0,1,10.906,0Z" transform="translate(-12.571 -244.051)" fill="#ffe000"/>
        </g>
        <g id="Badge" transform="translate(51.425 19.857)">
          <circle id="Ellipse_9536" data-name="Ellipse 9536" cx="12.849" cy="12.849" r="12.849" fill="#00bf00"/>
          <path id="Path_300987" data-name="Path 300987" d="M388.712,171.083a1.359,1.359,0,0,0-1.6-1.3,6.61,6.61,0,0,1-5.709-1.235,1.329,1.329,0,0,0-1.747,0,6.644,6.644,0,0,1-5.709,1.235,1.361,1.361,0,0,0-1.6,1.3c-.09,3.359.452,10.921,7,14.024a2.752,2.752,0,0,0,2.335,0C388.245,182.019,388.8,174.442,388.712,171.083Zm-3.48,3.9-5.438,5.438a1.3,1.3,0,0,1-1.823,0l-2.154-2.139a1.289,1.289,0,0,1,1.823-1.823l1.235,1.235,4.534-4.534a1.289,1.289,0,0,1,1.823,1.823Z" transform="translate(-367.684 -163.958)" fill="#fff"/>
        </g>
      </g>
    </g>
  </g>
</svg>
