<svg xmlns="http://www.w3.org/2000/svg" width="26.851" height="35.226" viewBox="0 0 26.851 35.226">
  <path id="Union_3" data-name="Union 3" d="M20.667,34.818H.767A.776.776,0,0,1,0,34.054V34c-.009-.431,0-.866,0-1.3V.765A.775.775,0,0,1,.767,0H22.695a7.243,7.243,0,0,1,1.347.064,3.025,3.025,0,0,1,2.287,2.1,3.3,3.3,0,0,1,.123.95V31.749a3.179,3.179,0,0,1-.34,1.446,3.034,3.034,0,0,1-2.641,1.622h-.062c-.3.007-.608.009-.913.009C21.886,34.826,21.276,34.818,20.667,34.818ZM3.546,33.291h19.9c.061,0,.122,0,.195,0l.026,0h0a2.822,2.822,0,0,0,.3-.081l.072-.026.024-.006.067-.04a2.259,2.259,0,0,0,.225-.141.62.62,0,0,1,.05-.043c.035-.034.073-.069.107-.1a1.417,1.417,0,0,0,.1-.11l.011-.011.008-.012a2.259,2.259,0,0,0,.157-.26c.015-.03.061-.175.035-.069s.023-.069.03-.1c.015-.058.035-.114.046-.172,0-.024.01-.044.014-.066l0,.008a.167.167,0,0,0,.01-.045c0-.026,0-.053,0-.079a.892.892,0,0,0,0-.108V3.01c0-.067-.007-.131-.011-.2l0-.02c-.015-.058-.027-.119-.042-.176s-.035-.114-.053-.171l0-.011a2.944,2.944,0,0,0-.156-.275l-.024-.037c0,.006.008.01.009.01s-.018-.032-.043-.059l.01.015-.01-.014v0c-.028-.029-.061-.06-.072-.07-.034-.035-.069-.069-.107-.1s-.119-.137-.058-.053l.016.021a.215.215,0,0,0-.039-.036c-.026-.02-.057-.038-.084-.058a1.5,1.5,0,0,0-.13-.076c-.038-.023-.081-.041-.12-.061l-.045-.015a3.008,3.008,0,0,0-.314-.081l-.018,0c-.065,0-.126-.008-.187-.008H1.534c0,.2,0,.392,0,.588V33.276h.188C2.328,33.275,2.938,33.291,3.546,33.291Zm20.432-.084c.008.006.047-.013.084-.034A.544.544,0,0,0,23.978,33.207Zm.084-31.553a.182.182,0,0,0-.034-.013A.127.127,0,0,0,24.062,1.654Zm-.347-.11Zm1.2,30.508a.083.083,0,0,1-.011.023A.088.088,0,0,1,24.915,32.052Zm-9.046-2.3H9.707a.778.778,0,0,1-.763-.764.769.769,0,0,1,.763-.763h7.036a.763.763,0,1,1,0,1.527Zm2.31-3.536H6.658a.763.763,0,1,1,0-1.527h.023c.531-.015,1.069,0,1.6,0H19.8a.779.779,0,0,1,.764.764.77.77,0,0,1-.764.763h-.023c-.177.005-.354.007-.532.007C18.89,26.227,18.533,26.22,18.18,26.22Zm-5.115-4.666a8.608,8.608,0,0,1-3.354-.767,8.34,8.34,0,0,1-4.817-8.165,8.351,8.351,0,0,1,8.19-7.763,1.781,1.781,0,0,1,.188,0,8.038,8.038,0,0,1,2.769.485,8.556,8.556,0,0,1,4,3.046,8.352,8.352,0,0,1,1.534,4.8c0,.007,0,.014,0,.022a.641.641,0,0,1,0,.084,9.335,9.335,0,0,1-.114,1.283,8.4,8.4,0,0,1-6.512,6.807,8.5,8.5,0,0,1-1.638.172l-.11,0Q13.135,21.559,13.065,21.554Zm.283-1.522.078-.023c.023-.007.047-.018.072-.027.081-.044.154-.1.23-.143l.083-.073a2.936,2.936,0,0,0,.213-.222l.051-.064c.015-.025.035-.049.052-.073a5.115,5.115,0,0,0,.367-.6c.065-.119.122-.237.175-.359.015-.038.03-.073.05-.111l0-.006c.019-.045.037-.091.054-.135.108-.274.2-.553.28-.836.087-.312.168-.633.233-.954.034-.18.069-.362.1-.542.011-.084.026-.164.038-.248.008-.041.011-.084.019-.126.023-.148,0-.015,0,.012a9.69,9.69,0,0,0,.139-1.524h-4.7c.013.318.037.636.066.954.019.192.03.39.064.58,0-.026-.023-.156,0-.011.008.041.012.084.02.126.011.084.023.163.038.248a13.166,13.166,0,0,0,.466,1.912c.046.137.1.279.149.416.024.057.049.115.07.171.009.019.017.039.025.058a6.633,6.633,0,0,0,.359.687c.061.1.126.2.195.294.015.022.03.042.045.064s.04.05.062.074a2.737,2.737,0,0,0,.214.221l.087.077c.072.044.141.1.215.135.028.008.057.023.083.032l.072.017Q13.228,20.033,13.348,20.032Zm3.724-5.585a14.028,14.028,0,0,1-.893,4.311c-.106.259-.224.528-.36.793a.3.3,0,0,0,.11-.059c.032-.014.064-.028.1-.044.169-.081.336-.16.5-.251s.321-.187.473-.286c.069-.047.138-.093.207-.141a.926.926,0,0,0,.244-.176l-.052.039.052-.042c.038-.03.076-.065.114-.1.065-.053.131-.107.192-.164.137-.122.271-.248.4-.381s.248-.268.366-.409c.03-.038.065-.076.1-.114s.042-.053.061-.081c-.019.027-.038.05-.057.077.057-.035.11-.149.148-.2a7.855,7.855,0,0,0,.574-.947c.046-.093.091-.184.133-.275.015-.035.032-.07.047-.1l.015-.037c.061-.157.122-.317.175-.477a7.7,7.7,0,0,0,.274-1.13.71.71,0,0,0,.027-.18c-.015.114-.02.13-.008.046,0-.02,0-.035.008-.053l.007-.082c-.355,0-.712-.006-1.067-.006H17.1Q17.087,14.21,17.072,14.447Zm-6.479,5.058h0a9.7,9.7,0,0,1-.768-2.1,16.339,16.339,0,0,1-.482-3.428H6.455l.014.137v0c.005.035.009.072.015.107.03.187.065.374.111.562a8.084,8.084,0,0,0,.344,1.072l.008.02,0,.007c.02.038.035.076.053.114.038.084.081.168.123.252.079.156.163.309.256.461.1.172.213.34.328.5a.886.886,0,0,0,.149.2c-.069-.088-.076-.1-.026-.035.011.012.019.027.03.039s.041.049.064.076a7.919,7.919,0,0,0,.76.793c.084.076.172.157.263.23a.61.61,0,0,0,.076.064l.056.043c-.017-.013-.033-.026-.052-.039a.886.886,0,0,0,.2.149c.081.057.164.114.248.168a7.724,7.724,0,0,0,.97.539c.036.015.072.032.108.048Zm1.173-1.1Zm7.543-5.963h.721c0-.04-.007-.079-.012-.119a.242.242,0,0,1,0-.046c-.006-.032-.015-.065-.02-.091a7.472,7.472,0,0,0-.263-1.107c-.058-.18-.122-.352-.19-.528l-.011-.029c-.016-.037-.033-.075-.051-.112-.038-.077-.072-.153-.11-.23a7.591,7.591,0,0,0-.569-.95.9.9,0,0,0-.175-.245c.069.088.076.1.026.035-.011-.012-.018-.027-.03-.038-.03-.038-.064-.076-.1-.115-.107-.13-.217-.251-.332-.373-.137-.146-.282-.283-.431-.417-.065-.057-.126-.11-.192-.163-.038-.032-.076-.065-.114-.1-.009-.01-.112-.086-.071-.056l-.055-.039c-.042-.03-.081-.057-.123-.088-.064-.049-.137-.095-.206-.14-.152-.1-.313-.2-.473-.286s-.329-.176-.5-.252c-.042-.017-.084-.038-.126-.056l-.07-.029a9.736,9.736,0,0,1,.646,1.654,15.764,15.764,0,0,1,.614,3.917Zm-8.009,0h4.277c0-.132-.009-.262-.014-.39-.023-.358-.06-.716-.1-1.072l0-.031c-.008-.042-.012-.085-.02-.126-.015-.091-.03-.187-.046-.279-.026-.161-.053-.321-.087-.481a11.841,11.841,0,0,0-.512-1.8,1.348,1.348,0,0,0-.093-.233l.014.032c-.011-.025-.023-.049-.032-.075-.053-.111-.107-.225-.164-.336a5.054,5.054,0,0,0-.378-.626L14.111,7l-.1-.113c-.065-.072-.134-.141-.2-.206-.032-.032-.063-.058-.095-.086-.075-.045-.147-.094-.227-.136l-.006,0c-.024-.009-.048-.02-.074-.028s-.064-.013-.1-.021c-.06,0-.121,0-.18,0-.03.006-.06.013-.09.021l-.006,0a.268.268,0,0,0-.075.025l-.015.007-.015,0,.011,0a2.292,2.292,0,0,0-.2.123l-.1.089a2.419,2.419,0,0,0-.2.207c-.029.031-.056.066-.084.1-.011.016-.023.031-.034.049-.065.091-.126.183-.183.279a6.38,6.38,0,0,0-.359.683.939.939,0,0,1-.055.13c-.019.048-.039.1-.056.144-.05.13-.1.26-.141.393-.1.3-.183.607-.259.913-.076.324-.146.649-.2.973-.019.1-.034.207-.049.309-.008.042-.012.085-.02.126L11,11c-.018.165-.039.327-.053.489q-.046.478-.065.958Zm-3.792,0H9.345A15.08,15.08,0,0,1,10.1,8.095a9.37,9.37,0,0,1,.509-1.2l-.008,0-.019.007c-.033.016-.067.03-.1.047a7.513,7.513,0,0,0-.993.545c-.084.053-.168.111-.248.169a.907.907,0,0,0-.2.148c.088-.069.1-.076.035-.026-.012.011-.027.019-.038.03l-.1.079c-.073.058-.141.119-.21.18a8.066,8.066,0,0,0-.764.79c-.038.047-.072.093-.11.138a.186.186,0,0,1-.047.042c-.041.053-.077.122-.106.164-.1.145-.2.294-.289.443-.108.175-.2.352-.294.531-.039.076-.077.152-.111.229-.014.032-.029.065-.044.1v0l0,0-.017.039c-.012.032-.023.042-.027.039-.03.074-.051.17-.072.228-.035.088-.065.18-.093.268-.053.163-.1.328-.14.5-.05.2-.093.4-.126.611a.552.552,0,0,0-.023.157c0-.012.023-.187.008-.046-.006.045-.011.092-.016.138C6.808,12.442,7.159,12.447,7.509,12.447ZM19.567,10.6ZM7.86,8.992l.006,0Zm3.882-.913-.014.036c.012-.024.036-.087.035-.087S11.757,8.043,11.742,8.079Zm5.7-.276Zm-3.3-.777Zm-1.82,0,.01-.011Zm1.754-.081-.005-.008Zm1.816,12.563.041-.017a.586.586,0,0,1-.089.04A.313.313,0,0,1,15.888,19.509Zm.041-.017h0Zm0,0h0Zm1.463-.859,0,0-.024.018Zm-8.31,0,.024.019ZM14.72,8.084l0-.011.025.059Zm-.006-.014v0ZM12.948,6.461c.03-.01.06-.024.09-.033s.017.009-.093.035ZM24.616,2.092l0,0,.024.034Zm-.233-.225.01.012Z" transform="translate(0.2 0.199)" fill="#0091ff" stroke="#0091ff" stroke-width="0.4" opacity="0.28"/>
</svg>
