<svg xmlns="http://www.w3.org/2000/svg" width="142.394" height="106.101" viewBox="0 0 142.394 106.101">
  <g id="Group_76518" data-name="Group 76518" transform="translate(-182 -1845.894)">
    <g id="Online_test-rafiki" data-name="Online test-rafiki" transform="translate(182 1790.894)">
      <g id="freepik--background-complete--inject-2" transform="translate(0 55)">
        <rect id="Rectangle_23084" data-name="Rectangle 23084" width="142.394" height="0.071" transform="translate(0 93.24)" fill="#ebebeb"/>
        <rect id="Rectangle_23085" data-name="Rectangle 23085" width="9.432" height="0.071" transform="translate(118.694 97.822)" fill="#ebebeb"/>
        <rect id="Rectangle_23086" data-name="Rectangle 23086" width="2.475" height="0.071" transform="translate(91.853 98.597)" fill="#ebebeb"/>
        <rect id="Rectangle_23087" data-name="Rectangle 23087" width="5.465" height="0.071" transform="translate(112.944 95.179)" fill="#ebebeb"/>
        <rect id="Rectangle_23088" data-name="Rectangle 23088" width="12.3" height="0.071" transform="translate(14.94 95.658)" fill="#ebebeb"/>
        <rect id="Rectangle_23089" data-name="Rectangle 23089" width="1.803" height="0.071" transform="translate(29.777 95.658)" fill="#ebebeb"/>
        <rect id="Rectangle_23090" data-name="Rectangle 23090" width="26.679" height="0.071" transform="translate(37.441 96.859)" fill="#ebebeb"/>
        <path id="Path_300019" data-name="Path 300019" d="M94.823,135.538H39.833a1.626,1.626,0,0,1-1.623-1.626v-77.3A1.626,1.626,0,0,1,39.833,55h54.99a1.626,1.626,0,0,1,1.626,1.626v77.286A1.626,1.626,0,0,1,94.823,135.538ZM39.833,55.057a1.555,1.555,0,0,0-1.552,1.555v77.3a1.555,1.555,0,0,0,1.552,1.555h54.99a1.558,1.558,0,0,0,1.555-1.555v-77.3a1.558,1.558,0,0,0-1.555-1.555Z" transform="translate(-27.328 -55)" fill="#ebebeb"/>
        <path id="Path_300020" data-name="Path 300020" d="M311.119,135.538H256.126a1.629,1.629,0,0,1-1.626-1.626v-77.3A1.629,1.629,0,0,1,256.126,55h54.993a1.626,1.626,0,0,1,1.62,1.612v77.3A1.626,1.626,0,0,1,311.119,135.538ZM256.126,55.057a1.558,1.558,0,0,0-1.555,1.555v77.3a1.558,1.558,0,0,0,1.555,1.555h54.993a1.558,1.558,0,0,0,1.555-1.555v-77.3a1.558,1.558,0,0,0-1.555-1.555Z" transform="translate(-182.021 -55)" fill="#ebebeb"/>
        <rect id="Rectangle_23091" data-name="Rectangle 23091" width="38.532" height="56.496" transform="translate(115.641 92.932) rotate(180)" fill="#f0f0f0"/>
        <rect id="Rectangle_23092" data-name="Rectangle 23092" width="35.809" height="10.435" transform="translate(114.28 48.65) rotate(180)" fill="#e0e0e0"/>
        <rect id="Rectangle_23093" data-name="Rectangle 23093" width="2.033" height="8.746" transform="translate(114.28 48.65) rotate(180)" fill="#ebebeb"/>
        <rect id="Rectangle_23094" data-name="Rectangle 23094" width="2.033" height="8.746" transform="translate(104.443 48.65) rotate(180)" fill="#ebebeb"/>
        <rect id="Rectangle_23095" data-name="Rectangle 23095" width="2.033" height="8.746" transform="matrix(-0.985, -0.17, 0.17, -0.985, 91.764, 48.647)" fill="#ebebeb"/>
        <rect id="Rectangle_23096" data-name="Rectangle 23096" width="2.033" height="7.592" transform="translate(111.759 48.65) rotate(180)" fill="#ebebeb"/>
        <rect id="Rectangle_23097" data-name="Rectangle 23097" width="2.033" height="7.592" transform="translate(107.083 48.65) rotate(180)" fill="#ebebeb"/>
        <rect id="Rectangle_23098" data-name="Rectangle 23098" width="2.033" height="7.592" transform="translate(95.282 48.65) rotate(180)" fill="#ebebeb"/>
        <rect id="Rectangle_23099" data-name="Rectangle 23099" width="2.033" height="7.592" transform="translate(100.081 48.647) rotate(-167.47)" fill="#ebebeb"/>
        <rect id="Rectangle_23100" data-name="Rectangle 23100" width="1.017" height="9.179" transform="translate(108.983 48.65) rotate(180)" fill="#ebebeb"/>
        <rect id="Rectangle_23101" data-name="Rectangle 23101" width="1.017" height="9.179" transform="translate(96.885 48.65) rotate(180)" fill="#ebebeb"/>
        <rect id="Rectangle_23102" data-name="Rectangle 23102" width="35.809" height="10.435" transform="translate(78.471 50.302)" fill="#e0e0e0"/>
        <rect id="Rectangle_23103" data-name="Rectangle 23103" width="2.033" height="8.746" transform="translate(78.471 51.991)" fill="#ebebeb"/>
        <rect id="Rectangle_23104" data-name="Rectangle 23104" width="2.033" height="8.746" transform="translate(88.307 51.991)" fill="#ebebeb"/>
        <rect id="Rectangle_23105" data-name="Rectangle 23105" width="2.033" height="8.746" transform="matrix(0.985, -0.17, 0.17, 0.985, 99.507, 52.113)" fill="#ebebeb"/>
        <rect id="Rectangle_23106" data-name="Rectangle 23106" width="2.033" height="7.592" transform="translate(80.991 53.144)" fill="#ebebeb"/>
        <rect id="Rectangle_23107" data-name="Rectangle 23107" width="2.033" height="7.592" transform="translate(85.667 53.144)" fill="#ebebeb"/>
        <rect id="Rectangle_23108" data-name="Rectangle 23108" width="2.033" height="7.592" transform="translate(97.469 53.144)" fill="#ebebeb"/>
        <rect id="Rectangle_23109" data-name="Rectangle 23109" width="2.033" height="7.592" transform="translate(91.032 53.319) rotate(-12.53)" fill="#ebebeb"/>
        <rect id="Rectangle_23110" data-name="Rectangle 23110" width="1.017" height="9.179" transform="translate(83.768 51.558)" fill="#ebebeb"/>
        <rect id="Rectangle_23111" data-name="Rectangle 23111" width="1.017" height="9.179" transform="translate(95.865 51.558)" fill="#ebebeb"/>
        <rect id="Rectangle_23112" data-name="Rectangle 23112" width="2.033" height="8.746" transform="translate(114.28 60.737) rotate(180)" fill="#ebebeb"/>
        <rect id="Rectangle_23113" data-name="Rectangle 23113" width="2.033" height="7.592" transform="translate(111.759 60.737) rotate(180)" fill="#ebebeb"/>
        <rect id="Rectangle_23114" data-name="Rectangle 23114" width="2.033" height="7.592" transform="translate(107.083 60.737) rotate(180)" fill="#ebebeb"/>
        <rect id="Rectangle_23115" data-name="Rectangle 23115" width="1.017" height="9.179" transform="translate(108.983 60.737) rotate(180)" fill="#ebebeb"/>
        <rect id="Rectangle_23116" data-name="Rectangle 23116" width="35.809" height="10.435" transform="translate(114.28 72.823) rotate(180)" fill="#e0e0e0"/>
        <rect id="Rectangle_23117" data-name="Rectangle 23117" width="2.033" height="8.746" transform="translate(93.727 72.823) rotate(180)" fill="#ebebeb"/>
        <rect id="Rectangle_23118" data-name="Rectangle 23118" width="2.033" height="8.746" transform="matrix(-0.985, -0.17, 0.17, -0.985, 81.048, 72.818)" fill="#ebebeb"/>
        <rect id="Rectangle_23119" data-name="Rectangle 23119" width="2.033" height="7.592" transform="translate(101.043 72.823) rotate(180)" fill="#ebebeb"/>
        <rect id="Rectangle_23120" data-name="Rectangle 23120" width="2.033" height="7.592" transform="translate(96.367 72.823) rotate(180)" fill="#ebebeb"/>
        <rect id="Rectangle_23121" data-name="Rectangle 23121" width="2.033" height="7.592" transform="translate(84.565 72.823) rotate(180)" fill="#ebebeb"/>
        <rect id="Rectangle_23122" data-name="Rectangle 23122" width="2.033" height="7.592" transform="translate(89.364 72.819) rotate(-167.47)" fill="#ebebeb"/>
        <rect id="Rectangle_23123" data-name="Rectangle 23123" width="1.017" height="9.179" transform="translate(98.266 72.823) rotate(180)" fill="#ebebeb"/>
        <rect id="Rectangle_23124" data-name="Rectangle 23124" width="1.017" height="9.179" transform="translate(86.168 72.823) rotate(180)" fill="#ebebeb"/>
        <rect id="Rectangle_23125" data-name="Rectangle 23125" width="2.033" height="8.746" transform="matrix(-0.985, -0.17, 0.17, -0.985, 104.453, 72.819)" fill="#ebebeb"/>
        <rect id="Rectangle_23126" data-name="Rectangle 23126" width="2.033" height="7.592" transform="translate(107.969 72.823) rotate(180)" fill="#ebebeb"/>
        <rect id="Rectangle_23127" data-name="Rectangle 23127" width="2.033" height="7.592" transform="translate(112.77 72.82) rotate(-167.47)" fill="#ebebeb"/>
        <rect id="Rectangle_23128" data-name="Rectangle 23128" width="1.017" height="9.179" transform="translate(109.569 72.823) rotate(180)" fill="#ebebeb"/>
        <rect id="Rectangle_23129" data-name="Rectangle 23129" width="6.647" height="56.642" transform="translate(115.641 36.439)" fill="#e0e0e0"/>
        <path id="Path_300021" data-name="Path 300021" d="M96.687,110.908a4.308,4.308,0,0,1,1.27-3.611c1.6-1.413,1.464-2.25,1.005-2.358s-.88,1.3-1.586,1.689c0,0-.023-2.011.695-2.751s1.091-2.649.41-2.683-.752,1.139-.894,1.959a7.137,7.137,0,0,1-.9,1.994,7.788,7.788,0,0,0-.612-2.54c-.464-.74.772-2.435.285-3.175s-1.321.672-1.253,2.258,1.139,3.281.883,4.938c0,0-.467-1.165-.886-1.27s-.854-.877-1.139-1.162-.635.7,0,1.62,2.258,3.369,2.011,5.354Z" transform="translate(-66.949 -86.633)" fill="#e6e6e6"/>
        <path id="Path_300022" data-name="Path 300022" d="M99.3,136.73l.524,3.3a1.675,1.675,0,0,1-1.655,1.939H97.6a1.675,1.675,0,0,1-1.657-1.939l.524-3.3Z" transform="translate(-68.607 -113.454)" fill="#e6e6e6"/>
        <rect id="Rectangle_23130" data-name="Rectangle 23130" width="37.148" height="1.908" transform="translate(59.894 29.205) rotate(180)" fill="#e0e0e0"/>
        <rect id="Rectangle_23131" data-name="Rectangle 23131" width="1.638" height="7.034" transform="translate(58.185 27.297) rotate(180)" fill="#ebebeb"/>
        <rect id="Rectangle_23132" data-name="Rectangle 23132" width="1.638" height="7.034" transform="translate(50.274 27.297) rotate(180)" fill="#ebebeb"/>
        <rect id="Rectangle_23133" data-name="Rectangle 23133" width="1.638" height="7.034" transform="matrix(-0.985, -0.17, 0.17, -0.985, 40.069, 27.297)" fill="#ebebeb"/>
        <rect id="Rectangle_23134" data-name="Rectangle 23134" width="1.638" height="6.109" transform="translate(56.157 27.297) rotate(180)" fill="#ebebeb"/>
        <rect id="Rectangle_23135" data-name="Rectangle 23135" width="1.638" height="6.109" transform="translate(52.395 27.297) rotate(180)" fill="#ebebeb"/>
        <rect id="Rectangle_23136" data-name="Rectangle 23136" width="1.638" height="6.109" transform="translate(42.9 27.297) rotate(180)" fill="#ebebeb"/>
        <rect id="Rectangle_23137" data-name="Rectangle 23137" width="1.638" height="6.109" transform="translate(46.761 27.294) rotate(-167.47)" fill="#ebebeb"/>
        <rect id="Rectangle_23138" data-name="Rectangle 23138" width="0.817" height="7.385" transform="translate(53.925 27.294) rotate(180)" fill="#ebebeb"/>
        <rect id="Rectangle_23139" data-name="Rectangle 23139" width="0.817" height="7.385" transform="translate(44.191 27.294) rotate(180)" fill="#ebebeb"/>
        <rect id="Rectangle_23140" data-name="Rectangle 23140" width="37.148" height="1.908" transform="translate(22.749 41.545)" fill="#e0e0e0"/>
        <rect id="Rectangle_23141" data-name="Rectangle 23141" width="1.638" height="7.034" transform="translate(24.458 34.511)" fill="#ebebeb"/>
        <rect id="Rectangle_23142" data-name="Rectangle 23142" width="1.638" height="7.034" transform="translate(32.372 34.511)" fill="#ebebeb"/>
        <rect id="Rectangle_23143" data-name="Rectangle 23143" width="1.638" height="7.034" transform="matrix(0.985, -0.17, 0.17, 0.985, 41.381, 34.612)" fill="#ebebeb"/>
        <rect id="Rectangle_23144" data-name="Rectangle 23144" width="1.638" height="6.109" transform="translate(26.485 35.436)" fill="#ebebeb"/>
        <rect id="Rectangle_23145" data-name="Rectangle 23145" width="1.638" height="6.109" transform="translate(30.247 35.436)" fill="#ebebeb"/>
        <rect id="Rectangle_23146" data-name="Rectangle 23146" width="1.638" height="6.109" transform="translate(39.742 35.436)" fill="#ebebeb"/>
        <rect id="Rectangle_23147" data-name="Rectangle 23147" width="1.638" height="6.109" transform="translate(34.563 35.578) rotate(-12.53)" fill="#ebebeb"/>
        <rect id="Rectangle_23148" data-name="Rectangle 23148" width="0.817" height="7.385" transform="translate(28.718 34.16)" fill="#ebebeb"/>
        <rect id="Rectangle_23149" data-name="Rectangle 23149" width="0.817" height="7.385" transform="translate(38.452 34.16)" fill="#ebebeb"/>
        <rect id="Rectangle_23150" data-name="Rectangle 23150" width="7.974" height="5.505" transform="translate(48.357 35.977)" fill="#ebebeb"/>
        <ellipse id="Ellipse_9517" data-name="Ellipse 9517" cx="5.562" cy="5.562" rx="5.562" ry="5.562" transform="translate(92.881 13.1)" fill="#e0e0e0"/>
        <circle id="Ellipse_9518" data-name="Ellipse 9518" cx="4.73" cy="4.73" r="4.73" transform="translate(93.712 13.932)" fill="#f0f0f0"/>
        <path id="Path_300023" data-name="Path 300023" d="M339.383,109.14v3.306L337.19,111.2" transform="translate(-241.162 -93.722)" fill="#f0f0f0"/>
        <path id="Path_300024" data-name="Path 300024" d="M338.669,112.016a.3.3,0,0,1-.14-.037l-2.193-1.242a.285.285,0,1,1,.282-.5l1.766,1v-2.817a.285.285,0,1,1,.57,0v3.306a.285.285,0,0,1-.285.285Z" transform="translate(-240.448 -93.006)" fill="#e0e0e0"/>
      </g>
      <g id="freepik--Shadow--inject-2" transform="translate(15.979 154.653)">
        <ellipse id="freepik--path--inject-2" cx="55.218" cy="3.224" rx="55.218" ry="3.224" transform="translate(0 0)" fill="#f5f5f5"/>
      </g>
      <g id="freepik--Test--inject-2" transform="translate(63.647 75.698)">
        <rect id="Rectangle_23151" data-name="Rectangle 23151" width="56.679" height="53.665" transform="translate(0 0)" fill="#0c8bfd"/>
        <rect id="Rectangle_23152" data-name="Rectangle 23152" width="56.679" height="53.665" transform="translate(0 0)" fill="#fff" opacity="0.7"/>
        <rect id="Rectangle_23153" data-name="Rectangle 23153" width="56.679" height="2.731" transform="translate(0 0)" fill="#0c8bfd"/>
        <rect id="Rectangle_23154" data-name="Rectangle 23154" width="1.874" height="50.983" transform="translate(54.805 2.734)" opacity="0.2"/>
        <rect id="Rectangle_23155" data-name="Rectangle 23155" width="1.128" height="7.103" rx="0.564" transform="translate(55.198 3.941)" fill="#fff" opacity="0.6"/>
        <path id="Path_300025" data-name="Path 300025" d="M279.623,260.285h-52.4a.145.145,0,0,1-.142-.142.142.142,0,0,1,.142-.142h52.4a.142.142,0,0,1,0,.285Z" transform="translate(-226.058 -222.317)" opacity="0.2"/>
        <path id="Path_300026" data-name="Path 300026" d="M279.623,217.285h-52.4a.145.145,0,0,1-.142-.142.142.142,0,0,1,.142-.142h52.4a.142.142,0,0,1,0,.285Z" transform="translate(-226.058 -191.563)" opacity="0.2"/>
        <rect id="Rectangle_23156" data-name="Rectangle 23156" width="52.39" height="8.011" transform="translate(1.179 3.939)" fill="#0c8bfd"/>
        <path id="Path_300027" data-name="Path 300027" d="M416.773,130.756a.686.686,0,1,1-.686-.686.686.686,0,0,1,.686.686Z" transform="translate(-360.746 -129.389)" fill="#fff" opacity="0.6"/>
        <path id="Path_300028" data-name="Path 300028" d="M408.273,130.756a.686.686,0,1,1-.686-.686A.686.686,0,0,1,408.273,130.756Z" transform="translate(-354.667 -129.389)" fill="#fff" opacity="0.6"/>
        <path id="Path_300029" data-name="Path 300029" d="M399.773,130.756a.686.686,0,1,1-.686-.686.686.686,0,0,1,.686.686Z" transform="translate(-348.588 -129.389)" fill="#fff" opacity="0.6"/>
        <path id="Path_300030" data-name="Path 300030" d="M231.3,180.055a1.677,1.677,0,1,1,1.677-1.677A1.677,1.677,0,0,1,231.3,180.055Z" transform="translate(-227.874 -162.74)" opacity="0.4"/>
        <path id="Path_300031" data-name="Path 300031" d="M234.878,180.35v1.273h-.285v-1.037h-.253v-.236Z" transform="translate(-231.25 -165.35)" fill="#fff"/>
        <rect id="Rectangle_23157" data-name="Rectangle 23157" width="45.273" height="0.852" rx="0.426" transform="translate(6.354 14.012)" opacity="0.4"/>
        <rect id="Rectangle_23158" data-name="Rectangle 23158" width="45.273" height="0.852" rx="0.426" transform="translate(6.354 16.224)" opacity="0.4"/>
        <rect id="Rectangle_23159" data-name="Rectangle 23159" width="29.837" height="0.852" rx="0.426" transform="translate(6.354 18.434)" opacity="0.4"/>
        <circle id="Ellipse_9519" data-name="Ellipse 9519" cx="0.777" cy="0.777" r="0.777" transform="translate(6.356 21.9)" opacity="0.2"/>
        <path id="Path_300032" data-name="Path 300032" d="M247.716,205.965a.538.538,0,1,1-.535-.535A.538.538,0,0,1,247.716,205.965Z" transform="translate(-240.047 -183.288)" fill="#fff"/>
        <rect id="Rectangle_23160" data-name="Rectangle 23160" width="8.185" height="0.852" rx="0.426" transform="translate(9.35 22.253)" opacity="0.4"/>
        <path id="Path_300033" data-name="Path 300033" d="M302.835,205.3a.777.777,0,1,1-.777-.777A.777.777,0,0,1,302.835,205.3Z" transform="translate(-279.126 -182.637)" opacity="0.2"/>
        <path id="Path_300034" data-name="Path 300034" d="M303.2,205.905a.538.538,0,1,1-.538-.535.538.538,0,0,1,.538.535Z" transform="translate(-279.727 -183.245)" fill="#0c8bfd"/>
        <rect id="Rectangle_23161" data-name="Rectangle 23161" width="8.188" height="0.852" rx="0.426" transform="translate(25.15 22.236)" opacity="0.4"/>
        <path id="Path_300035" data-name="Path 300035" d="M358.315,205.237a.777.777,0,1,1-.777-.777.777.777,0,0,1,.777.777Z" transform="translate(-318.806 -182.594)" opacity="0.2"/>
        <path id="Path_300036" data-name="Path 300036" d="M358.677,205.838a.538.538,0,1,1-.538-.538A.538.538,0,0,1,358.677,205.838Z" transform="translate(-319.407 -183.195)" fill="#fff"/>
        <rect id="Rectangle_23162" data-name="Rectangle 23162" width="8.185" height="0.852" rx="0.426" transform="translate(40.95 22.216)" opacity="0.4"/>
        <ellipse id="Ellipse_9520" data-name="Ellipse 9520" cx="1.677" cy="1.677" rx="1.677" ry="1.677" transform="translate(1.746 28.148)" opacity="0.4"/>
        <path id="Path_300037" data-name="Path 300037" d="M234.657,231.177v.239h-.96v-.194l.49-.464c.114-.108.134-.174.134-.234a.191.191,0,0,0-.205-.159.31.31,0,0,0-.262.128l-.214-.14a.592.592,0,0,1,.5-.236c.285,0,.473.145.473.376a.5.5,0,0,1-.214.4l-.285.285Z" transform="translate(-230.749 -200.944)" fill="#fff"/>
        <rect id="Rectangle_23163" data-name="Rectangle 23163" width="45.273" height="0.852" rx="0.426" transform="translate(6.354 28.208)" opacity="0.4"/>
        <rect id="Rectangle_23164" data-name="Rectangle 23164" width="9.13" height="0.852" rx="0.426" transform="translate(6.354 30.418)" opacity="0.4"/>
        <circle id="Ellipse_9521" data-name="Ellipse 9521" cx="0.777" cy="0.777" r="0.777" transform="translate(6.356 33.85)" opacity="0.2"/>
        <circle id="Ellipse_9522" data-name="Ellipse 9522" cx="0.538" cy="0.538" r="0.538" transform="translate(6.596 34.089)" fill="#fff"/>
        <rect id="Rectangle_23165" data-name="Rectangle 23165" width="8.185" height="0.852" rx="0.426" transform="translate(9.35 34.203)" opacity="0.4"/>
        <circle id="Ellipse_9523" data-name="Ellipse 9523" cx="0.777" cy="0.777" r="0.777" transform="translate(22.154 33.833)" opacity="0.2"/>
        <circle id="Ellipse_9524" data-name="Ellipse 9524" cx="0.538" cy="0.538" r="0.538" transform="translate(22.393 34.072)" fill="#fff"/>
        <rect id="Rectangle_23166" data-name="Rectangle 23166" width="8.188" height="0.852" rx="0.426" transform="translate(25.15 34.183)" opacity="0.4"/>
        <path id="Path_300038" data-name="Path 300038" d="M358.315,247.2a.777.777,0,1,1-.777-.777.777.777,0,0,1,.777.777Z" transform="translate(-318.806 -212.604)" opacity="0.2"/>
        <path id="Path_300039" data-name="Path 300039" d="M358.677,247.8a.538.538,0,1,1-.538-.538A.538.538,0,0,1,358.677,247.8Z" transform="translate(-319.407 -213.205)" fill="#0c8bfd"/>
        <rect id="Rectangle_23167" data-name="Rectangle 23167" width="8.185" height="0.852" rx="0.426" transform="translate(40.95 34.166)" opacity="0.4"/>
        <path id="Path_300040" data-name="Path 300040" d="M231.3,273.135a1.677,1.677,0,1,1,1.677-1.677,1.677,1.677,0,0,1-1.677,1.677Z" transform="translate(-227.874 -229.312)" opacity="0.4"/>
        <path id="Path_300041" data-name="Path 300041" d="M234.631,274.311c0,.214-.165.41-.527.41a.854.854,0,0,1-.484-.137l.114-.225a.626.626,0,0,0,.362.114c.148,0,.239-.06.239-.162s-.071-.157-.239-.157h-.134v-.194l.262-.285h-.541v-.236h.9v.191l-.285.327a.359.359,0,0,1,.333.353Z" transform="translate(-230.735 -231.929)" fill="#fff"/>
        <rect id="Rectangle_23168" data-name="Rectangle 23168" width="45.273" height="0.852" rx="0.426" transform="translate(6.354 40.517)" opacity="0.4"/>
        <rect id="Rectangle_23169" data-name="Rectangle 23169" width="45.273" height="0.852" rx="0.426" transform="translate(6.354 42.727)" opacity="0.4"/>
        <rect id="Rectangle_23170" data-name="Rectangle 23170" width="23.002" height="0.852" rx="0.426" transform="translate(6.354 44.94)" opacity="0.4"/>
        <rect id="Rectangle_23171" data-name="Rectangle 23171" width="1.555" height="1.555" rx="0.4" transform="translate(22.154 48.46)" opacity="0.4"/>
        <rect id="Rectangle_23172" data-name="Rectangle 23172" width="1.182" height="1.182" transform="translate(23.524 48.648) rotate(90)" fill="#fff"/>
        <rect id="Rectangle_23173" data-name="Rectangle 23173" width="8.188" height="0.852" rx="0.426" transform="translate(25.15 48.813)" opacity="0.4"/>
        <path id="Path_300042" data-name="Path 300042" d="M302.9,300.045a.065.065,0,0,1-.048-.02l-.285-.268a.074.074,0,0,1,0-.1.071.071,0,0,1,.1,0l.242.219.413-.49a.072.072,0,0,1,.111.091l-.476.544a.08.08,0,0,1-.048.026Z" transform="translate(-280.033 -250.466)" fill="#0c8bfd"/>
        <rect id="Rectangle_23174" data-name="Rectangle 23174" width="1.555" height="1.555" rx="0.4" transform="translate(37.954 48.442)" opacity="0.4"/>
        <rect id="Rectangle_23175" data-name="Rectangle 23175" width="1.182" height="1.182" transform="translate(39.321 48.63) rotate(90)" fill="#fff"/>
        <rect id="Rectangle_23176" data-name="Rectangle 23176" width="8.185" height="0.852" rx="0.426" transform="translate(40.95 48.793)" opacity="0.4"/>
        <path id="Path_300043" data-name="Path 300043" d="M358.358,299.964a.08.08,0,0,1-.048-.02l-.285-.271a.071.071,0,1,1,.1-.1l.239.219.416-.49a.071.071,0,1,1,.108.091l-.461.547a.089.089,0,0,1-.051.026Z" transform="translate(-319.689 -250.402)" fill="#0c8bfd"/>
        <rect id="Rectangle_23177" data-name="Rectangle 23177" width="1.555" height="1.555" rx="0.4" transform="translate(6.354 48.477)" opacity="0.4"/>
        <rect id="Rectangle_23178" data-name="Rectangle 23178" width="1.182" height="1.182" transform="translate(7.723 48.665) rotate(90)" fill="#fff"/>
        <rect id="Rectangle_23179" data-name="Rectangle 23179" width="8.185" height="0.852" rx="0.426" transform="translate(9.35 48.83)" opacity="0.4"/>
        <circle id="Ellipse_9525" data-name="Ellipse 9525" cx="2.258" cy="2.258" r="2.258" transform="translate(45.73 7.976) rotate(-45)" fill="#fff"/>
        <path id="Path_300054" data-name="Path 300054" d="M397.293,148.975l-1.993,1.054V147.77a2.258,2.258,0,0,1,1.993,1.2Z" transform="translate(-346.371 -142.049)" opacity="0.2"/>
      </g>
      <g id="freepik--Plant--inject-2" transform="translate(101.444 127.924)">
        <path id="Path_300055" data-name="Path 300055" d="M376.227,348.04s1.23-5.818-1.011-8.968,2.025-.037,2.518,2.913c0,0,.735-5.274-1.441-8.982s1.894-.666,2.241,3.158c0,0,.666-4.7-.333-7.35s.738-.943,1.407.715-.208,5.761-.208,5.761,1.743-7.59,3.395-6.986-2.469,5.576-3.039,8.162c0,0,1.945-3.48,3.417-2.754s-2.278,1.085-4.01,6.265l-.6,2.432s1.791-3.435,2.962-2.349-3.472,2.953-4.557,8.159Z" transform="translate(-369.341 -322.775)" fill="#263238"/>
        <path id="Path_300056" data-name="Path 300056" d="M369.753,336.678s.256-7.333,3.882-10.437-2.415-.646-3.882,2.74c0,0,.689-6.536,4.4-10.332s-2.07-1.358-3.622,3.116c0,0,.6-5.832,2.589-8.7s-.6-1.353-1.9.433-1.467,6.949-1.467,6.949.171-9.609-1.994-9.375,1.293,7.4,1.208,10.68c0,0-1.3-4.747-3.278-4.32s2.415,1.994,2.933,8.709v3.1s-1.122-4.648-2.848-3.7,3.278,4.574,3.019,11.13Z" transform="translate(-362.624 -311.065)" fill="#263238"/>
        <path id="Path_300057" data-name="Path 300057" d="M369.753,336.678s.256-7.333,3.882-10.437-2.415-.646-3.882,2.74c0,0,.689-6.536,4.4-10.332s-2.07-1.358-3.622,3.116c0,0,.6-5.832,2.589-8.7s-.6-1.353-1.9.433-1.467,6.949-1.467,6.949.171-9.609-1.994-9.375,1.293,7.4,1.208,10.68c0,0-1.3-4.747-3.278-4.32s2.415,1.994,2.933,8.709v3.1s-1.122-4.648-2.848-3.7,3.278,4.574,3.019,11.13Z" transform="translate(-362.624 -311.065)" fill="#fff" opacity="0.2"/>
        <path id="Path_300058" data-name="Path 300058" d="M3.13,0H7.521a3.133,3.133,0,0,1,3.133,3.133v.59H0v-.59A3.133,3.133,0,0,1,3.13,0Z" transform="translate(12.047 30.764) rotate(180)" fill="#0c8bfd"/>
        <rect id="Rectangle_23180" data-name="Rectangle 23180" width="13.442" height="3.332" rx="1.666" transform="translate(13.442 28.224) rotate(180)" fill="#0c8bfd"/>
        <rect id="Rectangle_23181" data-name="Rectangle 23181" width="13.442" height="3.332" rx="1.666" transform="translate(13.442 28.224) rotate(180)" fill="#fff" opacity="0.2"/>
      </g>
      <g id="freepik--Table--inject-2" transform="translate(31.312 109.671)">
        <path id="Path_300059" data-name="Path 300059" d="M171.581,255.941a.515.515,0,0,0,.513.738h13.488a1.165,1.165,0,0,0,1.028-.738l2.848-8.23a.686.686,0,0,0,.043-.239.5.5,0,0,0-.555-.5H175.465a1.165,1.165,0,0,0-1.028.738Z" transform="translate(-153.992 -246.971)" fill="#263238"/>
        <path id="Path_300060" data-name="Path 300060" d="M186.852,257.31a.57.57,0,0,0,.5-.362l2.848-8.23a.285.285,0,0,0,.017-.1c0-.114-.083-.185-.214-.185H176.534a.57.57,0,0,0-.5.362l-2.848,8.23a.225.225,0,0,0,.014.208.208.208,0,0,0,.182.08Z" transform="translate(-155.161 -248.014)" fill="#0c8bfd"/>
        <path id="Path_300061" data-name="Path 300061" d="M186.852,257.31a.57.57,0,0,0,.5-.362l2.848-8.23a.285.285,0,0,0,.017-.1c0-.114-.083-.185-.214-.185H176.534a.57.57,0,0,0-.5.362l-2.848,8.23a.225.225,0,0,0,.014.208.208.208,0,0,0,.182.08Z" transform="translate(-155.161 -248.014)" fill="#fff" opacity="0.8"/>
        <path id="Path_300062" data-name="Path 300062" d="M151.44,278.92v.379l2.671.686H171.15a.476.476,0,0,0,.476-.476v-.589Z" transform="translate(-139.624 -269.821)" fill="#263238"/>
        <path id="Path_300063" data-name="Path 300063" d="M165.7,278.92v.379l2.674.686H154.111l-2.671-.686v-.379Z" transform="translate(-139.624 -269.821)" fill="#fff" opacity="0.2"/>
        <g id="Group_76121" data-name="Group 76121" transform="translate(20.562 0.863)" opacity="0.2">
          <path id="Path_300064" data-name="Path 300064" d="M195.783,251.487H182.15l.53-1.487h13.633Z" transform="translate(-182.15 -250)" fill="#0c8bfd"/>
        </g>
        <g id="Group_76122" data-name="Group 76122" transform="translate(19.828 4.115)" opacity="0.1">
          <path id="Path_300065" data-name="Path 300065" d="M193.257,261.568H179.624c-.04,0-.06-.031-.046-.074a.117.117,0,0,1,.1-.074h13.636c.037,0,.057.034.043.074a.108.108,0,0,1-.1.074Z" transform="translate(-179.574 -261.42)"/>
        </g>
        <g id="Group_76123" data-name="Group 76123" transform="translate(19.082 6.202)" opacity="0.1">
          <path id="Path_300066" data-name="Path 300066" d="M190.637,268.9H177c-.04,0-.06-.034-.046-.074a.117.117,0,0,1,.1-.074h13.633c.04,0,.06.031.046.074A.117.117,0,0,1,190.637,268.9Z" transform="translate(-176.954 -268.75)"/>
        </g>
        <g id="Group_76124" data-name="Group 76124" transform="translate(18.339 8.287)" opacity="0.1">
          <path id="Path_300067" data-name="Path 300067" d="M188.027,276.221H174.394c-.04,0-.06-.034-.046-.074a.111.111,0,0,1,.1-.077h13.633c.04,0,.06.034.046.077A.114.114,0,0,1,188.027,276.221Z" transform="translate(-174.344 -276.07)"/>
        </g>
        <path id="Path_300068" data-name="Path 300068" d="M206.47,325.678h1.484l2.668-37.148h-1.971Z" transform="translate(-178.982 -276.694)" fill="#263238"/>
        <path id="Path_300069" data-name="Path 300069" d="M206.46,325.828h1.487l2.537-35.3.131-1.786h-1.971l-.105,1.786Z" transform="translate(-178.975 -276.845)" fill="#fff" opacity="0.2"/>
        <path id="Path_300070" data-name="Path 300070" d="M213.76,290.437h1.945l.131-1.7h-1.971Z" transform="translate(-184.196 -276.845)" opacity="0.2"/>
        <path id="Path_300071" data-name="Path 300071" d="M167.592,325.678h1.484l.242-37.148H167.35Z" transform="translate(-151.003 -276.694)" fill="#263238"/>
        <path id="Path_300072" data-name="Path 300072" d="M167.34,288.74l.04,5.992.2,31.1h1.487l.205-31.1.037-5.992Z" transform="translate(-150.996 -276.845)" fill="#fff" opacity="0.3"/>
        <path id="Path_300073" data-name="Path 300073" d="M167.34,288.74l.04,6.06h1.894l.037-6.06Z" transform="translate(-150.996 -276.845)" opacity="0.2"/>
        <path id="Path_300074" data-name="Path 300074" d="M112.84,325.678h1.484l2.668-37.148h-1.971Z" transform="translate(-112.017 -276.694)" fill="#263238"/>
        <path id="Path_300075" data-name="Path 300075" d="M112.84,325.828h1.484l2.54-35.3.128-1.786h-1.971l-.105,1.786Z" transform="translate(-112.017 -276.845)" fill="#fff" opacity="0.3"/>
        <path id="Path_300076" data-name="Path 300076" d="M120.13,290.437h1.948l.128-1.7h-1.971Z" transform="translate(-117.231 -276.845)" opacity="0.2"/>
        <path id="Path_300077" data-name="Path 300077" d="M259.418,325.678H260.9l-2.181-37.148H256.75Z" transform="translate(-214.943 -276.694)" fill="#263238"/>
        <path id="Path_300078" data-name="Path 300078" d="M256.75,288.74l.131,1.786,2.537,35.3H260.9l-2.076-35.3-.105-1.786Z" transform="translate(-214.943 -276.845)" fill="#fff" opacity="0.3"/>
        <path id="Path_300079" data-name="Path 300079" d="M258.721,288.74H256.75l.131,1.7h1.945Z" transform="translate(-214.943 -276.845)" opacity="0.2"/>
        <path id="Path_300080" data-name="Path 300080" d="M.621,0H43.288A.615.615,0,0,1,43.9.615V1.86H0V.615A.615.615,0,0,1,.621,0Z" transform="translate(45.344 12.767) rotate(180)" fill="#0c8bfd"/>
        <rect id="Rectangle_23182" data-name="Rectangle 23182" width="43.894" height="0.931" transform="translate(45.338 11.836) rotate(180)" opacity="0.2"/>
        <path id="Path_300081" data-name="Path 300081" d="M110.474,283.478h45.734a.524.524,0,0,0,.524-.524h0a.524.524,0,0,0-.524-.524H110.474a.524.524,0,0,0-.524.524h0A.524.524,0,0,0,110.474,283.478Z" transform="translate(-109.95 -272.332)" fill="#0c8bfd"/>
        <path id="Path_300082" data-name="Path 300082" d="M240.472,274.46a2.993,2.993,0,0,1-.242,1.319H229.81v-.248h.211v-2.153h-.211v-.248h10.42A3.076,3.076,0,0,1,240.472,274.46Z" transform="translate(-195.675 -265.68)" fill="#263238"/>
        <path id="Path_300083" data-name="Path 300083" d="M240.472,274.46a2.993,2.993,0,0,1-.242,1.319H229.81v-.248h.211v-2.153h-.211v-.248h10.42A3.076,3.076,0,0,1,240.472,274.46Z" transform="translate(-195.675 -265.68)" fill="#fff" opacity="0.2"/>
        <path id="Path_300084" data-name="Path 300084" d="M234.9,274.46a2.994,2.994,0,0,1-.242,1.319H229.82v-.248h.211v-2.153h-.211v-.248h4.841A3.075,3.075,0,0,1,234.9,274.46Z" transform="translate(-195.682 -265.68)" opacity="0.2"/>
        <path id="Path_300085" data-name="Path 300085" d="M234.913,275.082a2.427,2.427,0,0,1-.2,1.071H230.55V274h4.166A2.512,2.512,0,0,1,234.913,275.082Z" transform="translate(-196.205 -266.302)" fill="#fff" opacity="0.8"/>
        <path id="Path_300086" data-name="Path 300086" d="M255.811,274.481a2.993,2.993,0,0,1-.242,1.319H253.63a2.994,2.994,0,0,0,.242-1.319,3.076,3.076,0,0,0-.242-1.321h1.939A3.076,3.076,0,0,1,255.811,274.481Z" transform="translate(-212.712 -265.702)" fill="#fff" opacity="0.6"/>
        <path id="Path_300087" data-name="Path 300087" d="M243.732,265.211a2.993,2.993,0,0,1-.242,1.319H233.07v-.248h.211v-2.144h-.211v-.248h10.42a3.093,3.093,0,0,1,.242,1.321Z" transform="translate(-198.007 -259.072)" fill="#0c8bfd"/>
        <path id="Path_300088" data-name="Path 300088" d="M238.163,265.211a2.993,2.993,0,0,1-.242,1.319H233.08v-.248h.211v-2.144h-.211v-.248h4.841a3.093,3.093,0,0,1,.242,1.321Z" transform="translate(-198.014 -259.072)" opacity="0.2"/>
        <path id="Path_300089" data-name="Path 300089" d="M238.173,265.834a2.427,2.427,0,0,1-.2,1.071H233.81V264.76h4.166A2.512,2.512,0,0,1,238.173,265.834Z" transform="translate(-198.536 -259.694)" fill="#fff" opacity="0.8"/>
        <path id="Path_300090" data-name="Path 300090" d="M259.071,265.211a2.993,2.993,0,0,1-.242,1.319H256.89a2.993,2.993,0,0,0,.242-1.319,3.093,3.093,0,0,0-.242-1.321h1.939A3.092,3.092,0,0,1,259.071,265.211Z" transform="translate(-215.043 -259.072)" opacity="0.2"/>
      </g>
      <g id="freepik--Character--inject-2" transform="translate(19.901 96.991)">
        <g id="freepik--group--inject-2" transform="translate(10.494)">
          <path id="Path_300091" data-name="Path 300091" d="M139.99,396.67l-.917,4.243-2.173-.037.908-4.206Z" transform="translate(-128.307 -341.357)" fill="#ebb376"/>
          <path id="Path_300092" data-name="Path 300092" d="M141.209,396.67l-.456,2.1-2.153-.145.424-1.954Z" transform="translate(-129.523 -341.357)" opacity="0.2"/>
          <path id="Path_300093" data-name="Path 300093" d="M145.659,408.832h.046a.378.378,0,0,1,.054.023h0a.02.02,0,0,0,.017,0,2.564,2.564,0,0,0,.57.114.569.569,0,0,0,.413-.083.265.265,0,0,0,.08-.285.2.2,0,0,0-.108-.154.906.906,0,0,0-.6.111.766.766,0,0,0,.214-.5.2.2,0,0,0-.182-.165.313.313,0,0,0-.242.057c-.228.2-.265.812-.265.854Zm.234-.125-.043.026a1.073,1.073,0,0,1,.182-.664.145.145,0,0,1,.111-.04h.026a.078.078,0,0,1,.088.08A1.014,1.014,0,0,1,145.892,408.706Zm.031.108c.262-.145.635-.3.775-.239a.094.094,0,0,1,.051.074.191.191,0,0,1-.048.179C146.6,408.92,146.319,408.914,145.923,408.815Z" transform="translate(-134.566 -349.384)" fill="#0c8bfd"/>
          <path id="Path_300094" data-name="Path 300094" d="M138.354,409.878l-2.435-.151a.154.154,0,0,0-.171.137h0l-.239,1.922a.387.387,0,0,0,.356.407c.854.037,1.259.014,2.33.071a20.437,20.437,0,0,0,2.865.1c.908-.088.8-.985.4-1.028a6,6,0,0,1-2.743-1.307A.618.618,0,0,0,138.354,409.878Z" transform="translate(-127.312 -350.695)" fill="#263238"/>
          <path id="Path_300095" data-name="Path 300095" d="M184.653,396.67l-.917,4.243-2.176-.037.911-4.206Z" transform="translate(-160.249 -341.357)" fill="#ebb376"/>
          <path id="Path_300096" data-name="Path 300096" d="M185.869,396.67l-.456,2.1-2.153-.145.424-1.954Z" transform="translate(-161.465 -341.357)" opacity="0.2"/>
          <path id="Path_300097" data-name="Path 300097" d="M190.326,408.832h.046a.589.589,0,0,1,.057.023h0a.02.02,0,0,0,.017,0,2.6,2.6,0,0,0,.57.114.569.569,0,0,0,.416-.083.265.265,0,0,0,.077-.285.191.191,0,0,0-.108-.154.906.906,0,0,0-.6.111.786.786,0,0,0,.216-.5.208.208,0,0,0-.185-.165.316.316,0,0,0-.242.057c-.228.2-.265.812-.265.854Zm.234-.125-.043.026a1.094,1.094,0,0,1,.182-.664.148.148,0,0,1,.111-.04h.026a.082.082,0,0,1,.091.08,1.037,1.037,0,0,1-.367.6Zm.031.108c.262-.145.635-.3.775-.239a.094.094,0,0,1,.051.074.191.191,0,0,1-.046.179C191.26,408.921,190.975,408.915,190.591,408.815Z" transform="translate(-166.514 -349.384)" fill="#0c8bfd"/>
          <path id="Path_300098" data-name="Path 300098" d="M183.014,409.878l-2.435-.151a.154.154,0,0,0-.171.137h0l-.239,1.922a.387.387,0,0,0,.356.407c.854.037,1.259.014,2.33.071a20.437,20.437,0,0,0,2.862.094c.908-.088.8-.985.407-1.028a5.969,5.969,0,0,1-2.743-1.307A.618.618,0,0,0,183.014,409.878Z" transform="translate(-159.253 -350.695)" fill="#263238"/>
          <path id="Path_300099" data-name="Path 300099" d="M136.729,324.518a68.093,68.093,0,0,1-3.167,9.358l-3.97-.3a96.73,96.73,0,0,0,2.219-12.189c.365-3.6.333-6.573-.721-6.8a24.847,24.847,0,0,0-4.2-.1v-7.4c5.576,1.139,11.124,3.3,11.545,5.035C139.025,314.556,137.994,319.716,136.729,324.518Z" transform="translate(-121.148 -277.281)" fill="#0c8bfd"/>
          <path id="Path_300100" data-name="Path 300100" d="M136.729,324.518a68.093,68.093,0,0,1-3.167,9.358l-3.97-.3a96.73,96.73,0,0,0,2.219-12.189c.365-3.6.333-6.573-.721-6.8a24.847,24.847,0,0,0-4.2-.1v-7.4c5.576,1.139,11.124,3.3,11.545,5.035C139.025,314.556,137.994,319.716,136.729,324.518Z" transform="translate(-121.148 -277.281)" fill="#fff" opacity="0.4"/>
          <path id="Path_300101" data-name="Path 300101" d="M136.729,324.518c-1.481-.94-3.215-2.042-4.918-3.133.365-3.6.333-6.573-.721-6.8a24.847,24.847,0,0,0-4.2-.1v-7.4c5.576,1.139,11.124,3.3,11.545,5.035C139.025,314.556,137.994,319.716,136.729,324.518Z" transform="translate(-121.148 -277.281)" opacity="0.2"/>
          <path id="Path_300102" data-name="Path 300102" d="M120.14,292.772l.35-2.811-11.363-1.871s-3.716,7.379-1.9,10.973c1.666,3.309,19.425,1.339,22.159,1.934s-1.509,18.993-1.509,18.993l3.987.3s6.134-16.552,4.873-21.758C136.185,296.266,126.821,293.259,120.14,292.772Z" transform="translate(-106.728 -263.699)" fill="#0c8bfd"/>
          <path id="Path_300103" data-name="Path 300103" d="M120.14,292.772l.35-2.811-11.363-1.871s-3.716,7.379-1.9,10.973c1.666,3.309,19.425,1.339,22.159,1.934s-1.509,18.993-1.509,18.993l3.987.3s6.134-16.552,4.873-21.758C136.185,296.266,126.821,293.259,120.14,292.772Z" transform="translate(-106.728 -263.699)" fill="#fff" opacity="0.6"/>
          <path id="Path_300104" data-name="Path 300104" d="M175.6,223.7c-.1.168-.085.359.026.421s.285-.023.373-.194.085-.356-.023-.421S175.71,223.539,175.6,223.7Z" transform="translate(-155.943 -217.495)" fill="#263238"/>
          <path id="Path_300105" data-name="Path 300105" d="M174.977,220.284a.139.139,0,0,1-.057-.051.12.12,0,0,1,.06-.151,1.139,1.139,0,0,1,1.045.051.114.114,0,0,1,.037.154h0a.117.117,0,0,1-.159.031h0a.9.9,0,0,0-.823-.031A.114.114,0,0,1,174.977,220.284Z" transform="translate(-155.494 -214.985)" fill="#263238"/>
          <path id="Path_300106" data-name="Path 300106" d="M174.027,223.48a7.04,7.04,0,0,0-.02,1.911,1.139,1.139,0,0,1-.9-.313Z" transform="translate(-154.205 -217.489)" fill="#de5753"/>
          <path id="Path_300107" data-name="Path 300107" d="M159.869,214.1c-.068.083-.137.162-.211.236a2.947,2.947,0,0,1-1.544.854,3.082,3.082,0,0,1-.453.06,2.694,2.694,0,0,1-2.153-.854,2.723,2.723,0,0,1-.555-.923c-.53-1.424,0-2.563.772-4.531a2.9,2.9,0,0,1,4.841-.988C162.11,209.571,161.079,212.558,159.869,214.1Z" transform="translate(-141.067 -205.733)" fill="#e4897b"/>
          <path id="Path_300108" data-name="Path 300108" d="M160.046,232.4a3.084,3.084,0,0,1-.453.06,2.694,2.694,0,0,1-2.153-.854,3.2,3.2,0,0,1,.641-.5A4.2,4.2,0,0,1,160.046,232.4Z" transform="translate(-142.998 -222.947)" opacity="0.2"/>
          <path id="Path_300109" data-name="Path 300109" d="M144.06,223.337c.194,1.4,3.241,1.917,3.241,1.917s1.5.684,1.566.088a1.77,1.77,0,0,1-.476-1.9,2.711,2.711,0,0,1,.612-.886,5.566,5.566,0,0,1,.444-.41l-.931-3.816C147.848,219.78,145.558,223.132,144.06,223.337Z" transform="translate(-133.428 -213.806)" fill="#e4897b"/>
          <path id="Path_300110" data-name="Path 300110" d="M157.388,203.577s.652-.083,1.139,1.139c.421,1.022-.57,1.245-.527,2.332a2.048,2.048,0,0,1-.948,1.689s-.837.721-1.546.33a2.481,2.481,0,0,0-1.173,1.25c-.245.795-1.683-.641-2.979-.421a3.738,3.738,0,0,1-.812-2.808,6.912,6.912,0,0,1,.624-2.495,3.389,3.389,0,0,1,1.86-1.845C154.518,202.082,157.112,202.583,157.388,203.577Z" transform="translate(-138.062 -202.445)" fill="#263238"/>
          <path id="Path_300111" data-name="Path 300111" d="M167.307,221a1.367,1.367,0,0,0,.256,1.139c.316.345.823-.094,1.031-.7.177-.538.239-1.381-.225-1.475S167.407,220.416,167.307,221Z" transform="translate(-150.032 -214.967)" fill="#e4897b"/>
          <path id="Path_300112" data-name="Path 300112" d="M146.443,234.169a5.8,5.8,0,0,0-2.982-1.39,2.176,2.176,0,0,0-2.3,1.39l5.109,1.034Z" transform="translate(-131.354 -224.128)" fill="#0c8bfd"/>
          <path id="Path_300113" data-name="Path 300113" d="M156.66,275.475l2.082.31a8.114,8.114,0,0,1,1.452-.31,9.532,9.532,0,0,1,1.609,0,1.463,1.463,0,0,1,.934,1.264s-2.2.59-3.042.236l-3.036-.236Z" transform="translate(-142.44 -254.652)" fill="#e4897b"/>
          <path id="Path_300114" data-name="Path 300114" d="M156.66,275.475l2.082.31a8.114,8.114,0,0,1,1.452-.31,9.532,9.532,0,0,1,1.609,0,1.463,1.463,0,0,1,.934,1.264s-2.2.59-3.042.236l-3.036-.236Z" transform="translate(-142.44 -254.652)" opacity="0.2"/>
          <path id="Path_300115" data-name="Path 300115" d="M129.4,236.688q-.635,1.777-1.139,3.417-.325,1.017-.592,1.994c-.154.538-.285,1.059-.424,1.566-.063.242-.125.484-.185.723-.328,1.31-.592,2.509-.8,3.563a47.2,47.2,0,0,0-.769,5.021l-11.676-1.461c.4-2.008.721-3.759,1.162-5.65.242-1.037.521-2.113.877-3.295.251-.854.541-1.751.889-2.731,1.17-3.363,2.253-4.295,2.253-4.295C123.473,234.8,129.4,236.688,129.4,236.688Z" transform="translate(-111.793 -225.993)" fill="#0c8bfd"/>
          <path id="Path_300116" data-name="Path 300116" d="M182.18,276.238l2.082.313a7.975,7.975,0,0,1,1.452-.313,9.89,9.89,0,0,1,1.609,0,1.463,1.463,0,0,1,.943,1.256s-2.2.59-3.044.236l-3.042-.236Z" transform="translate(-160.692 -255.199)" fill="#e4897b"/>
          <path id="Path_300117" data-name="Path 300117" d="M134.9,395.8l4.727.313.695-2.042-5.209-.245Z" transform="translate(-126.877 -339.326)" fill="#0c8bfd"/>
          <path id="Path_300118" data-name="Path 300118" d="M134.9,395.8l4.727.313.695-2.042-5.209-.245Z" transform="translate(-126.877 -339.326)" fill="#fff" opacity="0.2"/>
          <path id="Path_300119" data-name="Path 300119" d="M179.56,395.8l4.727.313.695-2.042-5.209-.245Z" transform="translate(-158.818 -339.326)" fill="#0c8bfd"/>
          <path id="Path_300120" data-name="Path 300120" d="M179.56,395.8l4.727.313.695-2.042-5.209-.245Z" transform="translate(-158.818 -339.326)" fill="#fff" opacity="0.2"/>
          <path id="Path_300121" data-name="Path 300121" d="M113.68,290.441l5.266.692.171-.777-5.274-.766Z" transform="translate(-111.7 -264.772)"/>
          <path id="Path_300122" data-name="Path 300122" d="M134.146,292.3l-.066.772,4.867.669v-.763Z" transform="translate(-126.291 -266.71)"/>
          <path id="Path_300123" data-name="Path 300123" d="M152.23,294.83v.721l.706.094v-.7Z" transform="translate(-139.272 -268.52)"/>
          <path id="Path_300124" data-name="Path 300124" d="M161.7,249.947q-.325,1.017-.592,1.994c-.154.538-.285,1.059-.424,1.566a11.651,11.651,0,0,1,.285-4.377Z" transform="translate(-145.237 -235.835)" opacity="0.2"/>
          <path id="Path_300125" data-name="Path 300125" d="M163.109,242.36c.951.191,1.444,6.8,1.655,7.672.185.763,4.665,2.312,4.665,2.312v1.074s-4.955-.339-6.12-.817-1.868-7-1.868-7Z" transform="translate(-145.859 -230.993)" fill="#e4897b"/>
          <g id="Group_76125" data-name="Group 76125" transform="translate(2.017 9.376)" opacity="0.2">
            <path id="Path_300126" data-name="Path 300126" d="M129.4,236.688q-.635,1.777-1.139,3.417-.325,1.017-.592,1.994c-.154.538-.285,1.059-.424,1.566-.063.242-.125.484-.185.723-.328,1.31-.592,2.509-.8,3.563a47.2,47.2,0,0,0-.769,5.021l-11.676-1.461c.4-2.008.721-3.759,1.162-5.65.242-1.037.521-2.113.877-3.295.251-.854.541-1.751.889-2.731,1.17-3.363,2.253-4.295,2.253-4.295C123.473,234.8,129.4,236.688,129.4,236.688Z" transform="translate(-113.81 -235.369)" fill="#fff"/>
          </g>
          <path id="Path_300127" data-name="Path 300127" d="M162.218,240c.871.285,1.3,5.981,1.3,5.981l-3.164.419-.655-2.341s.262-1.1.638-2.264A2.374,2.374,0,0,1,162.218,240Z" transform="translate(-144.614 -229.305)" fill="#0c8bfd"/>
        </g>
        <path id="Path_300128" data-name="Path 300128" d="M91.835,413.042a1,1,0,1,0-.292.709A1,1,0,0,0,91.835,413.042Z" transform="translate(-84.148 -352.35)" fill="#263238"/>
        <path id="Path_300129" data-name="Path 300129" d="M91.835,413.042a1,1,0,1,0-.292.709A1,1,0,0,0,91.835,413.042Z" transform="translate(-84.148 -352.35)" fill="#fff" opacity="0.2"/>
        <path id="Path_300130" data-name="Path 300130" d="M176.445,413.042a1,1,0,1,0-.293.71A1,1,0,0,0,176.445,413.042Z" transform="translate(-144.663 -352.35)" fill="#263238"/>
        <path id="Path_300131" data-name="Path 300131" d="M176.445,413.042a1,1,0,1,0-.293.71A1,1,0,0,0,176.445,413.042Z" transform="translate(-144.663 -352.35)" fill="#fff" opacity="0.2"/>
        <path id="Path_300132" data-name="Path 300132" d="M92.592,414.3a.5.5,0,1,0-.145.354A.5.5,0,0,0,92.592,414.3Z" transform="translate(-85.407 -353.609)" fill="#fff" opacity="0.2"/>
        <circle id="Ellipse_9526" data-name="Ellipse 9526" cx="0.501" cy="0.501" r="0.501" transform="translate(30.279 60.191)" fill="#fff" opacity="0.2"/>
        <path id="Path_300133" data-name="Path 300133" d="M106.035,373.1V362.33h-1.657V373.1a22.634,22.634,0,0,0-11.152,2.913.316.316,0,0,0-.145.268v.894a.316.316,0,0,0,.316.316h0a.316.316,0,0,0,.285-.159l.382-.672a36.313,36.313,0,0,1,10.324-1.709v1.771a.41.41,0,0,0,.41.407h.837a.41.41,0,0,0,.41-.407v-1.771a36.313,36.313,0,0,1,10.324,1.709l.382.672a.316.316,0,0,0,.285.159h0a.316.316,0,0,0,.316-.316v-.894a.316.316,0,0,0-.145-.268A22.767,22.767,0,0,0,106.035,373.1Z" transform="translate(-86.473 -316.797)" fill="#263238"/>
        <path id="Path_300134" data-name="Path 300134" d="M106.035,373.1V362.33h-1.657V373.1a22.634,22.634,0,0,0-11.152,2.913.316.316,0,0,0-.145.268v.894a.316.316,0,0,0,.316.316h0a.316.316,0,0,0,.285-.159l.382-.672a36.313,36.313,0,0,1,10.324-1.709v1.771a.41.41,0,0,0,.41.407h.837a.41.41,0,0,0,.41-.407v-1.771a36.313,36.313,0,0,1,10.324,1.709l.382.672a.316.316,0,0,0,.285.159h0a.316.316,0,0,0,.316-.316v-.894a.316.316,0,0,0-.145-.268A22.767,22.767,0,0,0,106.035,373.1Z" transform="translate(-86.473 -316.797)" opacity="0.2"/>
        <rect id="Rectangle_23183" data-name="Rectangle 23183" width="1.088" height="2.002" rx="0.544" transform="translate(18.189 59.693)" fill="#263238"/>
        <rect id="Rectangle_23184" data-name="Rectangle 23184" width="1.088" height="2.002" rx="0.544" transform="translate(18.189 59.693)" fill="#fff" opacity="0.2"/>
        <path id="Path_300135" data-name="Path 300135" d="M91.886,325.11h21.709a2.253,2.253,0,0,1,2.253,2.253v1.361H89.63v-1.367a2.253,2.253,0,0,1,2.256-2.247Z" transform="translate(-84.005 -290.176)" fill="#0c8bfd"/>
        <path id="Path_300136" data-name="Path 300136" d="M122.46,293.689h14.433a1.139,1.139,0,0,1,1.139,1.424l-2.6,11.141h-.6l2.2-9.774a1.153,1.153,0,0,0-1.139-1.407H122.756Z" transform="translate(-107.486 -267.703)" fill="#263238"/>
        <path id="Path_300137" data-name="Path 300137" d="M133.093,339.18V348.6a.55.55,0,0,1-.547.547h-2.31a.544.544,0,0,1-.547-.547V339.18Z" transform="translate(-112.657 -300.24)" fill="#263238"/>
        <rect id="Rectangle_23185" data-name="Rectangle 23185" width="3.406" height="3.913" transform="translate(17.033 38.94)" opacity="0.2"/>
        <path id="Path_300138" data-name="Path 300138" d="M114.824,334.34v1.139a.57.57,0,0,1-.57.57H87.77a.57.57,0,0,1-.57-.57V334.34a.57.57,0,0,1,.57-.57h26.485A.57.57,0,0,1,114.824,334.34Z" transform="translate(-82.267 -296.37)" fill="#263238"/>
        <path id="Path_300139" data-name="Path 300139" d="M90.248,261.654H74.79s-4.91-8.168-4.91-21.664v-4.958a3.7,3.7,0,0,1,3.7-3.7h6.55a3.685,3.685,0,0,1,3.7,3.585C84,241.881,85.028,256.941,90.248,261.654Z" transform="translate(-69.88 -223.104)" fill="#263238"/>
        <path id="Path_300140" data-name="Path 300140" d="M86.869,261.654H75.512a1.176,1.176,0,0,1-1.045-.632c-1.116-2.156-4.557-9.725-4.557-21.032v-4.958a3.7,3.7,0,0,1,3.7-3.7h5.664a3.7,3.7,0,0,1,3.7,3.585c.171,6.211,1.005,18.893,4.9,24.888a1.179,1.179,0,0,1-1.014,1.851Z" transform="translate(-69.901 -223.104)" fill="#fff" opacity="0.2"/>
        <path id="Path_300141" data-name="Path 300141" d="M150.993,334.347v1.139a.57.57,0,0,1-.57.57H138.547a.78.78,0,0,1-.777-.777v-.721a.777.777,0,0,1,.777-.777H150.42A.57.57,0,0,1,150.993,334.347Z" transform="translate(-118.436 -296.377)" opacity="0.2"/>
      </g>
    </g>
  </g>
</svg>
