<svg xmlns="http://www.w3.org/2000/svg" width="77.779" height="74.701" viewBox="0 0 77.779 74.701">
  <g id="Group_76522" data-name="Group 76522" transform="translate(-501 -3203.708)">
    <g id="Verify_Visa_1_" transform="translate(495.749 3197.182)">
      <g id="Verify_Visa" transform="translate(5.251 6.527)">
        <g id="Group_76220" data-name="Group 76220">
          <g id="Group_76219" data-name="Group 76219">
            <g id="Group_76185" data-name="Group 76185" transform="translate(25.526)">
              <path id="Path_300911" data-name="Path 300911" d="M78.608,34.187V64.945l-38.46,6.388a4.816,4.816,0,0,1-5.552-3.97c-.331-1.88-7.981-48.173-8.014-48.295A5.629,5.629,0,0,1,28.12,13.92c2.176-2.406,5.13-1.807,8.7-2.4.505-.075,22.962-3.469,32.356-4.9,5.418-.773,5.365,3.267,6.432,9.477.855,5.2,2.678,16.171,2.97,17.954a.434.434,0,0,1,.03.134Z" transform="translate(-26.418 -6.527)" fill="#f7d78a"/>
            </g>
            <g id="Group_76186" data-name="Group 76186" transform="translate(25.526 4.986)">
              <path id="Path_300912" data-name="Path 300912" d="M78.608,33.335V64.094l-38.46,6.388a4.816,4.816,0,0,1-5.552-3.97c-.331-1.88-7.981-48.173-8.014-48.295a5.629,5.629,0,0,1,1.537-5.149c2.176-2.406,5.13-1.807,8.7-2.4,19.339.018,28.425-.106,38.087.328.045.21-.349-2.311,3.671,22.207a.434.434,0,0,1,.03.134Z" transform="translate(-26.418 -10.662)" fill="#eac471"/>
            </g>
            <g id="Group_76187" data-name="Group 76187" transform="translate(25.173 6.421)">
              <path id="Path_300913" data-name="Path 300913" d="M77.564,71.49c-3.245.48-2.995.255-46.564.3a4.835,4.835,0,0,1-4.746-4.836V21.942c0-3.167-.733-7.587,1.3-9.3,1.343-1.1,3.164-.731,4.746-.731,24.729-.032,34.566-.071,43.519.358,1.575.075,2.82.442,2.7,2.836-.2,3.612.149,9.455.149,13.372V56.79c0,4.283.1,8.522.045,12.82-.032,1.081.241,1.615-1.149,1.88Z" transform="translate(-26.126 -11.852)" fill="#feeeb7"/>
            </g>
            <g id="Group_76188" data-name="Group 76188" transform="translate(25.302 46.672)">
              <path id="Path_300914" data-name="Path 300914" d="M42.545,57.9,30.978,64.916a4.835,4.835,0,0,1-4.746-4.836V47.917l3.253-1.97A4.935,4.935,0,0,1,36.262,47.6l2.044,3.4.03-.015a3.614,3.614,0,0,1,1.9-.537A4.018,4.018,0,0,1,43.769,52.9a3.671,3.671,0,0,1-1.224,5Z" transform="translate(-26.233 -45.229)" fill="#f7d78a"/>
            </g>
            <g id="Group_76189" data-name="Group 76189" transform="translate(30.061 14.597)">
              <path id="Path_300915" data-name="Path 300915" d="M48.376,20.682c-.049,18.657.144,17.908-.2,18.5a2.052,2.052,0,0,1-1.833,1.146c-15.108,0-14.232.013-14.363-.024a2.047,2.047,0,0,1-1.8-2.014V20.682a2.043,2.043,0,0,1,2.062-2.05h14.1a2.023,2.023,0,0,1,2.038,2.05Z" transform="translate(-30.179 -18.632)" fill="#9a99e1"/>
            </g>
            <g id="Group_76192" data-name="Group 76192" transform="translate(31.255 20.728)">
              <g id="Group_76190" data-name="Group 76190" transform="translate(3.443)">
                <ellipse id="Ellipse_9533" data-name="Ellipse 9533" cx="4.652" cy="4.537" rx="4.652" ry="4.537" fill="#f6f3fe"/>
              </g>
              <g id="Group_76191" data-name="Group 76191" transform="translate(0 8.406)">
                <path id="Path_300916" data-name="Path 300916" d="M47.159,37.566a1.933,1.933,0,0,1-1.025.277c-13.779-.09-14.251.188-14.966-.193.17-2.589,1.114-5.432,3.208-6.8a1.027,1.027,0,0,1,1.278.145,5.6,5.6,0,0,0,7.151.108,1.157,1.157,0,0,1,1.254-.084c2.213,1.457,2.95,3.9,3.1,6.548Z" transform="translate(-31.169 -30.687)" fill="#f6f3fe"/>
              </g>
            </g>
            <g id="Group_76199" data-name="Group 76199" transform="translate(52.064 18.906)">
              <g id="Group_76194" data-name="Group 76194">
                <g id="Group_76193" data-name="Group 76193">
                  <path id="Path_300917" data-name="Path 300917" d="M61.3,23.963H49.3a.879.879,0,0,1,0-1.758H61.3a.879.879,0,1,1,0,1.758Z" transform="translate(-48.425 -22.205)" fill="#f8c73b"/>
                </g>
              </g>
              <g id="Group_76196" data-name="Group 76196" transform="translate(0 5.654)">
                <g id="Group_76195" data-name="Group 76195">
                  <path id="Path_300918" data-name="Path 300918" d="M65.139,28.652H49.3a.879.879,0,1,1,0-1.758H65.139a.879.879,0,1,1,0,1.758Z" transform="translate(-48.425 -26.894)" fill="#f8c73b"/>
                </g>
              </g>
              <g id="Group_76198" data-name="Group 76198" transform="translate(0 11.307)">
                <g id="Group_76197" data-name="Group 76197">
                  <path id="Path_300919" data-name="Path 300919" d="M69.452,33.339H49.3a.879.879,0,1,1,0-1.758H69.452a.879.879,0,1,1,0,1.758Z" transform="translate(-48.425 -31.581)" fill="#f8c73b"/>
                </g>
              </g>
            </g>
            <g id="Group_76201" data-name="Group 76201" transform="translate(39.259 40.047)">
              <g id="Group_76200" data-name="Group 76200">
                <path id="Path_300920" data-name="Path 300920" d="M58.369,52.3a.574.574,0,0,0-.134.716l1.03,1.866a.577.577,0,0,1-.373.836l-1.985.448a.572.572,0,0,0-.433.612l.209,2.194a.57.57,0,0,1-.672.612l-2.239-.4a.581.581,0,0,0-.627.343l-.776,1.94a.551.551,0,0,1-.85.239l-1.687-1.239a.561.561,0,0,0-.7.015L47.4,61.928a.555.555,0,0,1-.866-.164l-.94-1.776a.575.575,0,0,0-.672-.269l-1.985.627a.568.568,0,0,1-.732-.522l-.134-2.746-.343-.06-2.149-.433a.561.561,0,0,1-.4-.791l.9-1.91a.559.559,0,0,0-.194-.7l-1.821-1.224a.571.571,0,0,1-.045-.91l1.686-1.4a.552.552,0,0,0,.12-.716l-1.075-1.88a.566.566,0,0,1,.373-.836l2.074-.418a.57.57,0,0,0,.448-.612l-.194-2.164a.553.553,0,0,1,.657-.612l2.134.358a.582.582,0,0,0,.627-.343l1.015-2.567c.015-.06.089-.06.1-.12L48.3,41.6a.567.567,0,0,0,.746-.03l1.522-1.433a.568.568,0,0,1,.9.164l.94,1.925a.55.55,0,0,0,.7.284c.731-.284,1.477-.567,2.209-.836a.455.455,0,0,1,.343,0c.385.172.254,1.586.254,2.776a.576.576,0,0,0,.463.567c.03.005,2.552.463,2.582.463.482,0,.2.356.06.642A18.329,18.329,0,0,0,58,48.153a.567.567,0,0,0,.209.717l1.821,1.149a.552.552,0,0,1,.045.91Z" transform="translate(-37.807 -39.736)" fill="#6dd356"/>
              </g>
            </g>
            <g id="Group_76202" data-name="Group 76202" transform="translate(39.271 51.897)">
              <path id="Path_300921" data-name="Path 300921" d="M41.727,54.995l-2.149-.433a.561.561,0,0,1-.4-.791l.9-1.91a.559.559,0,0,0-.194-.7l-1.821-1.224a.567.567,0,0,1-.239-.373h.03a4.018,4.018,0,0,1,3.537,2.448,3.585,3.585,0,0,1,.343,2.985Z" transform="translate(-37.816 -49.562)" fill="#4aba2f"/>
            </g>
            <g id="Group_76204" data-name="Group 76204" transform="translate(44.948 46.961)">
              <g id="Group_76203" data-name="Group 76203">
                <path id="Path_300922" data-name="Path 300922" d="M47.1,53.969a2.833,2.833,0,0,1-2.082-1.491A13.044,13.044,0,0,0,42.969,50.1,1.359,1.359,0,0,1,44.8,48.085a15.623,15.623,0,0,1,2.444,2.822h0c.2-.287.288-.369,3.964-4.934a1.359,1.359,0,0,1,2.116,1.708c-3.976,4.941-3.706,4.572-3.925,4.889-.59.855-1.221,1.5-2.292,1.4Z" transform="translate(-42.524 -45.469)" fill="#f6f3fe"/>
              </g>
            </g>
            <g id="Group_76205" data-name="Group 76205" transform="translate(5.065 33.626)">
              <path id="Path_300923" data-name="Path 300923" d="M27.942,55.547l-4.313,2.612c-.3-.687-.642-1.373-1-2.03a28.23,28.23,0,0,0-2.522-3.9c-3.312-4.355-5.171-3.809-6.582-4.432a7.008,7.008,0,1,1,9.91-6.85c.147,2.572-.8,2.441-.343,5.059.549,3.115,2.859,7.047,4.85,9.537Z" transform="translate(-9.451 -34.411)" fill="#f56357"/>
            </g>
            <g id="Group_76206" data-name="Group 76206" transform="translate(17.659 51.931)">
              <path id="Path_300924" data-name="Path 300924" d="M19.894,51.961,23.8,49.59q.311.512.657,1l.253-.151c.575.877,1.193,1.74,1.846,2.569L21.4,56.126c-.422-.963-.9-1.905-1.408-2.822l.5-.3c-.187-.348-.383-.7-.591-1.039Z" transform="translate(-19.894 -49.59)" fill="#e11a17"/>
            </g>
            <g id="Group_76207" data-name="Group 76207" transform="translate(9.144 48.112)">
              <path id="Path_300925" data-name="Path 300925" d="M14.489,58.16l6.954-4.2.5-.3,11.106-6.727a3.435,3.435,0,0,1,4.728,1.161L39.784,51.4l1.324,2.19-24.445,14.8L15.34,66.2l-2.012-3.314a3.452,3.452,0,0,1,1.161-4.728Z" transform="translate(-12.833 -46.424)" fill="#6f6ecf"/>
            </g>
            <g id="Group_76208" data-name="Group 76208" transform="translate(11.643 53.067)">
              <path id="Path_300926" data-name="Path 300926" d="M0,0H28.572V2.557H0Z" transform="translate(0 14.8) rotate(-31.209)" fill="#595ab7"/>
            </g>
            <g id="Group_76209" data-name="Group 76209" transform="translate(10.259 53.189)">
              <path id="Path_300927" data-name="Path 300927" d="M44.716,55.259,17.249,71.893a1.748,1.748,0,0,1-2.4-.59l-.836-1.381a1.748,1.748,0,0,1,.59-2.4L42.068,50.887a1.748,1.748,0,0,1,2.4.59l.836,1.381a1.748,1.748,0,0,1-.59,2.4Z" transform="translate(-13.759 -50.634)" fill="#ef9f27"/>
            </g>
            <g id="Group_76211" data-name="Group 76211" transform="translate(19.093 55.399)">
              <g id="Group_76210" data-name="Group 76210">
                <path id="Path_300928" data-name="Path 300928" d="M21.208,56.625a.879.879,0,0,1,.308-1.206l4.764-2.83a.881.881,0,0,1,.9,1.514l-4.768,2.83a.879.879,0,0,1-1.206-.308Z" transform="translate(-21.084 -52.466)" fill="#b3b5e6"/>
              </g>
            </g>
            <g id="Group_76212" data-name="Group 76212" transform="translate(65.3 51.515)" opacity="0.37">
              <path id="Path_300929" data-name="Path 300929" d="M62.69,49.363a4.307,4.307,0,0,1,4.768,2.226,4.593,4.593,0,0,1-.98,5.225,4.513,4.513,0,0,1-4.8.863C58.032,56.054,59.056,50.3,62.69,49.363Z" transform="translate(-59.401 -49.245)" fill="#fff"/>
            </g>
            <g id="Group_76213" data-name="Group 76213" transform="translate(70.273 46.486)" opacity="0.37">
              <path id="Path_300930" data-name="Path 300930" d="M65,45.129a1.938,1.938,0,0,1,2.146,1,2.067,2.067,0,0,1-.441,2.351,2.031,2.031,0,0,1-2.162.389c-1.64-.731-1.179-3.319.457-3.742Z" transform="translate(-63.525 -45.076)" fill="#fff"/>
            </g>
            <g id="Group_76214" data-name="Group 76214" transform="translate(7.923 38.401)">
              <path id="Path_300931" data-name="Path 300931" d="M12.464,42.8a3.486,3.486,0,0,1,.121-4.195.6.6,0,0,1,.954.74,2.3,2.3,0,0,0-.086,2.765.6.6,0,1,1-.989.69Z" transform="translate(-11.821 -38.371)" fill="#fe9f8b"/>
            </g>
            <g id="Group_76215" data-name="Group 76215" transform="translate(1.317 29.067)">
              <path id="Path_300932" data-name="Path 300932" d="M9.541,36.178,6.446,31.571a.6.6,0,1,1,1-.674L10.542,35.5a.6.6,0,0,1-1,.674Z" transform="translate(-6.343 -30.631)" fill="#6dd356"/>
            </g>
            <g id="Group_76216" data-name="Group 76216" transform="translate(0.903 36.024)">
              <path id="Path_300933" data-name="Path 300933" d="M8.249,37.744l-1.7-.141A.6.6,0,0,1,6,36.951a.615.615,0,0,1,.651-.55l1.7.141a.6.6,0,1,1-.1,1.2Z" transform="translate(-6 -36.4)" fill="#6dd356"/>
            </g>
            <g id="Group_76217" data-name="Group 76217" transform="translate(0 39.651)">
              <path id="Path_300934" data-name="Path 300934" d="M5.263,40.705A.6.6,0,0,1,5.736,40l2.886-.577A.6.6,0,0,1,8.858,40.6l-2.886.577a.6.6,0,0,1-.709-.473Z" transform="translate(-5.251 -39.407)" fill="#6dd356"/>
            </g>
            <g id="Group_76218" data-name="Group 76218" transform="translate(12.394 38.142)" opacity="0.37">
              <path id="Path_300935" data-name="Path 300935" d="M15.907,38.965a1.933,1.933,0,0,1,1.4-.8,2.046,2.046,0,0,1,.519,4.057,2.056,2.056,0,0,1-1.92-3.256Z" transform="translate(-15.529 -38.156)" fill="#fff"/>
            </g>
          </g>
        </g>
      </g>
    </g>
  </g>
</svg>
