<svg id="file" xmlns="http://www.w3.org/2000/svg" width="24.4" height="28.466" viewBox="0 0 24.4 28.466">
  <path id="Path_301014" data-name="Path 301014" d="M27.689,31.466H8.711A2.711,2.711,0,0,1,6,28.755V5.711A2.711,2.711,0,0,1,8.711,3H23.154a2.7,2.7,0,0,1,1.858.737l4.534,4.27A2.721,2.721,0,0,1,30.4,9.981V28.755a2.711,2.711,0,0,1-2.711,2.711ZM8.711,4.356A1.356,1.356,0,0,0,7.356,5.711V28.755a1.356,1.356,0,0,0,1.356,1.356H27.689a1.356,1.356,0,0,0,1.356-1.356V9.981a1.36,1.36,0,0,0-.426-.987l-4.534-4.27a1.351,1.351,0,0,0-.929-.369Z" transform="translate(-6 -3)" fill="#0091ff"/>
  <path id="Path_301015" data-name="Path 301015" d="M37.581,9.8H33.033A2.033,2.033,0,0,1,31,7.77V3.758a.678.678,0,1,1,1.356,0V7.77a.678.678,0,0,0,.678.678h4.548a.678.678,0,0,1,0,1.356Z" transform="translate(-14.056 -3.026)" fill="#0091ff"/>
  <path id="Path_301016" data-name="Path 301016" d="M27.944,20.422H11.678A.678.678,0,0,1,11,19.744V17.033A2.033,2.033,0,0,1,13.033,15H26.589a2.033,2.033,0,0,1,2.033,2.033v2.711A.678.678,0,0,1,27.944,20.422ZM12.356,19.067H27.267V17.033a.678.678,0,0,0-.678-.678H13.033a.678.678,0,0,0-.678.678Z" transform="translate(-7.611 -6.867)" fill="#0091ff"/>
  <path id="Path_301017" data-name="Path 301017" d="M27.944,26.422H11.678A.678.678,0,0,1,11,25.744V21.678A.678.678,0,0,1,11.678,21H27.944a.678.678,0,0,1,.678.678v4.067A.678.678,0,0,1,27.944,26.422ZM12.356,25.067H27.267V22.356H12.356Z" transform="translate(-7.611 -8.8)" fill="#0091ff"/>
  <path id="Path_301018" data-name="Path 301018" d="M27.944,32.422H13.033A2.033,2.033,0,0,1,11,30.389V27.678A.678.678,0,0,1,11.678,27H27.944a.678.678,0,0,1,.678.678v4.067A.678.678,0,0,1,27.944,32.422ZM12.356,28.356v2.033a.678.678,0,0,0,.678.678H27.267V28.356Z" transform="translate(-7.611 -10.733)" fill="#0091ff"/>
  <path id="Path_301019" data-name="Path 301019" d="M33.744,28.555H29.678A.678.678,0,0,1,29,27.878v-12.2A.678.678,0,0,1,29.678,15h2.711a2.033,2.033,0,0,1,2.033,2.033V27.878A.678.678,0,0,1,33.744,28.555ZM30.356,27.2h2.711V17.033a.678.678,0,0,0-.678-.678H30.356Z" transform="translate(-13.411 -6.867)" fill="#0091ff"/>
  <path id="Path_301020" data-name="Path 301020" d="M29.167,37.744H21.033A2.033,2.033,0,0,1,19,35.711V33.678A.678.678,0,0,1,19.678,33H30.522a.678.678,0,0,1,.678.678v2.033A2.033,2.033,0,0,1,29.167,37.744Zm-8.811-3.389v1.356a.678.678,0,0,0,.678.678h8.133a.678.678,0,0,0,.678-.678V34.356Z" transform="translate(-10.189 -12.667)" fill="#0091ff"/>
  <path id="Path_301021" data-name="Path 301021" d="M15.744,10.356H11.678a.678.678,0,0,1,0-1.356h4.067a.678.678,0,0,1,0,1.356Z" transform="translate(-7.611 -4.933)" fill="#0091ff"/>
</svg>
