<svg id="gallery" xmlns="http://www.w3.org/2000/svg" width="32.479" height="28.466" viewBox="0 0 32.479 28.466">
  <g id="Group_76367" data-name="Group 76367" transform="translate(0 0)">
    <g id="Group_76366" data-name="Group 76366" transform="translate(0 0)">
      <path id="Path_301022" data-name="Path 301022" d="M177.3,159.668a3.313,3.313,0,1,0,3.313,3.313A3.313,3.313,0,0,0,177.3,159.668Zm0,5.048a1.735,1.735,0,1,1,0-3.471h0a1.735,1.735,0,0,1,0,3.471Z" transform="translate(-160.854 -149.621)" fill="#0091ff"/>
      <path id="Path_301023" data-name="Path 301023" d="M29.66,29.05,8.126,26.605a2.958,2.958,0,0,0-2.327.671,3,3,0,0,0-1.144,2.051l-.394,3.234H3.038A3.169,3.169,0,0,0,0,35.834V51.965a3,3,0,0,0,2.917,3.076H24.691A3.237,3.237,0,0,0,28,51.965v-.631a3.944,3.944,0,0,0,1.5-.631,3.274,3.274,0,0,0,1.144-2.13l1.814-16.013A3.2,3.2,0,0,0,29.66,29.05ZM26.426,51.965a1.661,1.661,0,0,1-1.735,1.5H3.038a1.42,1.42,0,0,1-1.461-1.378q0-.061,0-.121V49.047l6.113-4.5a1.893,1.893,0,0,1,2.445.118l4.3,3.786a3.708,3.708,0,0,0,2.327.868,3.589,3.589,0,0,0,1.893-.513l7.77-4.5v7.651Zm0-9.505-8.6,5.009a2.011,2.011,0,0,1-2.327-.2l-4.338-3.826a3.51,3.51,0,0,0-4.378-.158L1.579,47.075V35.834a1.592,1.592,0,0,1,1.459-1.7H24.691a1.814,1.814,0,0,1,1.735,1.7V42.46Zm4.458-10.113,0,.016L29.029,48.376a1.341,1.341,0,0,1-.513,1.065c-.158.158-.513.237-.513.316V35.834a3.392,3.392,0,0,0-3.313-3.274H5.838l.355-3.076a1.814,1.814,0,0,1,.592-1.025,1.814,1.814,0,0,1,1.183-.316l21.5,2.485A1.578,1.578,0,0,1,30.884,32.348Z" transform="translate(0 -26.576)" fill="#0091ff"/>
    </g>
  </g>
</svg>
