<svg xmlns="http://www.w3.org/2000/svg" width="36.427" height="36.426" viewBox="0 0 36.427 36.426">
  <g id="Registration" opacity="0.28">
    <path id="Path_301131" data-name="Path 301131" d="M21.009,14.18a1.1,1.1,0,0,0-1.1-1.1H12.061a1.1,1.1,0,1,0,0,2.2h7.847A1.1,1.1,0,0,0,21.009,14.18Z" transform="translate(1.092 1.563)" fill="#0091ff"/>
    <path id="Path_301132" data-name="Path 301132" d="M12.061,16.877a1.1,1.1,0,1,0,0,2.2h5.372a1.1,1.1,0,1,0,0-2.2Z" transform="translate(1.092 2.408)" fill="#0091ff"/>
    <path id="Path_301133" data-name="Path 301133" d="M35.61,29.042H32.661V18.814a1.1,1.1,0,0,0-2.2,0V29.042h-16a1.715,1.715,0,0,0-1.712,1.711v1.681a2.008,2.008,0,0,1-.963,1.733,1.792,1.792,0,0,1-2.058-.254,1.807,1.807,0,0,1-.594-1.348V9.335A4.3,4.3,0,0,0,8.7,7.52H18.824a1.1,1.1,0,1,0,0-2.2H5.121c-.017,0-.031.009-.048.01A4.011,4.011,0,0,0,1.1,9.335V11.15a1.713,1.713,0,0,0,1.71,1.71H6.929v19.7a4.019,4.019,0,0,0,4,4.021l.011,0H33.3a4.026,4.026,0,0,0,4.02-4.02V30.754a1.714,1.714,0,0,0-1.711-1.712ZM3.3,10.66V9.335a1.814,1.814,0,0,1,3.628,0V10.66ZM35.121,32.567A1.82,1.82,0,0,1,33.3,34.386H14.513a6.742,6.742,0,0,0,.436-3.14H31.56c.006,0,.011,0,.018,0h3.544v1.325Z" transform="translate(-1.1 -0.162)" fill="#0091ff"/>
    <path id="Path_301134" data-name="Path 301134" d="M25.929,16.729a7.814,7.814,0,1,0-7.816-7.814A7.824,7.824,0,0,0,25.929,16.729Zm0-13.428a5.614,5.614,0,1,1-5.614,5.614A5.621,5.621,0,0,1,25.929,3.3Z" transform="translate(2.682 -1.1)" fill="#0091ff"/>
    <path id="Path_301135" data-name="Path 301135" d="M23.262,10.077a1.1,1.1,0,0,0,.74.414,1.072,1.072,0,0,0,.126.007,1.093,1.093,0,0,0,.689-.243L28.1,7.614A1.1,1.1,0,1,0,26.715,5.9L24.3,7.842l-.6-.765a1.1,1.1,0,1,0-1.731,1.358Z" transform="translate(3.489 -0.087)" fill="#0091ff"/>
  </g>
</svg>
