<svg xmlns="http://www.w3.org/2000/svg" width="27.564" height="35.027" viewBox="0 0 27.564 35.027">
  <g id="upload" transform="translate(0.1 0.1)" opacity="0.28">
    <path id="Path_301136" data-name="Path 301136" d="M12.364,15.855a1.244,1.244,0,0,1,0-1.759L16.1,10.364a1.244,1.244,0,0,1,1.759,0L21.586,14.1a1.244,1.244,0,0,1-1.759,1.759l-1.608-1.608v5.7a1.244,1.244,0,0,1-2.488,0v-5.7l-1.608,1.608A1.244,1.244,0,0,1,12.364,15.855Z" transform="translate(-3.293 -0.05)" fill="#0091ff" stroke="#e4e4e4" stroke-width="0.2"/>
    <path id="Path_301137" data-name="Path 301137" d="M23.682,22.488a1.244,1.244,0,1,0,0-2.488H11.244a1.244,1.244,0,1,0,0,2.488Z" transform="translate(-3.781 2.389)" fill="#0091ff" stroke="#e4e4e4" stroke-width="0.2"/>
    <path id="Path_301138" data-name="Path 301138" d="M9.5,3.4A3.731,3.731,0,0,1,12.415,2H28.632a3.731,3.731,0,0,1,3.731,3.731V33.1a3.731,3.731,0,0,1-3.731,3.731H8.731A3.731,3.731,0,0,1,5,33.1V10.336A3.731,3.731,0,0,1,5.818,8Zm2.914,1.087a1.244,1.244,0,0,0-.971.467L7.76,9.558a1.244,1.244,0,0,0-.273.777V33.1a1.244,1.244,0,0,0,1.244,1.244h19.9A1.244,1.244,0,0,0,29.876,33.1V5.731a1.244,1.244,0,0,0-1.244-1.244Z" transform="translate(-5 -2)" fill="#0091ff" stroke="#e4e4e4" stroke-width="0.2" fill-rule="evenodd"/>
  </g>
</svg>
