<svg xmlns="http://www.w3.org/2000/svg" width="69.973" height="74.701" viewBox="0 0 69.973 74.701">
  <g id="Group_76521" data-name="Group 76521" transform="translate(-218 -3203.708)">
    <g id="boarding-pass" transform="translate(209.953 3199.714)">
      <g id="Group_76171" data-name="Group 76171" transform="translate(18.876 3.994)">
        <path id="Path_300869" data-name="Path 300869" d="M85.451,21.581q-13.883,27.206-29.138,53.7A2.543,2.543,0,0,1,52.9,76.309l-25.053-13.9a2.534,2.534,0,0,1-.887-3.5Q42.144,32.543,55.98,5.439A2.531,2.531,0,0,1,59.441,4.3l25.053,13.9A2.547,2.547,0,0,1,85.451,21.581Z" transform="translate(-26.604 -3.994)" fill="#cedef5"/>
        <path id="Path_300870" data-name="Path 300870" d="M27.844,62.412l4.1,2.27Q48.363,35.97,63.483,6.546L59.439,4.305a2.524,2.524,0,0,0-3.455,1.144Q42.145,32.542,26.963,58.922a2.527,2.527,0,0,0,.881,3.49Z" transform="translate(-26.602 -3.998)" fill="#fd5797"/>
        <g id="Group_76166" data-name="Group 76166" transform="translate(19.707 9.158)">
          <g id="Group_76158" data-name="Group 76158" transform="translate(6.247)">
            <path id="Path_300871" data-name="Path 300871" d="M72.275,42.471a.006.006,0,0,1,.006-.006L84.075,20.628a.636.636,0,0,0-1.115-.613.006.006,0,0,1-.006.006l-11.8,21.838a.639.639,0,0,0,1.12.613Z" transform="translate(-71.077 -19.686)" fill="#94959a"/>
          </g>
          <g id="Group_76159" data-name="Group 76159" transform="translate(10.677 2.48)">
            <path id="Path_300872" data-name="Path 300872" d="M79.859,46.721a.006.006,0,0,1,.006-.006L91.659,24.878a.636.636,0,0,0-1.115-.613.006.006,0,0,1-.006.006L78.745,46.109a.636.636,0,0,0,1.115.613Z" transform="translate(-78.667 -23.936)" fill="#94959a"/>
          </g>
          <g id="Group_76160" data-name="Group 76160" transform="translate(15.1 4.963)">
            <path id="Path_300873" data-name="Path 300873" d="M87.445,50.973a.006.006,0,0,1,.006-.006L99.245,29.13a.636.636,0,0,0-1.115-.613.006.006,0,0,1-.006.006l-11.8,21.838a.636.636,0,0,0,.257.864A.645.645,0,0,0,87.445,50.973Z" transform="translate(-86.247 -28.191)" fill="#94959a"/>
          </g>
          <g id="Group_76161" data-name="Group 76161" transform="translate(19.524 7.437)">
            <path id="Path_300874" data-name="Path 300874" d="M95.025,55.213a.006.006,0,0,1,.006-.006L106.825,33.37a.636.636,0,0,0-1.115-.613.006.006,0,0,1-.006.006L93.9,54.6a.639.639,0,0,0,1.12.613Z" transform="translate(-93.827 -32.431)" fill="#94959a"/>
          </g>
          <g id="Group_76162" data-name="Group 76162" transform="translate(0 26.81)">
            <path id="Path_300875" data-name="Path 300875" d="M65.279,66.574a.639.639,0,0,0-1.115-.624L60.452,72.5a.647.647,0,0,0,.239.87.64.64,0,0,0,.87-.239l3.717-6.554Z" transform="translate(-60.372 -65.627)" fill="#94959a"/>
          </g>
          <g id="Group_76163" data-name="Group 76163" transform="translate(4.47 29.209)">
            <path id="Path_300876" data-name="Path 300876" d="M72.939,70.684a.639.639,0,0,0-1.115-.624l-3.712,6.548v.006a.639.639,0,0,0,1.115.624Z" transform="translate(-68.032 -69.737)" fill="#94959a"/>
          </g>
          <g id="Group_76164" data-name="Group 76164" transform="translate(8.946 31.601)">
            <path id="Path_300877" data-name="Path 300877" d="M80.609,74.784a.639.639,0,0,0-1.115-.624l-3.712,6.548v.006a.639.639,0,0,0,1.115.624Z" transform="translate(-75.702 -73.837)" fill="#94959a"/>
          </g>
          <g id="Group_76165" data-name="Group 76165" transform="translate(13.417 33.994)">
            <path id="Path_300878" data-name="Path 300878" d="M88.269,78.884a.639.639,0,0,0-1.115-.624l-3.712,6.548v.006a.639.639,0,0,0,1.115.624Z" transform="translate(-83.362 -77.937)" fill="#94959a"/>
          </g>
        </g>
        <path id="Path_300879" data-name="Path 300879" d="M29.829,71.532l25.053,13.9a.886.886,0,0,0,1.173-.4c3.2-5.579,6.414-11.246,9.53-16.865C72.29,56.079,78.867,43.7,85.152,31.393A.9.9,0,0,0,84.86,30.2l-1.488-.823C77.25,41.373,70.831,53.406,64.312,65.159c-2.083,3.758-4.2,7.534-6.338,11.286a6.724,6.724,0,0,1-8.9,2.661L30.1,69.39c-.181.309-.35.607-.525.916a.883.883,0,0,0,.257,1.226Z" transform="translate(-27.782 -14.565)" opacity="0.05"/>
        <g id="Group_76167" data-name="Group 76167" transform="translate(18.829 5.615)">
          <path id="Path_300880" data-name="Path 300880" d="M60.059,36.4a.006.006,0,0,1,.006-.006L71.859,14.558a.636.636,0,0,0-1.115-.613.006.006,0,0,1-.006.006L58.945,35.789a.636.636,0,0,0,.257.864.628.628,0,0,0,.858-.251Z" transform="translate(-58.867 -13.616)" fill="#fff"/>
        </g>
        <g id="Group_76168" data-name="Group 76168" transform="translate(12.494 31.97)">
          <path id="Path_300881" data-name="Path 300881" d="M52.919,59.724A.639.639,0,0,0,51.8,59.1l-3.712,6.548a.647.647,0,0,0,.239.87.64.64,0,0,0,.87-.239Z" transform="translate(-48.012 -58.777)" fill="#fff"/>
        </g>
        <g id="Group_76169" data-name="Group 76169" transform="translate(6.08 43.537)">
          <path id="Path_300882" data-name="Path 300882" d="M41.929,79.544a.639.639,0,0,0-1.115-.624L37.1,85.468a.647.647,0,0,0,.239.87.64.64,0,0,0,.87-.239l3.717-6.554Z" transform="translate(-37.022 -78.597)" fill="#fff"/>
        </g>
        <g id="Group_76170" data-name="Group 76170" transform="translate(0 0.007)">
          <path id="Path_300883" data-name="Path 300883" d="M27.844,62.413l.829.461a92.382,92.382,0,0,0,10.8-7.446c1.856-1.546,3.735-3.3,6.11-3.747,3.764-.706,7.347,2.089,11.176,2.183,3.607.082,6.886-2.3,8.993-5.229s3.291-6.408,4.727-9.717,3.256-6.624,6.2-8.7a9.835,9.835,0,0,1,5.235-1.78c1.179-2.282,2.363-4.564,3.525-6.851A2.531,2.531,0,0,0,84.48,18.2L59.439,4.306A2.529,2.529,0,0,0,55.984,5.45Q42.145,32.542,26.963,58.917a2.531,2.531,0,0,0,.881,3.5Z" transform="translate(-26.602 -4.006)" fill="#fff" opacity="0.15"/>
          <path id="Path_300884" data-name="Path 300884" d="M39.06,46.755c5.211-3.712,11.654-5.842,17.858-7.75,2.194-.671,4.47-1.389,6.157-2.959,2.7-2.521,3.3-6.74,6.046-9.232s6.84-2.6,10.364-3.787a20.408,20.408,0,0,0,8.45-5.795L64.627,4.306A2.529,2.529,0,0,0,61.172,5.45Q50.51,26.319,39.06,46.755Z" transform="translate(-31.79 -4.006)" fill="#fff" opacity="0.15"/>
          <path id="Path_300885" data-name="Path 300885" d="M27.844,65.883,41.7,73.569a18.276,18.276,0,0,1,.333-4.546A26.475,26.475,0,0,1,46.7,58.886c1.622-2.276,3.536-4.47,4.167-7.19.957-4.108-1.255-8.293-1.12-12.506.088-2.813,1.208-5.48,2.066-8.164A60.662,60.662,0,0,0,54.228,12.34Q41.193,37.682,26.963,62.388a2.531,2.531,0,0,0,.881,3.5Z" transform="translate(-26.602 -7.476)" fill="#fff" opacity="0.15"/>
        </g>
      </g>
      <g id="Group_76182" data-name="Group 76182" transform="translate(8.047 23.016)">
        <path id="Path_300886" data-name="Path 300886" d="M50.113,89.462Q51,64.47,50.6,39.45a2.909,2.909,0,0,0-2.912-2.86H11.428a2.9,2.9,0,0,0-2.9,2.953q.394,24.86-.479,49.721a2.9,2.9,0,0,0,2.9,3.005H47.2A2.915,2.915,0,0,0,50.113,89.462Z" transform="translate(-8.047 -36.59)" fill="#36c"/>
        <path id="Path_300887" data-name="Path 300887" d="M50.182,40.516a1.47,1.47,0,0,0-1.459-1.436H47.416V75.338A13.171,13.171,0,0,1,34.244,88.509H10.592c-.018.613-.029,1.231-.053,1.838a1.441,1.441,0,0,0,.409,1.062,1.425,1.425,0,0,0,1.039.444H48.239A1.461,1.461,0,0,0,49.7,90.447c.584-16.562.747-33.363.484-49.931Z" transform="translate(-9.085 -37.627)" opacity="0.1"/>
        <path id="Path_300888" data-name="Path 300888" d="M50.969,68.459a15.174,15.174,0,0,0-4.365-2.6c-2.445-.94-5.095-1.255-7.592-2.025S34,61.684,32.791,59.355c-1.068-2.048-.975-4.552-2.013-6.624-1.179-2.352-3.6-3.776-5.958-4.96A83.124,83.124,0,0,0,8.9,41.725c-.006-.724-.012-1.459-.029-2.188a2.892,2.892,0,0,1,2.9-2.947H48.028a2.913,2.913,0,0,1,2.912,2.86Q51.167,53.954,50.969,68.459Z" transform="translate(-8.389 -36.59)" fill="#fff" opacity="0.1"/>
        <g id="Group_76178" data-name="Group 76178" transform="translate(9.178 13.766)">
          <g id="Group_76172" data-name="Group 76172">
            <path id="Path_300889" data-name="Path 300889" d="M34.766,84.293a11.055,11.055,0,0,1-7.627-2.673,10.863,10.863,0,0,1-3.361-7.913A12.944,12.944,0,0,1,35.064,60.285a10.758,10.758,0,0,1,8.561,2.428A13.258,13.258,0,0,1,48.1,72.231c.2,5.386-2.889,11.368-12.2,12.016C35.513,84.276,35.134,84.293,34.766,84.293Zm.479-22.567a11.505,11.505,0,0,0-10.02,11.946,9.457,9.457,0,0,0,2.889,6.875A10.066,10.066,0,0,0,35.8,82.805c8.269-.578,11.024-5.807,10.843-10.51a11.756,11.756,0,0,0-3.962-8.462A9.313,9.313,0,0,0,35.244,61.726Z" transform="translate(-23.773 -60.179)" fill="#cedef5"/>
          </g>
          <g id="Group_76173" data-name="Group 76173" transform="translate(6.153 0.01)">
            <path id="Path_300890" data-name="Path 300890" d="M39.787,84.3a3.763,3.763,0,0,1-2.48-.934c-1.844-1.57-2.935-5.089-2.988-9.658-.064-5.69,1.611-12.308,5.445-13.387a3.174,3.174,0,0,1,2.848.56c2.457,1.827,3.636,7.032,3.712,11.386.093,5.351-1.418,11.316-5.935,12C40.19,84.283,39.985,84.3,39.787,84.3Zm.373-22.59c-2.93.823-4.447,6.787-4.389,11.975.047,4.027,1,7.306,2.474,8.567a2.3,2.3,0,0,0,1.926.56c3.595-.543,4.78-6.017,4.7-10.534-.082-4.721-1.371-8.935-3.128-10.242a1.75,1.75,0,0,0-1.581-.327Z" transform="translate(-34.317 -60.196)" fill="#cedef5"/>
          </g>
          <g id="Group_76174" data-name="Group 76174" transform="translate(0.748 11.348)">
            <path id="Path_300891" data-name="Path 300891" d="M0,0H22.865V1.453H0Z" transform="matrix(1, -0.022, 0.022, 1, 0, 0.503)" fill="#cedef5"/>
          </g>
          <g id="Group_76175" data-name="Group 76175" transform="translate(2.758 18.791)">
            <path id="Path_300892" data-name="Path 300892" d="M0,0H18.307V1.453H0Z" transform="translate(0 0.22) rotate(-0.688)" fill="#cedef5"/>
          </g>
          <g id="Group_76176" data-name="Group 76176" transform="translate(2.954 4.859)">
            <path id="Path_300893" data-name="Path 300893" d="M0,0H18.307V1.453H0Z" transform="translate(0 0.22) rotate(-0.688)" fill="#cedef5"/>
          </g>
          <g id="Group_76177" data-name="Group 76177" transform="translate(11.39 0.749)">
            <path id="Path_300894" data-name="Path 300894" d="M0,0H22.6V1.453H0Z" transform="translate(0 22.596) rotate(-89.885)" fill="#cedef5"/>
          </g>
        </g>
        <g id="Group_76179" data-name="Group 76179" transform="translate(13.144 3.922)">
          <path id="Path_300895" data-name="Path 300895" d="M46.233,44.757H31.294a.724.724,0,0,1,0-1.447H46.227a.724.724,0,0,1,.006,1.447Z" transform="translate(-30.57 -43.31)" fill="#cedef5"/>
        </g>
        <g id="Group_76180" data-name="Group 76180" transform="translate(8.446 8.304)">
          <path id="Path_300896" data-name="Path 300896" d="M47.579,52.267H23.244a.724.724,0,1,1,0-1.447H47.579a.724.724,0,0,1,0,1.447Z" transform="translate(-22.52 -50.82)" fill="#cedef5"/>
        </g>
        <path id="Path_300897" data-name="Path 300897" d="M48.081,116.275H21.2a.533.533,0,0,1-.531-.531V113.7a.533.533,0,0,1,.531-.531H48.075a.533.533,0,0,1,.531.531v2.043A.521.521,0,0,1,48.081,116.275Z" transform="translate(-13.303 -68.48)" fill="#cedef5"/>
        <g id="Group_76181" data-name="Group 76181" transform="translate(0)">
          <path id="Path_300898" data-name="Path 300898" d="M50.632,42.052a21.9,21.9,0,0,0-4.54,5.818A32.821,32.821,0,0,0,42.527,61.4c-.128,1.978-.373,4.353-2.148,5.229a10.978,10.978,0,0,1-2.369.572,6.882,6.882,0,0,0-4.19,3.466,16.477,16.477,0,0,0-1.64,5.316c-.356,2.025-.77,4.33-2.521,5.41-1.371.852-3.122.642-4.739.782a10.066,10.066,0,0,0-9.156,10.09H10.949a2.906,2.906,0,0,1-2.9-3.005q.875-24.843.479-49.721a2.892,2.892,0,0,1,2.9-2.947H47.685A2.913,2.913,0,0,1,50.6,39.45c.012.87.029,1.739.035,2.6Z" transform="translate(-8.047 -36.59)" fill="#fff" opacity="0.1"/>
          <path id="Path_300899" data-name="Path 300899" d="M42.248,36.59a15.72,15.72,0,0,0-7.394,4.639c-1.57,1.844-2.562,4.1-3.828,6.163s-2.941,4.056-5.235,4.832c-2.037.689-4.342.35-6.3,1.226-2.276,1.027-3.572,3.449-4.365,5.812-1.459,4.342-1.774,9-3.116,13.381A19.215,19.215,0,0,1,8.57,79.273q.5-19.862.181-39.736a2.892,2.892,0,0,1,2.9-2.947Z" transform="translate(-8.265 -36.59)" fill="#fff" opacity="0.1"/>
        </g>
      </g>
      <g id="Group_76184" data-name="Group 76184" transform="translate(42.159 42.473)">
        <path id="Path_300900" data-name="Path 300900" d="M99.175,82.172c-.729,2.7-2,5.211-2.953,7.837a15.412,15.412,0,0,0-1.05,8.205H87.924a15.412,15.412,0,0,0-1.05-8.205c-.957-2.626-2.223-5.141-2.953-7.837a11.782,11.782,0,0,1,.35-8.188c1.056-2.148,4.511-4.044,7.271-4.044,2.789,0,6.04,1.541,7.271,4.044A11.717,11.717,0,0,1,99.175,82.172Z" transform="translate(-73.521 -69.934)" fill="#ef8e49"/>
        <path id="Path_300901" data-name="Path 300901" d="M103.77,82.93a40.251,40.251,0,0,1-1.832,5.007c-.4.963-.811,1.967-1.179,2.97a17.922,17.922,0,0,0-1.3,7.773H97.893a18.009,18.009,0,0,1,1.3-7.773c.368-1,.782-2.008,1.185-2.97a41.162,41.162,0,0,0,1.827-5.007c.566-2.1.975-5.124-.292-7.715a7.43,7.43,0,0,0-5.754-3.542,5.551,5.551,0,0,1,.747-.053c2.737,0,5.562,1.546,6.571,3.595C104.744,77.806,104.336,80.841,103.77,82.93Z" transform="translate(-78.851 -70.634)" opacity="0.1"/>
        <g id="Group_76183" data-name="Group 76183" transform="translate(9.833)">
          <path id="Path_300902" data-name="Path 300902" d="M101.607,82.168a42.082,42.082,0,0,1-1.838,5.048,1.816,1.816,0,0,0-.315-.2c-1.867-1.045-4.394-.525-6.1-1.827a5.251,5.251,0,0,1-1.739-3.84c-.117-1.447.07-2.9-.082-4.348a10.844,10.844,0,0,0-2.334-5.55,9.446,9.446,0,0,1,4.78-1.517c2.8,0,6.04,1.541,7.271,4.05A11.749,11.749,0,0,1,101.607,82.168Z" transform="translate(-85.786 -69.93)" fill="#fff" opacity="0.1"/>
          <path id="Path_300903" data-name="Path 300903" d="M99.382,75.433c-1.226,1.027-2.445,2.048-3.671,3.07a4.742,4.742,0,0,0-1.488,1.727c-.449,1.109-.018,2.358.105,3.548a6.64,6.64,0,0,1-1.115,4.359c-.694,1.015-1.692,1.867-2.037,3.052a8.824,8.824,0,0,0-.088,2.8,9.992,9.992,0,0,1-.823,4.219H87.944a15.412,15.412,0,0,0-1.05-8.205c-.957-2.626-2.223-5.141-2.953-7.837a11.782,11.782,0,0,1,.35-8.188c1.056-2.148,4.511-4.05,7.271-4.05,2.8,0,6.04,1.541,7.271,4.05a8.74,8.74,0,0,1,.549,1.453Z" transform="translate(-83.363 -69.93)" fill="#fff" opacity="0.1"/>
          <path id="Path_300904" data-name="Path 300904" d="M94.526,70.481q-.324,1.689-.648,3.391a7.582,7.582,0,0,1-1.657,4.05c-.91.91-2.264,1.325-3.052,2.346a4.742,4.742,0,0,0-.578,3.764c.251,1.284.747,2.521.875,3.822a7.077,7.077,0,0,1-1.7,5.2,23.739,23.739,0,0,0-.9-3.029c-.957-2.626-2.223-5.141-2.953-7.837A11.782,11.782,0,0,1,84.261,74c1.056-2.148,4.511-4.05,7.271-4.05A8.555,8.555,0,0,1,94.526,70.481Z" transform="translate(-83.35 -69.938)" fill="#fff" opacity="0.1"/>
        </g>
        <path id="Path_300905" data-name="Path 300905" d="M101.137,123.69l-30.346.117a.6.6,0,0,0-.6.6v2.282a1.852,1.852,0,0,0,1.856,1.85l27.854-.105a1.848,1.848,0,0,0,1.838-1.85v-2.293a.6.6,0,0,0-.6-.6Z" transform="translate(-68.037 -92.317)" fill="#404042"/>
        <path id="Path_300906" data-name="Path 300906" d="M66.547,123.357a15,15,0,0,1-.035-1.774A3.8,3.8,0,0,1,70.3,117.93H98.556a3.788,3.788,0,0,1,3.793,3.653,15,15,0,0,1-.035,1.774,1.172,1.172,0,0,1-1.167,1.085H67.714A1.176,1.176,0,0,1,66.547,123.357Z" transform="translate(-66.5 -89.918)" fill="#ffdf18"/>
        <path id="Path_300907" data-name="Path 300907" d="M104.337,123.137a10.394,10.394,0,0,0-6.39-1.307c-1.523.193-3.046.718-4.552.438-1.611-.3-2.9-1.465-4.383-2.171-3.688-1.757-8.036-.5-12.115-.77a19.688,19.688,0,0,1-5.567-1.272,3.69,3.69,0,0,1,.986-.134h28.251a3.8,3.8,0,0,1,3.793,3.653,13.965,13.965,0,0,1-.023,1.564Z" transform="translate(-68.511 -89.914)" fill="#fff" opacity="0.1"/>
        <path id="Path_300908" data-name="Path 300908" d="M99.4,118.019c-.683.338-1.36.7-2.025,1.062-2.7,1.482-5.416,3.093-8.439,3.682-2.037.4-4.155.315-6.157.864a14.369,14.369,0,0,0-2.159.811h-12.9a1.177,1.177,0,0,1-1.167-1.091,14.978,14.978,0,0,1-.035-1.774A3.8,3.8,0,0,1,70.3,117.92H98.556a3.639,3.639,0,0,1,.84.1Z" transform="translate(-66.5 -89.914)" fill="#fff" opacity="0.1"/>
        <path id="Path_300909" data-name="Path 300909" d="M102.272,124.036a.888.888,0,0,1-.875.823H67.964a.879.879,0,0,1-.864-.759.378.378,0,0,0,.117.012H99.133a2.42,2.42,0,0,0,2.434-2.463,1.269,1.269,0,0,0-.006-.146,3.416,3.416,0,0,0-.648-1.873,3.47,3.47,0,0,1,1.395,2.667A14.4,14.4,0,0,1,102.272,124.036Z" transform="translate(-66.75 -90.626)" opacity="0.1"/>
        <path id="Path_300910" data-name="Path 300910" d="M101.3,119.1a16.79,16.79,0,0,1-8.7,2.328c-2.223-.134-4.441-.951-6.629-.543-1.873.35-3.5,1.564-5.375,1.908a16.331,16.331,0,0,1-5.328-.426c-1.774-.268-3.741-.28-5.171.805-.484.373-.881.858-1.348,1.261H67.714a1.177,1.177,0,0,1-1.167-1.091,14.978,14.978,0,0,1-.035-1.774A3.8,3.8,0,0,1,70.3,117.92H98.556A3.775,3.775,0,0,1,101.3,119.1Z" transform="translate(-66.5 -89.914)" fill="#fff" opacity="0.1"/>
      </g>
    </g>
  </g>
</svg>
